  0
SECTION
  2
HEADER
  9
$ACADVER
  1
AC1009
  9
$FILLMODE
 70
0
  9
$EXTMIN
 10
-9.2345
 20
-1.0160
 30
0.0000
  9
$EXTMAX
 10
68.8683
 20
76.9112
 30
0.0000
  0
ENDSEC
  0
SECTION
  2
TABLES
  0
TABLE
  2
LTYPE
 70
1
  0
LTYPE
  2
CONTINUOUS
 70
64
  3
Solid line
 72
65
 73
0
 40
0
  0
ENDTAB
  0
TABLE
  2
LAYER
 70
255
  0
LAYER
  2
20
 70
64
 62
30
  6
CONTINUOUS
  0
LAYER
  2
21
 70
64
 62
253
  6
CONTINUOUS
  0
LAYER
  2
49
 70
64
 62
253
  6
CONTINUOUS
  0
LAYER
  2
51
 70
64
 62
253
  6
CONTINUOUS
  0
LAYER
  2
105
 70
64
 62
5
  6
CONTINUOUS
  0
LAYER
  2
120
 70
64
 62
253
  6
CONTINUOUS
  0
LAYER
  2
127
 70
64
 62
253
  6
CONTINUOUS
  0
LAYER
  2
128
 70
64
 62
253
  6
CONTINUOUS
  0
LAYER
  2
144
 70
64
 62
253
  6
CONTINUOUS
  0
LAYER
  2
152
 70
64
 62
253
  6
CONTINUOUS
  0
LAYER
  2
248
 70
64
 62
253
  6
CONTINUOUS
  0
LAYER
  2
249
 70
64
 62
253
  6
CONTINUOUS
  0
ENDTAB
  0
ENDSEC
  0
SECTION
  2
BLOCKS
  0
BLOCK
  8
0
  2
RECT
 70
64
 10
0.0000
 20
0.0000
 30
0.0000
  3
RECT
  0
SOLID
  8
0
 10
-0.5000
 20
-0.5000
 30
0.0000
 11
0.5000
 21
-0.5000
 31
0.0000
 12
-0.5000
 22
0.5000
 32
0.0000
 13
0.5000
 23
0.5000
 33
0.0000
  0
ENDBLK
  8
0
  0
BLOCK
  8
0
  2
PIE
 70
64
 10
0.0000
 20
0.0000
 30
0.0000
  3
PIE
  0
CIRCLE
  8
0
 10
0.0000
 20
0.0000
 30
0.0000
 40
0.5000
  0
ENDBLK
  8
0
  0
BLOCK
  8
0
  2
OCTAGONP
 70
64
 10
0.0000
 20
0.0000
 30
0.0000
  3
OCTAGONP
  0
POLYLINE
  8
0
 66
1
 10
0.0000
 20
0.0000
 30
0.0000
 40
0.0000
 41
0.0000
 70
1
  0
VERTEX
  8
0
 10
-0.5000
 20
-0.2071
 30
0.0000
  0
VERTEX
  8
0
 10
-0.5000
 20
0.2071
 30
0.0000
  0
VERTEX
  8
0
 10
-0.2071
 20
0.5000
 30
0.0000
  0
VERTEX
  8
0
 10
0.2071
 20
0.5000
 30
0.0000
  0
VERTEX
  8
0
 10
0.5000
 20
0.2071
 30
0.0000
  0
VERTEX
  8
0
 10
0.5000
 20
-0.2071
 30
0.0000
  0
VERTEX
  8
0
 10
0.2071
 20
-0.5000
 30
0.0000
  0
VERTEX
  8
0
 10
-0.2071
 20
-0.5000
 30
0.0000
  0
SEQEND
  8
0
  0
ENDBLK
  8
0
  0
BLOCK
  8
0
  2
SQUAREP
 70
64
 10
0.0000
 20
0.0000
 30
0.0000
  3
SQUAREP
  0
SOLID
  8
0
 10
-0.5000
 20
-0.5000
 30
0.0000
 11
0.5000
 21
-0.5000
 31
0.0000
 12
-0.5000
 22
0.5000
 32
0.0000
 13
0.5000
 23
0.5000
 33
0.0000
  0
ENDBLK
  8
0
  0
BLOCK
  8
0
  2
ROUNDP
 70
64
 10
0.0000
 20
0.0000
 30
0.0000
  3
ROUNDP
  0
CIRCLE
  8
0
 10
0.0000
 20
0.0000
 30
0.0000
 40
0.5000
  0
ENDBLK
  8
0
  0
BLOCK
  8
0
  2
ANNULUSP
 70
64
 10
0.0000
 20
0.0000
 30
0.0000
  3
ANNULUSP
  0
CIRCLE
  8
0
 10
0.0000
 20
0.0000
 30
0.0000
 40
0.5000
  0
ENDBLK
  8
0
  0
BLOCK
  8
0
  2
THERMALP
 70
64
 10
0.0000
 20
0.0000
 30
0.0000
  3
THERMALP
  0
LINE
  8
0
 10
-0.2379
 20
0.4500
 30
0.0000
 11
0.2379
 21
0.4500
 31
0.0000
  0
LINE
  8
0
 10
0.4500
 20
0.2379
 30
0.0000
 11
0.4500
 21
-0.2379
 31
0.0000
  0
LINE
  8
0
 10
0.2379
 20
-0.4500
 30
0.0000
 11
-0.2379
 21
-0.4500
 31
0.0000
  0
LINE
  8
0
 10
-0.4500
 20
-0.2379
 30
0.0000
 11
-0.4500
 21
0.2379
 31
0.0000
  0
ENDBLK
  8
0
  0
BLOCK
  8
0
  2
OCTAGONV
 70
64
 10
0.0000
 20
0.0000
 30
0.0000
  3
OCTAGONV
  0
POLYLINE
  8
0
 66
1
 10
0.0000
 20
0.0000
 30
0.0000
 40
0.0000
 41
0.0000
 70
1
  0
VERTEX
  8
0
 10
-0.5000
 20
-0.2071
 30
0.0000
  0
VERTEX
  8
0
 10
-0.5000
 20
0.2071
 30
0.0000
  0
VERTEX
  8
0
 10
-0.2071
 20
0.5000
 30
0.0000
  0
VERTEX
  8
0
 10
0.2071
 20
0.5000
 30
0.0000
  0
VERTEX
  8
0
 10
0.5000
 20
0.2071
 30
0.0000
  0
VERTEX
  8
0
 10
0.5000
 20
-0.2071
 30
0.0000
  0
VERTEX
  8
0
 10
0.2071
 20
-0.5000
 30
0.0000
  0
VERTEX
  8
0
 10
-0.2071
 20
-0.5000
 30
0.0000
  0
SEQEND
  8
0
  0
ENDBLK
  8
0
  0
BLOCK
  8
0
  2
SQUAREV
 70
64
 10
0.0000
 20
0.0000
 30
0.0000
  3
SQUAREV
  0
SOLID
  8
0
 10
-0.5000
 20
-0.5000
 30
0.0000
 11
0.5000
 21
-0.5000
 31
0.0000
 12
-0.5000
 22
0.5000
 32
0.0000
 13
0.5000
 23
0.5000
 33
0.0000
  0
ENDBLK
  8
0
  0
BLOCK
  8
0
  2
ROUNDV
 70
64
 10
0.0000
 20
0.0000
 30
0.0000
  3
ROUNDV
  0
CIRCLE
  8
0
 10
0.0000
 20
0.0000
 30
0.0000
 40
0.5000
  0
ENDBLK
  8
0
  0
BLOCK
  8
0
  2
ANNULUSV
 70
64
 10
0.0000
 20
0.0000
 30
0.0000
  3
ANNULUSV
  0
CIRCLE
  8
0
 10
0.0000
 20
0.0000
 30
0.0000
 40
0.5000
  0
ENDBLK
  8
0
  0
BLOCK
  8
0
  2
THERMALV
 70
64
 10
0.0000
 20
0.0000
 30
0.0000
  3
THERMALV
  0
LINE
  8
0
 10
-0.2379
 20
0.4500
 30
0.0000
 11
0.2379
 21
0.4500
 31
0.0000
  0
LINE
  8
0
 10
0.4500
 20
0.2379
 30
0.0000
 11
0.4500
 21
-0.2379
 31
0.0000
  0
LINE
  8
0
 10
0.2379
 20
-0.4500
 30
0.0000
 11
-0.2379
 21
-0.4500
 31
0.0000
  0
LINE
  8
0
 10
-0.4500
 20
-0.2379
 30
0.0000
 11
-0.4500
 21
0.2379
 31
0.0000
  0
ENDBLK
  8
0
  0
ENDSEC
  0
SECTION
  2
ENTITIES
  0
LINE
  8
20
 10
0.0000
 20
11.0000
 30
0.0000
 11
0.0000
 21
18.6000
 31
0.0000
  0
LINE
  8
20
 10
0.0000
 20
20.6000
 30
0.0000
 11
0.0000
 21
42.9000
 31
0.0000
  0
LINE
  8
20
 10
0.0000
 20
44.9000
 30
0.0000
 11
0.0000
 21
48.9000
 31
0.0000
  0
LINE
  8
20
 10
0.0000
 20
48.9000
 30
0.0000
 11
58.0000
 21
48.9000
 31
0.0000
  0
LINE
  8
20
 10
58.0000
 20
48.9000
 30
0.0000
 11
58.0000
 21
44.9000
 31
0.0000
  0
LINE
  8
20
 10
58.0000
 20
42.9000
 30
0.0000
 11
58.0000
 21
20.6000
 31
0.0000
  0
LINE
  8
20
 10
58.0000
 20
18.6000
 30
0.0000
 11
58.0000
 21
11.0000
 31
0.0000
  0
LINE
  8
21
 10
0.9525
 20
42.2275
 30
0.0000
 11
0.9525
 21
40.3225
 31
0.0000
  0
LINE
  8
21
 10
0.6350
 20
40.6400
 30
0.0000
 11
0.9525
 21
40.3225
 31
0.0000
  0
LINE
  8
21
 10
0.9525
 20
40.3225
 30
0.0000
 11
1.2700
 21
40.6400
 31
0.0000
  0
LINE
  8
21
 10
0.6350
 20
41.9100
 30
0.0000
 11
0.9525
 21
42.2275
 31
0.0000
  0
LINE
  8
21
 10
0.9525
 20
42.2275
 30
0.0000
 11
1.2700
 21
41.9100
 31
0.0000
  0
ARC
  8
20
 10
0.0000
 20
19.6000
 30
0.0000
 40
1.0000
 50
270.0000
 51
90.0000
  0
ARC
  8
20
 10
0.0000
 20
43.9000
 30
0.0000
 40
1.0000
 50
270.0000
 51
90.0000
  0
ARC
  8
20
 10
58.0000
 20
19.6000
 30
0.0000
 40
1.0000
 50
90.0000
 51
270.0000
  0
ARC
  8
20
 10
58.0000
 20
43.9000
 30
0.0000
 40
1.0000
 50
90.0000
 51
270.0000
  0
LINE
  8
21
 10
2.5654
 20
33.4709
 30
0.0000
 11
2.5654
 21
33.0532
 31
0.0000
  0
LINE
  8
21
 10
2.5654
 20
33.0532
 30
0.0000
 11
1.6256
 21
33.0532
 31
0.0000
  0
LINE
  8
21
 10
1.6256
 20
33.0532
 30
0.0000
 11
1.6256
 21
33.4709
 31
0.0000
  0
LINE
  8
21
 10
2.0433
 20
33.0532
 30
0.0000
 11
2.0433
 21
33.3665
 31
0.0000
  0
LINE
  8
21
 10
2.5654
 20
33.8440
 30
0.0000
 11
1.6256
 21
33.8440
 31
0.0000
  0
LINE
  8
21
 10
1.6256
 20
33.8440
 30
0.0000
 11
2.5654
 21
34.3661
 31
0.0000
  0
LINE
  8
21
 10
2.5654
 20
34.3661
 30
0.0000
 11
1.6256
 21
34.3661
 31
0.0000
  0
LINE
  8
21
 10
2.5654
 20
34.7366
 30
0.0000
 11
1.6256
 21
35.0499
 31
0.0000
  0
LINE
  8
21
 10
1.6256
 20
35.0499
 30
0.0000
 11
2.5654
 21
35.3632
 31
0.0000
  0
LINE
  8
21
 10
2.3304
 20
35.2848
 30
0.0000
 11
2.3304
 21
34.8149
 31
0.0000
  0
LINE
  8
21
 10
3.5673
 20
33.2500
 30
0.0000
 11
3.5673
 21
33.5110
 31
0.0000
  0
ARC
  8
21
 10
3.8283
 20
33.5110
 30
0.0000
 40
0.2611
 50
0.0000
 51
180.0000
  0
LINE
  8
21
 10
4.0894
 20
33.5110
 30
0.0000
 11
4.0894
 21
33.2500
 31
0.0000
  0
LINE
  8
21
 10
4.0894
 20
33.2500
 30
0.0000
 11
3.1496
 21
33.2500
 31
0.0000
  0
LINE
  8
21
 10
3.1496
 20
33.2500
 30
0.0000
 11
3.1496
 21
33.5110
 31
0.0000
  0
ARC
  8
21
 10
3.3584
 20
33.5110
 30
0.0000
 40
0.2088
 50
0.0000
 51
180.0000
  0
LINE
  8
21
 10
3.1496
 20
34.1530
 30
0.0000
 11
4.0894
 21
34.1530
 31
0.0000
  0
LINE
  8
21
 10
4.0894
 20
34.1530
 30
0.0000
 11
4.0894
 21
34.5707
 31
0.0000
  0
LINE
  8
21
 10
4.0894
 20
35.3632
 30
0.0000
 11
4.0894
 21
34.9455
 31
0.0000
  0
LINE
  8
21
 10
4.0894
 20
34.9455
 30
0.0000
 11
3.1496
 21
34.9455
 31
0.0000
  0
LINE
  8
21
 10
3.1496
 20
34.9455
 30
0.0000
 11
3.1496
 21
35.3632
 31
0.0000
  0
LINE
  8
21
 10
3.5673
 20
34.9455
 30
0.0000
 11
3.5673
 21
35.2587
 31
0.0000
  0
LINE
  8
21
 10
6.6612
 20
32.9600
 30
0.0000
 11
5.7214
 21
33.2733
 31
0.0000
  0
LINE
  8
21
 10
5.7214
 20
33.2733
 30
0.0000
 11
6.6612
 21
33.5866
 31
0.0000
  0
LINE
  8
21
 10
6.4262
 20
33.5083
 30
0.0000
 11
6.4262
 21
33.0384
 31
0.0000
  0
LINE
  8
21
 10
5.9302
 20
33.9266
 30
0.0000
 11
5.7214
 21
34.1877
 31
0.0000
  0
LINE
  8
21
 10
5.7214
 20
34.1877
 30
0.0000
 11
6.6612
 21
34.1877
 31
0.0000
  0
LINE
  8
21
 10
6.6612
 20
33.9266
 30
0.0000
 11
6.6612
 21
34.4488
 31
0.0000
  0
LINE
  8
21
 10
6.6612
 20
34.8410
 30
0.0000
 11
6.6612
 21
35.1543
 31
0.0000
  0
ARC
  8
21
 10
6.4523
 20
35.1543
 30
0.0000
 40
0.2088
 50
0.0000
 51
90.0000
  0
LINE
  8
21
 10
6.4523
 20
35.3632
 30
0.0000
 11
6.3479
 21
35.3632
 31
0.0000
  0
ARC
  8
21
 10
6.3479
 20
35.1543
 30
0.0000
 40
0.2088
 50
90.0000
 51
180.0000
  0
LINE
  8
21
 10
6.1390
 20
35.1543
 30
0.0000
 11
6.1390
 21
34.8410
 31
0.0000
  0
LINE
  8
21
 10
6.1390
 20
34.8410
 30
0.0000
 11
5.7214
 21
34.8410
 31
0.0000
  0
LINE
  8
21
 10
5.7214
 20
34.8410
 30
0.0000
 11
5.7214
 21
35.3632
 31
0.0000
  0
LINE
  8
21
 10
9.2012
 20
32.9600
 30
0.0000
 11
8.2614
 21
33.2733
 31
0.0000
  0
LINE
  8
21
 10
8.2614
 20
33.2733
 30
0.0000
 11
9.2012
 21
33.5866
 31
0.0000
  0
LINE
  8
21
 10
8.9662
 20
33.5083
 30
0.0000
 11
8.9662
 21
33.0384
 31
0.0000
  0
LINE
  8
21
 10
8.4702
 20
33.9266
 30
0.0000
 11
8.2614
 21
34.1877
 31
0.0000
  0
LINE
  8
21
 10
8.2614
 20
34.1877
 30
0.0000
 11
9.2012
 21
34.1877
 31
0.0000
  0
LINE
  8
21
 10
9.2012
 20
33.9266
 30
0.0000
 11
9.2012
 21
34.4488
 31
0.0000
  0
LINE
  8
21
 10
8.2614
 20
35.0499
 30
0.0000
 11
8.9923
 21
34.8410
 31
0.0000
  0
LINE
  8
21
 10
8.9923
 20
34.8410
 30
0.0000
 11
8.9923
 21
35.3632
 31
0.0000
  0
LINE
  8
21
 10
8.7835
 20
35.2065
 30
0.0000
 11
9.2012
 21
35.2065
 31
0.0000
  0
LINE
  8
21
 10
11.7412
 20
32.9600
 30
0.0000
 11
10.8014
 21
33.2733
 31
0.0000
  0
LINE
  8
21
 10
10.8014
 20
33.2733
 30
0.0000
 11
11.7412
 21
33.5866
 31
0.0000
  0
LINE
  8
21
 10
11.5062
 20
33.5083
 30
0.0000
 11
11.5062
 21
33.0384
 31
0.0000
  0
LINE
  8
21
 10
11.0102
 20
33.9266
 30
0.0000
 11
10.8014
 21
34.1877
 31
0.0000
  0
LINE
  8
21
 10
10.8014
 20
34.1877
 30
0.0000
 11
11.7412
 21
34.1877
 31
0.0000
  0
LINE
  8
21
 10
11.7412
 20
33.9266
 30
0.0000
 11
11.7412
 21
34.4488
 31
0.0000
  0
LINE
  8
21
 10
11.7412
 20
34.8410
 30
0.0000
 11
11.7412
 21
35.1021
 31
0.0000
  0
ARC
  8
21
 10
11.4801
 20
35.1021
 30
0.0000
 40
0.2611
 50
0.0000
 51
180.0000
  0
LINE
  8
21
 10
10.8014
 20
34.8410
 30
0.0000
 11
10.8014
 21
35.1543
 31
0.0000
  0
ARC
  8
21
 10
11.0102
 20
35.1543
 30
0.0000
 40
0.2088
 50
0.0000
 51
180.0000
  0
LINE
  8
21
 10
11.2190
 20
35.1543
 30
0.0000
 11
11.2190
 21
34.9455
 31
0.0000
  0
LINE
  8
21
 10
51.1175
 20
41.2940
 30
0.0000
 11
55.0019
 21
41.2940
 31
0.0000
  0
LINE
  8
21
 10
51.1556
 20
40.2019
 30
0.0000
 11
51.1556
 21
41.1416
 31
0.0000
  0
LINE
  8
21
 10
51.1556
 20
41.1416
 30
0.0000
 11
51.4167
 21
41.1416
 31
0.0000
  0
ARC
  8
21
 10
51.4167
 20
40.8806
 30
0.0000
 40
0.2611
 50
270.0000
 51
90.0000
  0
LINE
  8
21
 10
51.4167
 20
40.6195
 30
0.0000
 11
51.1556
 21
40.6195
 31
0.0000
  0
LINE
  8
21
 10
51.6777
 20
40.2019
 30
0.0000
 11
51.4689
 21
40.6195
 31
0.0000
  0
LINE
  8
21
 10
52.5142
 20
40.2019
 30
0.0000
 11
52.0965
 21
40.2019
 31
0.0000
  0
LINE
  8
21
 10
52.0965
 20
40.2019
 30
0.0000
 11
52.0965
 21
41.1416
 31
0.0000
  0
LINE
  8
21
 10
52.0965
 20
41.1416
 30
0.0000
 11
52.5142
 21
41.1416
 31
0.0000
  0
LINE
  8
21
 10
52.0965
 20
40.7240
 30
0.0000
 11
52.4098
 21
40.7240
 31
0.0000
  0
ARC
  8
21
 10
53.1395
 20
40.4107
 30
0.0000
 40
0.2088
 50
270.0000
 51
0.0000
  0
ARC
  8
21
 10
53.1395
 20
40.6430
 30
0.0000
 40
0.4412
 50
224.7611
 51
269.9999
  0
ARC
  8
21
 10
53.0612
 20
40.9328
 30
0.0000
 40
0.2088
 50
89.9991
 51
180.0000
  0
ARC
  8
21
 10
53.0612
 20
40.7501
 30
0.0000
 40
0.3916
 50
53.1301
 51
89.9991
  0
ARC
  8
21
 10
53.0645
 20
40.9328
 30
0.0000
 40
0.2121
 50
179.9997
 51
239.4903
  0
ARC
  8
21
 10
53.1363
 20
40.4107
 30
0.0000
 40
0.2121
 50
0.0001
 51
59.4899
  0
LINE
  8
21
 10
53.2440
 20
40.5934
 30
0.0000
 11
52.9568
 21
40.7501
 31
0.0000
  0
LINE
  8
21
 10
54.1601
 20
40.2019
 30
0.0000
 11
53.7424
 21
40.2019
 31
0.0000
  0
LINE
  8
21
 10
53.7424
 20
40.2019
 30
0.0000
 11
53.7424
 21
41.1416
 31
0.0000
  0
LINE
  8
21
 10
53.7424
 20
41.1416
 30
0.0000
 11
54.1601
 21
41.1416
 31
0.0000
  0
LINE
  8
21
 10
53.7424
 20
40.7240
 30
0.0000
 11
54.0557
 21
40.7240
 31
0.0000
  0
LINE
  8
21
 10
54.7028
 20
40.2019
 30
0.0000
 11
54.7028
 21
41.1416
 31
0.0000
  0
LINE
  8
21
 10
54.4417
 20
41.1416
 30
0.0000
 11
54.9638
 21
41.1416
 31
0.0000
  0
LINE
  8
21
 10
17.9324
 20
45.4406
 30
0.0000
 11
16.9926
 21
45.7539
 31
0.0000
  0
LINE
  8
21
 10
16.9926
 20
45.7539
 30
0.0000
 11
17.9324
 21
46.0671
 31
0.0000
  0
LINE
  8
21
 10
17.6974
 20
45.9888
 30
0.0000
 11
17.6974
 21
45.5189
 31
0.0000
  0
LINE
  8
21
 10
17.2014
 20
46.4072
 30
0.0000
 11
16.9926
 21
46.6683
 31
0.0000
  0
LINE
  8
21
 10
16.9926
 20
46.6683
 30
0.0000
 11
17.9324
 21
46.6683
 31
0.0000
  0
LINE
  8
21
 10
17.9324
 20
46.4072
 30
0.0000
 11
17.9324
 21
46.9293
 31
0.0000
  0
LINE
  8
21
 10
17.9324
 20
47.3216
 30
0.0000
 11
17.9324
 21
47.6349
 31
0.0000
  0
ARC
  8
21
 10
17.7236
 20
47.6349
 30
0.0000
 40
0.2088
 50
0.0000
 51
90.0000
  0
LINE
  8
21
 10
17.7236
 20
47.8437
 30
0.0000
 11
17.6191
 21
47.8437
 31
0.0000
  0
ARC
  8
21
 10
17.6191
 20
47.6349
 30
0.0000
 40
0.2088
 50
90.0000
 51
180.0000
  0
LINE
  8
21
 10
17.4103
 20
47.6349
 30
0.0000
 11
17.4103
 21
47.3216
 31
0.0000
  0
LINE
  8
21
 10
17.4103
 20
47.3216
 30
0.0000
 11
16.9926
 21
47.3216
 31
0.0000
  0
LINE
  8
21
 10
16.9926
 20
47.3216
 30
0.0000
 11
16.9926
 21
47.8437
 31
0.0000
  0
LINE
  8
21
 10
20.6312
 20
45.4406
 30
0.0000
 11
19.6913
 21
45.7539
 31
0.0000
  0
LINE
  8
21
 10
19.6913
 20
45.7539
 30
0.0000
 11
20.6312
 21
46.0671
 31
0.0000
  0
LINE
  8
21
 10
20.3962
 20
45.9888
 30
0.0000
 11
20.3962
 21
45.5189
 31
0.0000
  0
LINE
  8
21
 10
19.9002
 20
46.4072
 30
0.0000
 11
19.6913
 21
46.6683
 31
0.0000
  0
LINE
  8
21
 10
19.6913
 20
46.6683
 30
0.0000
 11
20.6312
 21
46.6683
 31
0.0000
  0
LINE
  8
21
 10
20.6312
 20
46.4072
 30
0.0000
 11
20.6312
 21
46.9293
 31
0.0000
  0
LINE
  8
21
 10
19.6913
 20
47.5304
 30
0.0000
 11
20.4223
 21
47.3216
 31
0.0000
  0
LINE
  8
21
 10
20.4223
 20
47.3216
 30
0.0000
 11
20.4223
 21
47.8437
 31
0.0000
  0
LINE
  8
21
 10
20.2135
 20
47.6871
 30
0.0000
 11
20.6312
 21
47.6871
 31
0.0000
  0
LINE
  8
21
 10
23.3299
 20
45.4406
 30
0.0000
 11
22.3901
 21
45.7539
 31
0.0000
  0
LINE
  8
21
 10
22.3901
 20
45.7539
 30
0.0000
 11
23.3299
 21
46.0671
 31
0.0000
  0
LINE
  8
21
 10
23.0950
 20
45.9888
 30
0.0000
 11
23.0950
 21
45.5189
 31
0.0000
  0
LINE
  8
21
 10
22.5989
 20
46.4072
 30
0.0000
 11
22.3901
 21
46.6683
 31
0.0000
  0
LINE
  8
21
 10
22.3901
 20
46.6683
 30
0.0000
 11
23.3299
 21
46.6683
 31
0.0000
  0
LINE
  8
21
 10
23.3299
 20
46.4072
 30
0.0000
 11
23.3299
 21
46.9293
 31
0.0000
  0
LINE
  8
21
 10
23.3299
 20
47.3216
 30
0.0000
 11
23.3299
 21
47.5827
 31
0.0000
  0
ARC
  8
21
 10
23.0688
 20
47.5827
 30
0.0000
 40
0.2611
 50
0.0000
 51
180.0000
  0
LINE
  8
21
 10
22.3901
 20
47.3216
 30
0.0000
 11
22.3901
 21
47.6349
 31
0.0000
  0
ARC
  8
21
 10
22.5989
 20
47.6349
 30
0.0000
 40
0.2088
 50
0.0000
 51
180.0000
  0
LINE
  8
21
 10
22.8078
 20
47.6349
 30
0.0000
 11
22.8078
 21
47.4260
 31
0.0000
  0
LINE
  8
21
 10
25.6794
 20
40.1433
 30
0.0000
 11
25.6794
 21
39.9344
 31
0.0000
  0
ARC
  8
21
 10
25.4706
 20
39.9344
 30
0.0000
 40
0.2088
 50
270.0000
 51
0.0000
  0
LINE
  8
21
 10
25.4706
 20
39.7256
 30
0.0000
 11
24.9484
 21
39.7256
 31
0.0000
  0
ARC
  8
21
 10
24.9484
 20
39.9345
 30
0.0000
 40
0.2089
 50
180.0017
 51
270.0000
  0
LINE
  8
21
 10
24.7396
 20
39.9344
 30
0.0000
 11
24.7396
 21
40.1433
 31
0.0000
  0
LINE
  8
21
 10
24.7396
 20
40.5224
 30
0.0000
 11
25.6794
 21
40.5224
 31
0.0000
  0
LINE
  8
21
 10
25.6794
 20
40.5224
 30
0.0000
 11
25.6794
 21
40.9401
 31
0.0000
  0
LINE
  8
21
 10
25.4183
 20
41.2826
 30
0.0000
 11
25.0007
 21
41.2826
 31
0.0000
  0
ARC
  8
21
 10
25.0007
 20
41.5437
 30
0.0000
 40
0.2611
 50
90.0000
 51
270.0000
  0
LINE
  8
21
 10
25.0007
 20
41.8048
 30
0.0000
 11
25.4183
 21
41.8048
 31
0.0000
  0
ARC
  8
21
 10
25.4183
 20
41.5437
 30
0.0000
 40
0.2611
 50
270.0000
 51
90.0000
  0
ARC
  8
21
 10
25.4706
 20
42.4798
 30
0.0000
 40
0.2088
 50
0.0000
 51
90.0000
  0
ARC
  8
21
 10
25.2382
 20
42.4798
 30
0.0000
 40
0.4412
 50
314.7611
 51
359.9999
  0
ARC
  8
21
 10
24.9484
 20
42.4015
 30
0.0000
 40
0.2088
 50
180.0000
 51
270.0000
  0
ARC
  8
21
 10
25.1312
 20
42.4015
 30
0.0000
 40
0.3916
 50
143.1292
 51
180.0000
  0
ARC
  8
21
 10
24.9484
 20
42.4048
 30
0.0000
 40
0.2121
 50
269.9997
 51
329.4903
  0
ARC
  8
21
 10
25.4706
 20
42.4766
 30
0.0000
 40
0.2121
 50
90.0001
 51
149.4899
  0
LINE
  8
21
 10
25.2878
 20
42.5842
 30
0.0000
 11
25.1312
 21
42.2971
 31
0.0000
  0
LINE
  8
21
 10
25.6794
 20
43.5004
 30
0.0000
 11
25.6794
 21
43.0827
 31
0.0000
  0
LINE
  8
21
 10
25.6794
 20
43.0827
 30
0.0000
 11
24.7396
 21
43.0827
 31
0.0000
  0
LINE
  8
21
 10
24.7396
 20
43.0827
 30
0.0000
 11
24.7396
 21
43.5004
 31
0.0000
  0
LINE
  8
21
 10
25.1573
 20
43.0827
 30
0.0000
 11
25.1573
 21
43.3960
 31
0.0000
  0
LINE
  8
21
 10
25.4706
 20
43.8517
 30
0.0000
 11
25.4706
 21
44.4782
 31
0.0000
  0
LINE
  8
21
 10
25.1573
 20
43.8517
 30
0.0000
 11
25.1573
 21
44.4782
 31
0.0000
  0
LINE
  8
21
 10
25.6794
 20
44.9098
 30
0.0000
 11
24.7396
 21
44.9098
 31
0.0000
  0
LINE
  8
21
 10
25.1573
 20
44.9098
 30
0.0000
 11
25.1573
 21
45.4319
 31
0.0000
  0
LINE
  8
21
 10
24.7396
 20
45.4319
 30
0.0000
 11
25.6794
 21
45.4319
 31
0.0000
  0
LINE
  8
21
 10
24.7396
 20
45.9328
 30
0.0000
 11
25.6794
 21
45.9328
 31
0.0000
  0
LINE
  8
21
 10
25.6794
 20
45.8284
 30
0.0000
 11
25.6794
 21
46.0372
 31
0.0000
  0
LINE
  8
21
 10
24.7396
 20
45.8284
 30
0.0000
 11
24.7396
 21
46.0372
 31
0.0000
  0
LINE
  8
21
 10
25.1573
 20
46.7992
 30
0.0000
 11
25.1573
 21
46.9559
 31
0.0000
  0
LINE
  8
21
 10
25.1573
 20
46.9559
 30
0.0000
 11
25.6794
 21
46.9559
 31
0.0000
  0
LINE
  8
21
 10
25.6794
 20
46.9559
 30
0.0000
 11
25.6794
 21
46.6426
 31
0.0000
  0
ARC
  8
21
 10
25.4706
 20
46.6426
 30
0.0000
 40
0.2088
 50
270.0000
 51
0.0000
  0
LINE
  8
21
 10
25.4706
 20
46.4337
 30
0.0000
 11
24.9484
 21
46.4337
 31
0.0000
  0
ARC
  8
21
 10
24.9484
 20
46.6426
 30
0.0000
 40
0.2089
 50
180.0017
 51
270.0000
  0
LINE
  8
21
 10
24.7396
 20
46.6426
 30
0.0000
 11
24.7396
 21
46.9559
 31
0.0000
  0
LINE
  8
21
 10
25.6794
 20
47.4091
 30
0.0000
 11
24.7396
 21
47.4091
 31
0.0000
  0
LINE
  8
21
 10
25.1573
 20
47.4091
 30
0.0000
 11
25.1573
 21
47.9312
 31
0.0000
  0
LINE
  8
21
 10
24.7396
 20
47.9312
 30
0.0000
 11
25.6794
 21
47.9312
 31
0.0000
  0
LINE
  8
21
 10
0.4509
 20
42.9006
 30
0.0000
 11
1.3907
 21
42.9006
 31
0.0000
  0
LINE
  8
21
 10
1.3907
 20
42.9006
 30
0.0000
 11
1.3907
 21
43.3183
 31
0.0000
  0
LINE
  8
21
 10
1.1296
 20
43.6608
 30
0.0000
 11
0.7119
 21
43.6608
 31
0.0000
  0
ARC
  8
21
 10
0.7119
 20
43.9219
 30
0.0000
 40
0.2611
 50
90.0000
 51
270.0000
  0
LINE
  8
21
 10
0.7119
 20
44.1830
 30
0.0000
 11
1.1296
 21
44.1830
 31
0.0000
  0
ARC
  8
21
 10
1.1296
 20
43.9219
 30
0.0000
 40
0.2611
 50
270.0000
 51
90.0000
  0
LINE
  8
21
 10
0.4509
 20
44.5405
 30
0.0000
 11
1.3907
 21
44.7494
 31
0.0000
  0
LINE
  8
21
 10
1.3907
 20
44.7494
 30
0.0000
 11
0.7641
 21
44.9582
 31
0.0000
  0
LINE
  8
21
 10
0.7641
 20
44.9582
 30
0.0000
 11
1.3907
 21
45.1671
 31
0.0000
  0
LINE
  8
21
 10
1.3907
 20
45.1671
 30
0.0000
 11
0.4509
 21
45.3759
 31
0.0000
  0
LINE
  8
21
 10
1.3907
 20
36.7094
 30
0.0000
 11
0.4509
 21
36.7094
 31
0.0000
  0
LINE
  8
21
 10
0.8685
 20
36.7094
 30
0.0000
 11
0.8685
 21
37.2315
 31
0.0000
  0
LINE
  8
21
 10
0.4509
 20
37.2315
 30
0.0000
 11
1.3907
 21
37.2315
 31
0.0000
  0
LINE
  8
21
 10
0.4509
 20
37.7324
 30
0.0000
 11
1.3907
 21
37.7324
 31
0.0000
  0
LINE
  8
21
 10
1.3907
 20
37.6280
 30
0.0000
 11
1.3907
 21
37.8368
 31
0.0000
  0
LINE
  8
21
 10
0.4509
 20
37.6280
 30
0.0000
 11
0.4509
 21
37.8368
 31
0.0000
  0
LINE
  8
21
 10
0.8685
 20
38.5988
 30
0.0000
 11
0.8685
 21
38.7555
 31
0.0000
  0
LINE
  8
21
 10
0.8685
 20
38.7555
 30
0.0000
 11
1.3907
 21
38.7555
 31
0.0000
  0
LINE
  8
21
 10
1.3907
 20
38.7555
 30
0.0000
 11
1.3907
 21
38.4422
 31
0.0000
  0
ARC
  8
21
 10
1.1818
 20
38.4422
 30
0.0000
 40
0.2088
 50
270.0000
 51
0.0000
  0
LINE
  8
21
 10
1.1818
 20
38.2333
 30
0.0000
 11
0.6597
 21
38.2333
 31
0.0000
  0
ARC
  8
21
 10
0.6597
 20
38.4422
 30
0.0000
 40
0.2089
 50
180.0017
 51
270.0000
  0
LINE
  8
21
 10
0.4509
 20
38.4422
 30
0.0000
 11
0.4509
 21
38.7555
 31
0.0000
  0
LINE
  8
21
 10
1.3907
 20
39.2087
 30
0.0000
 11
0.4509
 21
39.2087
 31
0.0000
  0
LINE
  8
21
 10
0.8685
 20
39.2087
 30
0.0000
 11
0.8685
 21
39.7308
 31
0.0000
  0
LINE
  8
21
 10
0.4509
 20
39.7308
 30
0.0000
 11
1.3907
 21
39.7308
 31
0.0000
  0
LINE
  8
21
 10
32.9121
 20
11.9571
 30
0.0000
 11
32.9121
 21
13.1255
 31
0.0000
  0
LINE
  8
21
 10
32.9121
 20
13.1255
 30
0.0000
 11
33.2366
 21
13.1255
 31
0.0000
  0
ARC
  8
21
 10
33.2366
 20
12.8009
 30
0.0000
 40
0.3246
 50
270.0000
 51
90.0000
  0
LINE
  8
21
 10
33.2366
 20
12.4763
 30
0.0000
 11
32.9121
 21
12.4763
 31
0.0000
  0
LINE
  8
21
 10
33.5612
 20
11.9571
 30
0.0000
 11
33.3015
 21
12.4763
 31
0.0000
  0
LINE
  8
21
 10
34.5557
 20
11.9571
 30
0.0000
 11
34.2311
 21
11.9571
 31
0.0000
  0
ARC
  8
21
 10
34.2311
 20
12.1518
 30
0.0000
 40
0.1947
 50
180.0000
 51
270.0000
  0
LINE
  8
21
 10
34.0364
 20
12.1518
 30
0.0000
 11
34.0364
 21
12.4763
 31
0.0000
  0
ARC
  8
21
 10
34.2960
 20
12.4763
 30
0.0000
 40
0.2596
 50
0.0000
 51
180.0000
  0
LINE
  8
21
 10
34.5557
 20
12.4763
 30
0.0000
 11
34.5557
 21
12.3465
 31
0.0000
  0
LINE
  8
21
 10
34.5557
 20
12.3465
 30
0.0000
 11
34.0364
 21
12.3465
 31
0.0000
  0
LINE
  8
21
 10
34.9889
 20
12.7360
 30
0.0000
 11
35.2485
 21
11.9571
 31
0.0000
  0
LINE
  8
21
 10
35.2485
 20
11.9571
 30
0.0000
 11
35.5082
 21
12.7360
 31
0.0000
  0
LINE
  8
21
 10
35.9019
 20
11.9571
 30
0.0000
 11
35.9019
 21
12.0220
 31
0.0000
  0
LINE
  8
21
 10
35.9019
 20
12.0220
 30
0.0000
 11
35.9668
 21
12.0220
 31
0.0000
  0
LINE
  8
21
 10
35.9668
 20
12.0220
 30
0.0000
 11
35.9668
 21
11.9571
 31
0.0000
  0
LINE
  8
21
 10
35.9668
 20
11.9571
 30
0.0000
 11
35.9019
 21
11.9571
 31
0.0000
  0
ARC
  8
21
 10
36.7669
 20
12.8334
 30
0.0000
 40
0.2921
 50
0.0000
 51
90.0000
  0
ARC
  8
21
 10
36.7669
 20
12.7502
 30
0.0000
 40
0.3753
 50
90.0001
 51
162.0549
  0
ARC
  8
21
 10
36.7452
 20
12.8334
 30
0.0000
 40
0.3138
 50
313.6040
 51
359.9996
  0
LINE
  8
21
 10
36.9616
 20
12.6062
 30
0.0000
 11
36.4099
 21
11.9571
 31
0.0000
  0
LINE
  8
21
 10
36.4099
 20
11.9571
 30
0.0000
 11
37.0590
 21
11.9571
 31
0.0000
  0
LINE
  8
21
 10
36.2014
 20
36.3128
 30
0.0000
 11
36.2014
 21
41.4338
 31
0.0000
  0
LINE
  8
21
 10
37.5729
 20
36.3636
 30
0.0000
 11
36.4046
 21
36.3636
 31
0.0000
  0
LINE
  8
21
 10
36.9238
 20
36.3636
 30
0.0000
 11
36.9238
 21
37.0127
 31
0.0000
  0
LINE
  8
21
 10
36.4046
 20
37.0127
 30
0.0000
 11
37.5729
 21
37.0127
 31
0.0000
  0
LINE
  8
21
 10
36.4046
 20
37.6407
 30
0.0000
 11
37.5729
 21
37.6407
 31
0.0000
  0
LINE
  8
21
 10
37.5729
 20
37.5109
 30
0.0000
 11
37.5729
 21
37.7705
 31
0.0000
  0
LINE
  8
21
 10
36.4046
 20
37.5109
 30
0.0000
 11
36.4046
 21
37.7705
 31
0.0000
  0
LINE
  8
21
 10
37.5729
 20
38.2760
 30
0.0000
 11
36.4046
 21
38.2760
 31
0.0000
  0
LINE
  8
21
 10
36.4046
 20
38.2760
 30
0.0000
 11
36.4046
 21
38.6005
 31
0.0000
  0
ARC
  8
21
 10
36.7291
 20
38.6005
 30
0.0000
 40
0.3246
 50
0.0000
 51
180.0000
  0
LINE
  8
21
 10
37.0537
 20
38.6005
 30
0.0000
 11
37.0537
 21
38.2760
 31
0.0000
  0
LINE
  8
21
 10
37.5729
 20
38.9251
 30
0.0000
 11
37.0537
 21
38.6655
 31
0.0000
  0
LINE
  8
21
 10
37.5729
 20
39.3467
 30
0.0000
 11
36.4046
 21
39.7362
 31
0.0000
  0
LINE
  8
21
 10
36.4046
 20
39.7362
 30
0.0000
 11
37.5729
 21
40.1257
 31
0.0000
  0
LINE
  8
21
 10
37.2809
 20
40.0283
 30
0.0000
 11
37.2809
 21
39.4441
 31
0.0000
  0
LINE
  8
21
 10
37.5729
 20
40.6040
 30
0.0000
 11
36.4046
 21
40.6040
 31
0.0000
  0
LINE
  8
21
 10
36.4046
 20
40.6040
 30
0.0000
 11
37.0537
 21
40.9935
 31
0.0000
  0
LINE
  8
21
 10
37.0537
 20
40.9935
 30
0.0000
 11
36.4046
 21
41.3830
 31
0.0000
  0
LINE
  8
21
 10
36.4046
 20
41.3830
 30
0.0000
 11
37.5729
 21
41.3830
 31
0.0000
  0
LINE
  8
21
 10
27.8781
 20
38.1061
 30
0.0000
 11
28.1392
 21
38.3149
 31
0.0000
  0
LINE
  8
21
 10
28.1392
 20
38.3149
 30
0.0000
 11
28.1392
 21
37.3751
 31
0.0000
  0
LINE
  8
21
 10
27.8781
 20
37.3751
 30
0.0000
 11
28.4002
 21
37.3751
 31
0.0000
  0
ARC
  8
21
 10
29.5670
 20
37.8450
 30
0.0000
 40
0.7745
 50
154.0110
 51
180.0001
  0
ARC
  8
21
 10
29.0536
 20
38.1217
 30
0.0000
 40
0.1932
 50
90.0003
 51
161.0756
  0
ARC
  8
21
 10
29.0536
 20
38.1217
 30
0.0000
 40
0.1932
 50
18.9247
 51
90.0003
  0
ARC
  8
21
 10
28.5401
 20
37.8450
 30
0.0000
 40
0.7745
 50
359.9999
 51
25.9890
  0
ARC
  8
21
 10
29.5670
 20
37.8450
 30
0.0000
 40
0.7745
 50
180.0000
 51
205.9887
  0
ARC
  8
21
 10
29.0536
 20
37.5683
 30
0.0000
 40
0.1932
 50
198.9255
 51
269.9999
  0
ARC
  8
21
 10
28.5401
 20
37.8450
 30
0.0000
 40
0.7745
 50
334.0113
 51
360.0000
  0
ARC
  8
21
 10
29.0536
 20
37.5683
 30
0.0000
 40
0.1932
 50
270.0000
 51
341.0747
  0
LINE
  8
21
 10
28.8447
 20
37.5839
 30
0.0000
 11
29.2624
 21
38.1061
 31
0.0000
  0
ARC
  8
21
 10
30.4814
 20
37.8450
 30
0.0000
 40
0.7745
 50
154.0110
 51
180.0001
  0
ARC
  8
21
 10
29.9679
 20
38.1217
 30
0.0000
 40
0.1932
 50
90.0003
 51
161.0756
  0
ARC
  8
21
 10
29.9679
 20
38.1217
 30
0.0000
 40
0.1932
 50
18.9247
 51
90.0003
  0
ARC
  8
21
 10
29.4545
 20
37.8450
 30
0.0000
 40
0.7745
 50
359.9999
 51
25.9890
  0
ARC
  8
21
 10
30.4814
 20
37.8450
 30
0.0000
 40
0.7745
 50
180.0000
 51
205.9887
  0
ARC
  8
21
 10
29.9679
 20
37.5683
 30
0.0000
 40
0.1932
 50
198.9255
 51
269.9999
  0
ARC
  8
21
 10
29.4545
 20
37.8450
 30
0.0000
 40
0.7745
 50
334.0113
 51
360.0000
  0
ARC
  8
21
 10
29.9679
 20
37.5683
 30
0.0000
 40
0.1932
 50
270.0000
 51
341.0747
  0
LINE
  8
21
 10
29.7591
 20
37.5839
 30
0.0000
 11
30.1768
 21
38.1061
 31
0.0000
  0
LINE
  8
21
 10
30.6430
 20
37.3751
 30
0.0000
 11
30.6430
 21
38.0016
 31
0.0000
  0
LINE
  8
21
 10
30.6430
 20
38.0016
 30
0.0000
 11
30.9041
 21
38.0016
 31
0.0000
  0
ARC
  8
21
 10
30.9041
 20
37.8450
 30
0.0000
 40
0.1566
 50
0.0011
 51
90.0000
  0
LINE
  8
21
 10
31.0607
 20
37.8450
 30
0.0000
 11
31.0607
 21
37.3751
 31
0.0000
  0
LINE
  8
21
 10
3.4131
 20
17.8023
 30
0.0000
 11
3.6742
 21
18.0112
 31
0.0000
  0
LINE
  8
21
 10
3.6742
 20
18.0112
 30
0.0000
 11
3.6742
 21
17.0714
 31
0.0000
  0
LINE
  8
21
 10
3.4131
 20
17.0714
 30
0.0000
 11
3.9352
 21
17.0714
 31
0.0000
  0
ARC
  8
21
 10
5.1020
 20
17.5413
 30
0.0000
 40
0.7745
 50
154.0110
 51
180.0001
  0
ARC
  8
21
 10
4.5886
 20
17.8180
 30
0.0000
 40
0.1932
 50
90.0003
 51
161.0756
  0
ARC
  8
21
 10
4.5886
 20
17.8180
 30
0.0000
 40
0.1932
 50
18.9247
 51
90.0003
  0
ARC
  8
21
 10
4.0751
 20
17.5413
 30
0.0000
 40
0.7745
 50
359.9999
 51
25.9890
  0
ARC
  8
21
 10
5.1020
 20
17.5413
 30
0.0000
 40
0.7745
 50
180.0000
 51
205.9887
  0
ARC
  8
21
 10
4.5886
 20
17.2645
 30
0.0000
 40
0.1932
 50
198.9255
 51
269.9999
  0
ARC
  8
21
 10
4.0751
 20
17.5413
 30
0.0000
 40
0.7745
 50
334.0113
 51
360.0000
  0
ARC
  8
21
 10
4.5886
 20
17.2645
 30
0.0000
 40
0.1932
 50
270.0000
 51
341.0747
  0
LINE
  8
21
 10
4.3797
 20
17.2802
 30
0.0000
 11
4.7974
 21
17.8023
 31
0.0000
  0
ARC
  8
21
 10
6.0164
 20
17.5413
 30
0.0000
 40
0.7745
 50
154.0110
 51
180.0001
  0
ARC
  8
21
 10
5.5029
 20
17.8180
 30
0.0000
 40
0.1932
 50
90.0003
 51
161.0756
  0
ARC
  8
21
 10
5.5029
 20
17.8180
 30
0.0000
 40
0.1932
 50
18.9247
 51
90.0003
  0
ARC
  8
21
 10
4.9895
 20
17.5413
 30
0.0000
 40
0.7745
 50
359.9999
 51
25.9890
  0
ARC
  8
21
 10
6.0164
 20
17.5413
 30
0.0000
 40
0.7745
 50
180.0000
 51
205.9887
  0
ARC
  8
21
 10
5.5029
 20
17.2645
 30
0.0000
 40
0.1932
 50
198.9255
 51
269.9999
  0
ARC
  8
21
 10
4.9895
 20
17.5413
 30
0.0000
 40
0.7745
 50
334.0113
 51
360.0000
  0
ARC
  8
21
 10
5.5029
 20
17.2645
 30
0.0000
 40
0.1932
 50
270.0000
 51
341.0747
  0
LINE
  8
21
 10
5.2941
 20
17.2802
 30
0.0000
 11
5.7118
 21
17.8023
 31
0.0000
  0
LINE
  8
21
 10
6.1780
 20
17.0714
 30
0.0000
 11
6.1780
 21
17.6979
 31
0.0000
  0
LINE
  8
21
 10
6.1780
 20
17.6979
 30
0.0000
 11
6.4391
 21
17.6979
 31
0.0000
  0
ARC
  8
21
 10
6.4391
 20
17.5412
 30
0.0000
 40
0.1566
 50
0.0011
 51
90.0000
  0
LINE
  8
21
 10
6.5957
 20
17.5413
 30
0.0000
 11
6.5957
 21
17.0714
 31
0.0000
  0
LINE
  8
21
 10
33.5527
 20
38.7731
 30
0.0000
 11
33.3439
 21
39.0342
 31
0.0000
  0
LINE
  8
21
 10
33.3439
 20
39.0342
 30
0.0000
 11
34.2837
 21
39.0342
 31
0.0000
  0
LINE
  8
21
 10
34.2837
 20
38.7731
 30
0.0000
 11
34.2837
 21
39.2952
 31
0.0000
  0
ARC
  8
21
 10
33.8137
 20
40.4620
 30
0.0000
 40
0.7745
 50
244.0112
 51
269.9999
  0
ARC
  8
21
 10
33.5370
 20
39.9486
 30
0.0000
 40
0.1932
 50
179.9999
 51
251.0760
  0
ARC
  8
21
 10
33.5370
 20
39.9486
 30
0.0000
 40
0.1932
 50
108.9238
 51
180.0003
  0
ARC
  8
21
 10
33.8138
 20
39.4351
 30
0.0000
 40
0.7745
 50
90.0001
 51
115.9888
  0
ARC
  8
21
 10
33.8137
 20
40.4620
 30
0.0000
 40
0.7745
 50
270.0000
 51
295.9887
  0
ARC
  8
21
 10
34.0905
 20
39.9486
 30
0.0000
 40
0.1932
 50
288.9255
 51
359.9999
  0
ARC
  8
21
 10
33.8137
 20
39.4351
 30
0.0000
 40
0.7745
 50
64.0113
 51
90.0000
  0
ARC
  8
21
 10
34.0905
 20
39.9486
 30
0.0000
 40
0.1932
 50
360.0000
 51
71.0747
  0
LINE
  8
21
 10
34.0748
 20
39.7397
 30
0.0000
 11
33.5527
 21
40.1574
 31
0.0000
  0
LINE
  8
21
 10
34.2837
 20
40.6341
 30
0.0000
 11
33.3439
 21
40.6341
 31
0.0000
  0
LINE
  8
21
 10
33.6571
 20
41.0518
 30
0.0000
 11
33.9704
 21
40.6341
 31
0.0000
  0
LINE
  8
21
 10
34.2837
 20
41.0518
 30
0.0000
 11
33.8399
 21
40.8169
 31
0.0000
  0
LINE
  8
21
 10
16.3894
 20
38.3611
 30
0.0000
 11
16.6504
 21
38.5699
 31
0.0000
  0
LINE
  8
21
 10
16.6504
 20
38.5699
 30
0.0000
 11
16.6504
 21
37.6301
 31
0.0000
  0
LINE
  8
21
 10
16.3894
 20
37.6301
 30
0.0000
 11
16.9115
 21
37.6301
 31
0.0000
  0
ARC
  8
21
 10
18.0782
 20
38.1000
 30
0.0000
 40
0.7745
 50
154.0110
 51
180.0001
  0
ARC
  8
21
 10
17.5648
 20
38.3767
 30
0.0000
 40
0.1932
 50
90.0003
 51
161.0756
  0
ARC
  8
21
 10
17.5648
 20
38.3767
 30
0.0000
 40
0.1932
 50
18.9247
 51
90.0003
  0
ARC
  8
21
 10
17.0514
 20
38.1000
 30
0.0000
 40
0.7745
 50
359.9999
 51
25.9890
  0
ARC
  8
21
 10
18.0782
 20
38.1000
 30
0.0000
 40
0.7745
 50
180.0000
 51
205.9887
  0
ARC
  8
21
 10
17.5648
 20
37.8233
 30
0.0000
 40
0.1932
 50
198.9255
 51
269.9999
  0
ARC
  8
21
 10
17.0514
 20
38.1000
 30
0.0000
 40
0.7745
 50
334.0113
 51
360.0000
  0
ARC
  8
21
 10
17.5648
 20
37.8233
 30
0.0000
 40
0.1932
 50
270.0000
 51
341.0747
  0
LINE
  8
21
 10
17.3560
 20
37.8389
 30
0.0000
 11
17.7736
 21
38.3611
 31
0.0000
  0
LINE
  8
21
 10
18.2504
 20
37.6301
 30
0.0000
 11
18.2504
 21
38.5699
 31
0.0000
  0
LINE
  8
21
 10
18.6681
 20
38.2566
 30
0.0000
 11
18.2504
 21
37.9434
 31
0.0000
  0
LINE
  8
21
 10
18.6681
 20
37.6301
 30
0.0000
 11
18.4331
 21
38.0739
 31
0.0000
  0
LINE
  8
21
 10
18.9293
 20
38.3611
 30
0.0000
 11
19.1904
 21
38.5699
 31
0.0000
  0
LINE
  8
21
 10
19.1904
 20
38.5699
 30
0.0000
 11
19.1904
 21
37.6301
 31
0.0000
  0
LINE
  8
21
 10
18.9293
 20
37.6301
 30
0.0000
 11
19.4515
 21
37.6301
 31
0.0000
  0
ARC
  8
21
 10
20.6182
 20
38.1000
 30
0.0000
 40
0.7745
 50
154.0110
 51
180.0001
  0
ARC
  8
21
 10
20.1048
 20
38.3767
 30
0.0000
 40
0.1932
 50
90.0003
 51
161.0756
  0
ARC
  8
21
 10
20.1048
 20
38.3767
 30
0.0000
 40
0.1932
 50
18.9247
 51
90.0003
  0
ARC
  8
21
 10
19.5914
 20
38.1000
 30
0.0000
 40
0.7745
 50
359.9999
 51
25.9890
  0
ARC
  8
21
 10
20.6182
 20
38.1000
 30
0.0000
 40
0.7745
 50
180.0000
 51
205.9887
  0
ARC
  8
21
 10
20.1048
 20
37.8233
 30
0.0000
 40
0.1932
 50
198.9255
 51
269.9999
  0
ARC
  8
21
 10
19.5914
 20
38.1000
 30
0.0000
 40
0.7745
 50
334.0113
 51
360.0000
  0
ARC
  8
21
 10
20.1048
 20
37.8233
 30
0.0000
 40
0.1932
 50
270.0000
 51
341.0747
  0
LINE
  8
21
 10
19.8960
 20
37.8389
 30
0.0000
 11
20.3136
 21
38.3611
 31
0.0000
  0
LINE
  8
21
 10
20.7904
 20
37.6301
 30
0.0000
 11
20.7904
 21
38.5699
 31
0.0000
  0
LINE
  8
21
 10
21.2081
 20
38.2566
 30
0.0000
 11
20.7904
 21
37.9434
 31
0.0000
  0
LINE
  8
21
 10
21.2081
 20
37.6301
 30
0.0000
 11
20.9731
 21
38.0739
 31
0.0000
  0
LINE
  8
21
 10
21.6281
 20
38.3611
 30
0.0000
 11
21.8892
 21
38.5699
 31
0.0000
  0
LINE
  8
21
 10
21.8892
 20
38.5699
 30
0.0000
 11
21.8892
 21
37.6301
 31
0.0000
  0
LINE
  8
21
 10
21.6281
 20
37.6301
 30
0.0000
 11
22.1502
 21
37.6301
 31
0.0000
  0
ARC
  8
21
 10
23.3170
 20
38.1000
 30
0.0000
 40
0.7745
 50
154.0110
 51
180.0001
  0
ARC
  8
21
 10
22.8036
 20
38.3767
 30
0.0000
 40
0.1932
 50
90.0003
 51
161.0756
  0
ARC
  8
21
 10
22.8036
 20
38.3767
 30
0.0000
 40
0.1932
 50
18.9247
 51
90.0003
  0
ARC
  8
21
 10
22.2901
 20
38.1000
 30
0.0000
 40
0.7745
 50
359.9999
 51
25.9890
  0
ARC
  8
21
 10
23.3170
 20
38.1000
 30
0.0000
 40
0.7745
 50
180.0000
 51
205.9887
  0
ARC
  8
21
 10
22.8036
 20
37.8233
 30
0.0000
 40
0.1932
 50
198.9255
 51
269.9999
  0
ARC
  8
21
 10
22.2901
 20
38.1000
 30
0.0000
 40
0.7745
 50
334.0113
 51
360.0000
  0
ARC
  8
21
 10
22.8036
 20
37.8233
 30
0.0000
 40
0.1932
 50
270.0000
 51
341.0747
  0
LINE
  8
21
 10
22.5947
 20
37.8389
 30
0.0000
 11
23.0124
 21
38.3611
 31
0.0000
  0
LINE
  8
21
 10
23.4891
 20
37.6301
 30
0.0000
 11
23.4891
 21
38.5699
 31
0.0000
  0
LINE
  8
21
 10
23.9068
 20
38.2566
 30
0.0000
 11
23.4891
 21
37.9434
 31
0.0000
  0
LINE
  8
21
 10
23.9068
 20
37.6301
 30
0.0000
 11
23.6719
 21
38.0739
 31
0.0000
  0
LINE
  8
21
 10
15.4369
 20
25.0762
 30
0.0000
 11
15.4369
 21
24.1364
 31
0.0000
  0
LINE
  8
21
 10
15.4369
 20
24.1364
 30
0.0000
 11
15.8545
 21
24.1364
 31
0.0000
  0
ARC
  8
21
 10
16.4799
 20
24.3452
 30
0.0000
 40
0.2088
 50
270.0000
 51
0.0000
  0
ARC
  8
21
 10
16.4799
 20
24.5775
 30
0.0000
 40
0.4412
 50
224.7611
 51
269.9999
  0
ARC
  8
21
 10
16.4016
 20
24.8673
 30
0.0000
 40
0.2088
 50
89.9991
 51
180.0000
  0
ARC
  8
21
 10
16.4016
 20
24.6846
 30
0.0000
 40
0.3916
 50
53.1301
 51
89.9991
  0
ARC
  8
21
 10
16.4048
 20
24.8673
 30
0.0000
 40
0.2121
 50
179.9997
 51
239.4903
  0
ARC
  8
21
 10
16.4766
 20
24.3452
 30
0.0000
 40
0.2121
 50
0.0001
 51
59.4899
  0
LINE
  8
21
 10
16.5843
 20
24.5279
 30
0.0000
 11
16.2971
 21
24.6846
 31
0.0000
  0
LINE
  8
21
 10
17.0505
 20
24.1364
 30
0.0000
 11
17.3116
 21
24.1364
 31
0.0000
  0
ARC
  8
21
 10
17.3116
 20
24.3974
 30
0.0000
 40
0.2611
 50
270.0000
 51
90.0000
  0
LINE
  8
21
 10
17.0505
 20
25.0762
 30
0.0000
 11
17.3638
 21
25.0762
 31
0.0000
  0
ARC
  8
21
 10
17.3638
 20
24.8673
 30
0.0000
 40
0.2088
 50
270.0000
 51
90.0000
  0
LINE
  8
21
 10
17.3638
 20
24.6585
 30
0.0000
 11
17.1550
 21
24.6585
 31
0.0000
  0
ARC
  8
21
 10
18.7394
 20
24.6063
 30
0.0000
 40
0.7745
 50
154.0110
 51
180.0001
  0
ARC
  8
21
 10
18.2260
 20
24.8830
 30
0.0000
 40
0.1932
 50
90.0003
 51
161.0756
  0
ARC
  8
21
 10
18.2260
 20
24.8830
 30
0.0000
 40
0.1932
 50
18.9247
 51
90.0003
  0
ARC
  8
21
 10
17.7126
 20
24.6063
 30
0.0000
 40
0.7745
 50
359.9999
 51
25.9890
  0
ARC
  8
21
 10
18.7394
 20
24.6063
 30
0.0000
 40
0.7745
 50
180.0000
 51
205.9887
  0
ARC
  8
21
 10
18.2260
 20
24.3295
 30
0.0000
 40
0.1932
 50
198.9255
 51
269.9999
  0
ARC
  8
21
 10
17.7126
 20
24.6063
 30
0.0000
 40
0.7745
 50
334.0113
 51
360.0000
  0
ARC
  8
21
 10
18.2260
 20
24.3295
 30
0.0000
 40
0.1932
 50
270.0000
 51
341.0747
  0
LINE
  8
21
 10
18.0171
 20
24.3452
 30
0.0000
 11
18.4348
 21
24.8673
 31
0.0000
  0
ARC
  8
21
 10
25.2490
 20
26.5875
 30
0.0000
 40
0.2350
 50
0.0000
 51
90.0000
  0
ARC
  8
21
 10
25.2490
 20
26.5206
 30
0.0000
 40
0.3018
 50
90.0001
 51
162.0550
  0
ARC
  8
21
 10
25.2316
 20
26.5875
 30
0.0000
 40
0.2524
 50
313.6042
 51
359.9995
  0
LINE
  8
21
 10
25.4056
 20
26.4047
 30
0.0000
 11
24.9619
 21
25.8826
 31
0.0000
  0
LINE
  8
21
 10
24.9619
 20
25.8826
 30
0.0000
 11
25.4840
 21
25.8826
 31
0.0000
  0
LINE
  8
21
 10
25.8762
 20
26.7180
 30
0.0000
 11
25.8762
 21
26.8224
 31
0.0000
  0
LINE
  8
21
 10
25.8762
 20
26.8224
 30
0.0000
 11
26.3984
 21
26.8224
 31
0.0000
  0
LINE
  8
21
 10
26.3984
 20
26.8224
 30
0.0000
 11
26.1373
 21
25.8826
 31
0.0000
  0
LINE
  8
21
 10
27.2058
 20
25.8826
 30
0.0000
 11
26.9969
 21
25.8826
 31
0.0000
  0
ARC
  8
21
 10
26.9969
 20
26.0914
 30
0.0000
 40
0.2088
 50
180.0000
 51
270.0000
  0
LINE
  8
21
 10
26.7881
 20
26.0914
 30
0.0000
 11
26.7881
 21
26.6136
 31
0.0000
  0
ARC
  8
21
 10
26.9969
 20
26.6136
 30
0.0000
 40
0.2088
 50
90.0009
 51
180.0000
  0
LINE
  8
21
 10
26.9969
 20
26.8224
 30
0.0000
 11
27.2058
 21
26.8224
 31
0.0000
  0
LINE
  8
21
 10
27.5526
 20
25.8826
 30
0.0000
 11
27.8659
 21
25.8826
 31
0.0000
  0
ARC
  8
21
 10
27.8659
 20
26.0914
 30
0.0000
 40
0.2088
 50
270.0000
 51
0.0000
  0
LINE
  8
21
 10
28.0747
 20
26.0914
 30
0.0000
 11
28.0747
 21
26.1959
 31
0.0000
  0
ARC
  8
21
 10
27.8659
 20
26.1959
 30
0.0000
 40
0.2088
 50
0.0000
 51
90.0000
  0
LINE
  8
21
 10
27.8659
 20
26.4047
 30
0.0000
 11
27.5526
 21
26.4047
 31
0.0000
  0
LINE
  8
21
 10
27.5526
 20
26.4047
 30
0.0000
 11
27.5526
 21
26.8224
 31
0.0000
  0
LINE
  8
21
 10
27.5526
 20
26.8224
 30
0.0000
 11
28.0747
 21
26.8224
 31
0.0000
  0
LINE
  8
21
 10
28.4670
 20
26.6136
 30
0.0000
 11
28.7281
 21
26.8224
 31
0.0000
  0
LINE
  8
21
 10
28.7281
 20
26.8224
 30
0.0000
 11
28.7281
 21
25.8826
 31
0.0000
  0
LINE
  8
21
 10
28.4670
 20
25.8826
 30
0.0000
 11
28.9891
 21
25.8826
 31
0.0000
  0
ARC
  8
21
 10
29.6686
 20
26.5875
 30
0.0000
 40
0.2350
 50
0.0000
 51
90.0000
  0
ARC
  8
21
 10
29.6686
 20
26.5206
 30
0.0000
 40
0.3018
 50
90.0001
 51
162.0550
  0
ARC
  8
21
 10
29.6512
 20
26.5875
 30
0.0000
 40
0.2524
 50
313.6042
 51
359.9995
  0
LINE
  8
21
 10
29.8252
 20
26.4047
 30
0.0000
 11
29.3814
 21
25.8826
 31
0.0000
  0
LINE
  8
21
 10
29.3814
 20
25.8826
 30
0.0000
 11
29.9035
 21
25.8826
 31
0.0000
  0
ARC
  8
21
 10
25.2490
 20
25.0634
 30
0.0000
 40
0.2350
 50
0.0000
 51
90.0000
  0
ARC
  8
21
 10
25.2490
 20
24.9966
 30
0.0000
 40
0.3018
 50
90.0001
 51
162.0550
  0
ARC
  8
21
 10
25.2316
 20
25.0635
 30
0.0000
 40
0.2524
 50
313.6042
 51
359.9995
  0
LINE
  8
21
 10
25.4056
 20
24.8807
 30
0.0000
 11
24.9619
 21
24.3586
 31
0.0000
  0
LINE
  8
21
 10
24.9619
 20
24.3586
 30
0.0000
 11
25.4840
 21
24.3586
 31
0.0000
  0
LINE
  8
21
 10
25.8762
 20
25.1940
 30
0.0000
 11
25.8762
 21
25.2984
 31
0.0000
  0
LINE
  8
21
 10
25.8762
 20
25.2984
 30
0.0000
 11
26.3984
 21
25.2984
 31
0.0000
  0
LINE
  8
21
 10
26.3984
 20
25.2984
 30
0.0000
 11
26.1373
 21
24.3586
 31
0.0000
  0
LINE
  8
21
 10
27.2058
 20
24.3586
 30
0.0000
 11
26.9969
 21
24.3586
 31
0.0000
  0
ARC
  8
21
 10
26.9969
 20
24.5674
 30
0.0000
 40
0.2088
 50
180.0000
 51
270.0000
  0
LINE
  8
21
 10
26.7881
 20
24.5674
 30
0.0000
 11
26.7881
 21
25.0896
 31
0.0000
  0
ARC
  8
21
 10
26.9969
 20
25.0896
 30
0.0000
 40
0.2088
 50
90.0009
 51
180.0000
  0
LINE
  8
21
 10
26.9969
 20
25.2984
 30
0.0000
 11
27.2058
 21
25.2984
 31
0.0000
  0
ARC
  8
21
 10
27.8398
 20
25.0634
 30
0.0000
 40
0.2350
 50
0.0000
 51
90.0000
  0
ARC
  8
21
 10
27.8398
 20
24.9966
 30
0.0000
 40
0.3018
 50
90.0001
 51
162.0550
  0
ARC
  8
21
 10
27.8224
 20
25.0635
 30
0.0000
 40
0.2524
 50
313.6042
 51
359.9995
  0
LINE
  8
21
 10
27.9964
 20
24.8807
 30
0.0000
 11
27.5526
 21
24.3586
 31
0.0000
  0
LINE
  8
21
 10
27.5526
 20
24.3586
 30
0.0000
 11
28.0747
 21
24.3586
 31
0.0000
  0
LINE
  8
21
 10
28.4670
 20
24.3586
 30
0.0000
 11
28.7803
 21
24.3586
 31
0.0000
  0
ARC
  8
21
 10
28.7803
 20
24.5674
 30
0.0000
 40
0.2088
 50
270.0000
 51
0.0000
  0
LINE
  8
21
 10
28.9891
 20
24.5674
 30
0.0000
 11
28.9891
 21
24.6719
 31
0.0000
  0
ARC
  8
21
 10
28.7803
 20
24.6719
 30
0.0000
 40
0.2088
 50
0.0000
 51
90.0000
  0
LINE
  8
21
 10
28.7803
 20
24.8807
 30
0.0000
 11
28.4670
 21
24.8807
 31
0.0000
  0
LINE
  8
21
 10
28.4670
 20
24.8807
 30
0.0000
 11
28.4670
 21
25.2984
 31
0.0000
  0
LINE
  8
21
 10
28.4670
 20
25.2984
 30
0.0000
 11
28.9891
 21
25.2984
 31
0.0000
  0
LINE
  8
21
 10
29.3814
 20
24.8807
 30
0.0000
 11
29.6947
 21
24.8807
 31
0.0000
  0
ARC
  8
21
 10
29.6947
 20
24.6719
 30
0.0000
 40
0.2088
 50
0.0000
 51
90.0000
  0
LINE
  8
21
 10
29.9035
 20
24.6719
 30
0.0000
 11
29.9035
 21
24.6197
 31
0.0000
  0
ARC
  8
21
 10
29.6425
 20
24.6197
 30
0.0000
 40
0.2611
 50
180.0000
 51
0.0000
  0
LINE
  8
21
 10
29.3814
 20
24.6197
 30
0.0000
 11
29.3814
 21
24.8807
 31
0.0000
  0
ARC
  8
21
 10
29.7991
 20
24.8807
 30
0.0000
 40
0.4177
 50
90.0004
 51
180.0000
  0
ARC
  8
21
 10
25.2490
 20
23.5395
 30
0.0000
 40
0.2350
 50
0.0000
 51
90.0000
  0
ARC
  8
21
 10
25.2490
 20
23.4726
 30
0.0000
 40
0.3018
 50
90.0001
 51
162.0550
  0
ARC
  8
21
 10
25.2316
 20
23.5395
 30
0.0000
 40
0.2524
 50
313.6042
 51
359.9995
  0
LINE
  8
21
 10
25.4056
 20
23.3567
 30
0.0000
 11
24.9619
 21
22.8346
 31
0.0000
  0
LINE
  8
21
 10
24.9619
 20
22.8346
 30
0.0000
 11
25.4840
 21
22.8346
 31
0.0000
  0
LINE
  8
21
 10
25.8762
 20
23.6700
 30
0.0000
 11
25.8762
 21
23.7744
 31
0.0000
  0
LINE
  8
21
 10
25.8762
 20
23.7744
 30
0.0000
 11
26.3984
 21
23.7744
 31
0.0000
  0
LINE
  8
21
 10
26.3984
 20
23.7744
 30
0.0000
 11
26.1373
 21
22.8346
 31
0.0000
  0
LINE
  8
21
 10
27.2058
 20
22.8346
 30
0.0000
 11
26.9969
 21
22.8346
 31
0.0000
  0
ARC
  8
21
 10
26.9969
 20
23.0434
 30
0.0000
 40
0.2088
 50
180.0000
 51
270.0000
  0
LINE
  8
21
 10
26.7881
 20
23.0434
 30
0.0000
 11
26.7881
 21
23.5656
 31
0.0000
  0
ARC
  8
21
 10
26.9969
 20
23.5656
 30
0.0000
 40
0.2088
 50
90.0009
 51
180.0000
  0
LINE
  8
21
 10
26.9969
 20
23.7744
 30
0.0000
 11
27.2058
 21
23.7744
 31
0.0000
  0
LINE
  8
21
 10
27.5526
 20
23.5656
 30
0.0000
 11
27.8137
 21
23.7744
 31
0.0000
  0
LINE
  8
21
 10
27.8137
 20
23.7744
 30
0.0000
 11
27.8137
 21
22.8346
 31
0.0000
  0
LINE
  8
21
 10
27.5526
 20
22.8346
 30
0.0000
 11
28.0747
 21
22.8346
 31
0.0000
  0
ARC
  8
21
 10
28.7542
 20
23.5395
 30
0.0000
 40
0.2350
 50
0.0000
 51
90.0000
  0
ARC
  8
21
 10
28.7542
 20
23.4726
 30
0.0000
 40
0.3018
 50
90.0001
 51
162.0550
  0
ARC
  8
21
 10
28.7368
 20
23.5395
 30
0.0000
 40
0.2524
 50
313.6042
 51
359.9995
  0
LINE
  8
21
 10
28.9108
 20
23.3567
 30
0.0000
 11
28.4670
 21
22.8346
 31
0.0000
  0
LINE
  8
21
 10
28.4670
 20
22.8346
 30
0.0000
 11
28.9891
 21
22.8346
 31
0.0000
  0
LINE
  8
21
 10
29.3814
 20
23.3567
 30
0.0000
 11
29.6947
 21
23.3567
 31
0.0000
  0
ARC
  8
21
 10
29.6947
 20
23.1479
 30
0.0000
 40
0.2088
 50
0.0000
 51
90.0000
  0
LINE
  8
21
 10
29.9035
 20
23.1479
 30
0.0000
 11
29.9035
 21
23.0957
 31
0.0000
  0
ARC
  8
21
 10
29.6425
 20
23.0957
 30
0.0000
 40
0.2611
 50
180.0000
 51
0.0000
  0
LINE
  8
21
 10
29.3814
 20
23.0957
 30
0.0000
 11
29.3814
 21
23.3567
 31
0.0000
  0
ARC
  8
21
 10
29.7991
 20
23.3567
 30
0.0000
 40
0.4177
 50
90.0004
 51
180.0000
  0
ARC
  8
21
 10
25.2490
 20
22.0155
 30
0.0000
 40
0.2350
 50
0.0000
 51
90.0000
  0
ARC
  8
21
 10
25.2490
 20
21.9486
 30
0.0000
 40
0.3018
 50
90.0001
 51
162.0550
  0
ARC
  8
21
 10
25.2316
 20
22.0155
 30
0.0000
 40
0.2524
 50
313.6042
 51
359.9995
  0
LINE
  8
21
 10
25.4056
 20
21.8327
 30
0.0000
 11
24.9619
 21
21.3106
 31
0.0000
  0
LINE
  8
21
 10
24.9619
 20
21.3106
 30
0.0000
 11
25.4840
 21
21.3106
 31
0.0000
  0
LINE
  8
21
 10
25.8762
 20
22.1460
 30
0.0000
 11
25.8762
 21
22.2504
 31
0.0000
  0
LINE
  8
21
 10
25.8762
 20
22.2504
 30
0.0000
 11
26.3984
 21
22.2504
 31
0.0000
  0
LINE
  8
21
 10
26.3984
 20
22.2504
 30
0.0000
 11
26.1373
 21
21.3106
 31
0.0000
  0
LINE
  8
21
 10
27.2058
 20
21.3106
 30
0.0000
 11
26.9969
 21
21.3106
 31
0.0000
  0
ARC
  8
21
 10
26.9969
 20
21.5194
 30
0.0000
 40
0.2088
 50
180.0000
 51
270.0000
  0
LINE
  8
21
 10
26.7881
 20
21.5194
 30
0.0000
 11
26.7881
 21
22.0416
 31
0.0000
  0
ARC
  8
21
 10
26.9969
 20
22.0416
 30
0.0000
 40
0.2088
 50
90.0009
 51
180.0000
  0
LINE
  8
21
 10
26.9969
 20
22.2504
 30
0.0000
 11
27.2058
 21
22.2504
 31
0.0000
  0
LINE
  8
21
 10
27.5526
 20
21.8327
 30
0.0000
 11
27.8659
 21
21.8327
 31
0.0000
  0
ARC
  8
21
 10
27.8659
 20
21.6239
 30
0.0000
 40
0.2088
 50
0.0000
 51
90.0000
  0
LINE
  8
21
 10
28.0747
 20
21.6239
 30
0.0000
 11
28.0747
 21
21.5717
 31
0.0000
  0
ARC
  8
21
 10
27.8137
 20
21.5717
 30
0.0000
 40
0.2611
 50
180.0000
 51
0.0000
  0
LINE
  8
21
 10
27.5526
 20
21.5717
 30
0.0000
 11
27.5526
 21
21.8327
 31
0.0000
  0
ARC
  8
21
 10
27.9703
 20
21.8327
 30
0.0000
 40
0.4177
 50
90.0004
 51
180.0000
  0
LINE
  8
21
 10
28.6759
 20
22.2504
 30
0.0000
 11
28.4670
 21
21.5194
 31
0.0000
  0
LINE
  8
21
 10
28.4670
 20
21.5194
 30
0.0000
 11
28.9891
 21
21.5194
 31
0.0000
  0
LINE
  8
21
 10
28.8325
 20
21.7283
 30
0.0000
 11
28.8325
 21
21.3106
 31
0.0000
  0
LINE
  8
21
 10
39.9542
 20
35.8966
 30
0.0000
 11
39.9542
 21
35.3773
 31
0.0000
  0
LINE
  8
21
 10
39.9542
 20
35.3773
 30
0.0000
 11
38.7858
 21
35.3773
 31
0.0000
  0
LINE
  8
21
 10
38.7858
 20
35.3773
 30
0.0000
 11
38.7858
 21
35.8966
 31
0.0000
  0
LINE
  8
21
 10
39.3051
 20
35.3773
 30
0.0000
 11
39.3051
 21
35.7667
 31
0.0000
  0
LINE
  8
21
 10
39.9542
 20
36.3656
 30
0.0000
 11
38.7858
 21
36.3656
 31
0.0000
  0
LINE
  8
21
 10
38.7858
 20
36.3656
 30
0.0000
 11
39.9542
 21
37.0147
 31
0.0000
  0
LINE
  8
21
 10
39.9542
 20
37.0147
 30
0.0000
 11
38.7858
 21
37.0147
 31
0.0000
  0
LINE
  8
21
 10
39.9542
 20
37.4818
 30
0.0000
 11
38.7858
 21
37.8713
 31
0.0000
  0
LINE
  8
21
 10
38.7858
 20
37.8713
 30
0.0000
 11
39.9542
 21
38.2607
 31
0.0000
  0
LINE
  8
21
 10
39.6621
 20
38.1634
 30
0.0000
 11
39.6621
 21
37.5792
 31
0.0000
  0
LINE
  8
21
 10
39.3051
 20
38.7447
 30
0.0000
 11
39.3051
 21
39.0693
 31
0.0000
  0
ARC
  8
21
 10
39.6296
 20
39.0693
 30
0.0000
 40
0.3246
 50
0.0000
 51
180.0000
  0
LINE
  8
21
 10
39.9542
 20
39.0693
 30
0.0000
 11
39.9542
 21
38.7447
 31
0.0000
  0
LINE
  8
21
 10
39.9542
 20
38.7447
 30
0.0000
 11
38.7858
 21
38.7447
 31
0.0000
  0
LINE
  8
21
 10
38.7858
 20
38.7447
 30
0.0000
 11
38.7858
 21
39.0693
 31
0.0000
  0
ARC
  8
21
 10
39.0454
 20
39.0693
 30
0.0000
 40
0.2596
 50
0.0000
 51
180.0000
  0
LINE
  8
21
 10
38.7858
 20
39.8731
 30
0.0000
 11
39.9542
 21
39.8731
 31
0.0000
  0
LINE
  8
21
 10
39.9542
 20
39.8731
 30
0.0000
 11
39.9542
 21
40.3924
 31
0.0000
  0
LINE
  8
21
 10
39.9542
 20
41.3830
 30
0.0000
 11
39.9542
 21
40.8637
 31
0.0000
  0
LINE
  8
21
 10
39.9542
 20
40.8637
 30
0.0000
 11
38.7858
 21
40.8637
 31
0.0000
  0
LINE
  8
21
 10
38.7858
 20
40.8637
 30
0.0000
 11
38.7858
 21
41.3830
 31
0.0000
  0
LINE
  8
21
 10
39.3051
 20
40.8637
 30
0.0000
 11
39.3051
 21
41.2531
 31
0.0000
  0
LINE
  8
21
 10
42.0398
 20
38.2418
 30
0.0000
 11
42.0398
 21
39.0208
 31
0.0000
  0
LINE
  8
21
 10
42.4293
 20
38.6313
 30
0.0000
 11
41.6504
 21
38.6313
 31
0.0000
  0
LINE
  8
21
 10
42.4942
 20
39.5259
 30
0.0000
 11
42.4942
 21
39.9154
 31
0.0000
  0
ARC
  8
21
 10
42.2346
 20
39.9154
 30
0.0000
 40
0.2596
 50
0.0000
 51
90.0000
  0
LINE
  8
21
 10
42.2346
 20
40.1750
 30
0.0000
 11
42.1047
 21
40.1750
 31
0.0000
  0
ARC
  8
21
 10
42.1047
 20
39.9154
 30
0.0000
 40
0.2596
 50
90.0000
 51
180.0000
  0
LINE
  8
21
 10
41.8451
 20
39.9154
 30
0.0000
 11
41.8451
 21
39.5259
 31
0.0000
  0
LINE
  8
21
 10
41.8451
 20
39.5259
 30
0.0000
 11
41.3258
 21
39.5259
 31
0.0000
  0
LINE
  8
21
 10
41.3258
 20
39.5259
 30
0.0000
 11
41.3258
 21
40.1750
 31
0.0000
  0
LINE
  8
21
 10
41.3258
 20
40.6040
 30
0.0000
 11
42.4942
 21
40.9935
 31
0.0000
  0
LINE
  8
21
 10
42.4942
 20
40.9935
 30
0.0000
 11
41.3258
 21
41.3830
 31
0.0000
  0
LINE
  8
21
 10
43.6626
 20
36.5756
 30
0.0000
 11
43.6626
 21
41.4338
 31
0.0000
  0
LINE
  8
21
 10
45.0342
 20
36.6264
 30
0.0000
 11
43.8658
 21
36.6264
 31
0.0000
  0
LINE
  8
21
 10
43.8658
 20
36.6264
 30
0.0000
 11
43.8658
 21
36.9510
 31
0.0000
  0
ARC
  8
21
 10
44.1904
 20
36.9510
 30
0.0000
 40
0.3246
 50
0.0000
 51
180.0000
  0
LINE
  8
21
 10
44.5149
 20
36.9510
 30
0.0000
 11
44.5149
 21
36.6264
 31
0.0000
  0
LINE
  8
21
 10
45.0342
 20
37.2755
 30
0.0000
 11
44.5149
 21
37.0159
 31
0.0000
  0
LINE
  8
21
 10
45.0342
 20
38.3217
 30
0.0000
 11
45.0342
 21
37.8024
 31
0.0000
  0
LINE
  8
21
 10
45.0342
 20
37.8024
 30
0.0000
 11
43.8658
 21
37.8024
 31
0.0000
  0
LINE
  8
21
 10
43.8658
 20
37.8024
 30
0.0000
 11
43.8658
 21
38.3217
 31
0.0000
  0
LINE
  8
21
 10
44.3851
 20
37.8024
 30
0.0000
 11
44.3851
 21
38.1919
 31
0.0000
  0
ARC
  8
21
 10
44.7746
 20
39.1040
 30
0.0000
 40
0.2596
 50
0.0000
 51
90.0000
  0
ARC
  8
21
 10
44.4857
 20
39.1040
 30
0.0000
 40
0.5485
 50
314.7610
 51
359.9999
  0
ARC
  8
21
 10
44.1254
 20
39.0066
 30
0.0000
 40
0.2596
 50
180.0000
 51
270.0000
  0
ARC
  8
21
 10
44.3526
 20
39.0066
 30
0.0000
 40
0.4868
 50
143.1294
 51
180.0000
  0
ARC
  8
21
 10
44.1254
 20
39.0107
 30
0.0000
 40
0.2637
 50
269.9998
 51
329.4902
  0
ARC
  8
21
 10
44.7746
 20
39.1000
 30
0.0000
 40
0.2637
 50
90.0001
 51
149.4899
  0
LINE
  8
21
 10
44.5474
 20
39.2338
 30
0.0000
 11
44.3526
 21
38.8768
 31
0.0000
  0
LINE
  8
21
 10
45.0342
 20
40.3791
 30
0.0000
 11
45.0342
 21
39.8598
 31
0.0000
  0
LINE
  8
21
 10
45.0342
 20
39.8598
 30
0.0000
 11
43.8658
 21
39.8598
 31
0.0000
  0
LINE
  8
21
 10
43.8658
 20
39.8598
 30
0.0000
 11
43.8658
 21
40.3791
 31
0.0000
  0
LINE
  8
21
 10
44.3851
 20
39.8598
 30
0.0000
 11
44.3851
 21
40.2493
 31
0.0000
  0
LINE
  8
21
 10
45.0342
 20
41.0584
 30
0.0000
 11
43.8658
 21
41.0584
 31
0.0000
  0
LINE
  8
21
 10
43.8658
 20
40.7338
 30
0.0000
 11
43.8658
 21
41.3830
 31
0.0000
  0
LINE
  8
21
 10
46.7014
 20
45.3087
 30
0.0000
 11
46.8962
 21
45.3087
 31
0.0000
  0
LINE
  8
21
 10
46.8962
 20
45.3087
 30
0.0000
 11
46.8962
 21
44.6596
 31
0.0000
  0
LINE
  8
21
 10
46.8962
 20
44.6596
 30
0.0000
 11
46.5067
 21
44.6596
 31
0.0000
  0
ARC
  8
21
 10
46.5067
 20
44.9192
 30
0.0000
 40
0.2596
 50
180.0000
 51
270.0000
  0
LINE
  8
21
 10
46.2471
 20
44.9192
 30
0.0000
 11
46.2471
 21
45.5683
 31
0.0000
  0
ARC
  8
21
 10
46.5067
 20
45.5683
 30
0.0000
 40
0.2596
 50
90.0007
 51
180.0000
  0
LINE
  8
21
 10
46.5067
 20
45.8280
 30
0.0000
 11
46.8962
 21
45.8280
 31
0.0000
  0
LINE
  8
21
 10
47.4662
 20
44.6596
 30
0.0000
 11
47.4662
 21
45.8280
 31
0.0000
  0
LINE
  8
21
 10
47.4662
 20
45.8280
 30
0.0000
 11
48.1154
 21
44.6596
 31
0.0000
  0
LINE
  8
21
 10
48.1154
 20
44.6596
 30
0.0000
 11
48.1154
 21
45.8280
 31
0.0000
  0
LINE
  8
21
 10
48.6854
 20
44.6596
 30
0.0000
 11
48.6854
 21
45.8280
 31
0.0000
  0
LINE
  8
21
 10
48.6854
 20
45.8280
 30
0.0000
 11
49.0100
 21
45.8280
 31
0.0000
  0
ARC
  8
21
 10
49.0100
 20
45.5034
 30
0.0000
 40
0.3246
 50
0.0000
 51
90.0000
  0
LINE
  8
21
 10
49.3346
 20
45.5034
 30
0.0000
 11
49.3346
 21
44.9841
 31
0.0000
  0
ARC
  8
21
 10
49.0100
 20
44.9841
 30
0.0000
 40
0.3246
 50
269.9994
 51
0.0000
  0
LINE
  8
21
 10
49.0100
 20
44.6596
 30
0.0000
 11
48.6854
 21
44.6596
 31
0.0000
  0
CIRCLE
  8
20
 10
29.0000
 20
43.9000
 30
0.0000
 40
2.5000
  0
LINE
  8
21
 10
30.5125
 20
34.4800
 30
0.0000
 11
25.4325
 21
34.4800
 31
0.0000
  0
LINE
  8
21
 10
25.4325
 20
37.0200
 30
0.0000
 11
25.4325
 21
34.4800
 31
0.0000
  0
LINE
  8
21
 10
25.4325
 20
37.0200
 30
0.0000
 11
30.5125
 21
37.0200
 31
0.0000
  0
LINE
  8
21
 10
30.5125
 20
34.4800
 30
0.0000
 11
30.5125
 21
37.0200
 31
0.0000
  0
LINE
  8
21
 10
7.3025
 20
18.2937
 30
0.0000
 11
2.2225
 21
18.2937
 31
0.0000
  0
LINE
  8
21
 10
2.2225
 20
20.8338
 30
0.0000
 11
2.2225
 21
18.2937
 31
0.0000
  0
LINE
  8
21
 10
2.2225
 20
20.8338
 30
0.0000
 11
7.3025
 21
20.8338
 31
0.0000
  0
LINE
  8
21
 10
7.3025
 20
18.2937
 30
0.0000
 11
7.3025
 21
20.8338
 31
0.0000
  0
LINE
  8
21
 10
20.7645
 20
23.0188
 30
0.0000
 11
20.7645
 21
17.6848
 31
0.0000
  0
ARC
  8
21
 10
20.7645
 20
24.2888
 30
0.0000
 40
1.2700
 50
270.0000
 51
90.0000
  0
LINE
  8
21
 10
56.0705
 20
17.6848
 30
0.0000
 11
56.0705
 21
30.8928
 31
0.0000
  0
LINE
  8
21
 10
20.7645
 20
30.8928
 30
0.0000
 11
20.7645
 21
25.5587
 31
0.0000
  0
LINE
  8
21
 10
20.7645
 20
30.8928
 30
0.0000
 11
56.0705
 21
30.8928
 31
0.0000
  0
LINE
  8
21
 10
20.7645
 20
17.6848
 30
0.0000
 11
56.0705
 21
17.6848
 31
0.0000
  0
LINE
  8
21
 10
19.4945
 20
29.5793
 30
0.0000
 11
0.1905
 21
29.5793
 31
0.0000
  0
LINE
  8
21
 10
0.1905
 20
23.4833
 30
0.0000
 11
19.4945
 21
23.4833
 31
0.0000
  0
LINE
  8
21
 10
19.4945
 20
29.5793
 30
0.0000
 11
19.4945
 21
23.4833
 31
0.0000
  0
LINE
  8
21
 10
0.1905
 20
29.5793
 30
0.0000
 11
0.1905
 21
27.5473
 31
0.0000
  0
LINE
  8
21
 10
0.1905
 20
23.4833
 30
0.0000
 11
0.1905
 21
25.5153
 31
0.0000
  0
ARC
  8
21
 10
0.1905
 20
26.5313
 30
0.0000
 40
1.0160
 50
270.0000
 51
90.0000
  0
LINE
  8
20
 10
57.5000
 20
0.0000
 30
0.0000
 11
0.5000
 21
0.0000
 31
0.0000
  0
LINE
  8
20
 10
0.5000
 20
0.0000
 30
0.0000
 11
0.0000
 21
0.5000
 31
0.0000
  0
LINE
  8
20
 10
0.0000
 20
0.5000
 30
0.0000
 11
0.0000
 21
11.0000
 31
0.0000
  0
LINE
  8
20
 10
57.5000
 20
0.0000
 30
0.0000
 11
58.0000
 21
0.5000
 31
0.0000
  0
LINE
  8
20
 10
58.0000
 20
0.5000
 30
0.0000
 11
58.0000
 21
11.0000
 31
0.0000
  0
LINE
  8
21
 10
1.6754
 20
10.6896
 30
0.0000
 11
2.0000
 21
10.9492
 31
0.0000
  0
LINE
  8
21
 10
2.0000
 20
10.9492
 30
0.0000
 11
2.0000
 21
9.7808
 31
0.0000
  0
LINE
  8
21
 10
1.6754
 20
9.7808
 30
0.0000
 11
2.3246
 21
9.7808
 31
0.0000
  0
ARC
  8
21
 10
55.4610
 20
10.6571
 30
0.0000
 40
0.2921
 50
0.0000
 51
90.0000
  0
ARC
  8
21
 10
55.4610
 20
10.5739
 30
0.0000
 40
0.3753
 50
90.0001
 51
162.0549
  0
ARC
  8
21
 10
55.4393
 20
10.6571
 30
0.0000
 40
0.3138
 50
313.6040
 51
359.9996
  0
LINE
  8
21
 10
55.6557
 20
10.4299
 30
0.0000
 11
55.1039
 21
9.7808
 31
0.0000
  0
LINE
  8
21
 10
55.1039
 20
9.7808
 30
0.0000
 11
55.7531
 21
9.7808
 31
0.0000
  0
ARC
  8
21
 10
56.6040
 20
10.6571
 30
0.0000
 40
0.2921
 50
0.0000
 51
90.0000
  0
ARC
  8
21
 10
56.6040
 20
10.5739
 30
0.0000
 40
0.3753
 50
90.0001
 51
162.0549
  0
ARC
  8
21
 10
56.5823
 20
10.6571
 30
0.0000
 40
0.3138
 50
313.6040
 51
359.9996
  0
LINE
  8
21
 10
56.7987
 20
10.4299
 30
0.0000
 11
56.2469
 21
9.7808
 31
0.0000
  0
LINE
  8
21
 10
56.2469
 20
9.7808
 30
0.0000
 11
56.8961
 21
9.7808
 31
0.0000
  0
LINE
  8
51
 10
16.4465
 20
42.0688
 30
0.0000
 11
18.4785
 21
42.0688
 31
0.0000
  0
CIRCLE
  8
21
 10
17.4625
 20
42.0688
 30
0.0000
 40
1.0160
  0
LINE
  8
51
 10
19.1453
 20
42.0688
 30
0.0000
 11
21.1773
 21
42.0688
 31
0.0000
  0
CIRCLE
  8
21
 10
20.1613
 20
42.0688
 30
0.0000
 40
1.0160
  0
LINE
  8
51
 10
21.8440
 20
42.0688
 30
0.0000
 11
23.8760
 21
42.0688
 31
0.0000
  0
CIRCLE
  8
21
 10
22.8600
 20
42.0688
 30
0.0000
 40
1.0160
  0
LINE
  8
21
 10
41.6100
 20
55.5850
 30
0.0000
 11
41.6100
 21
55.8850
 31
0.0000
  0
LINE
  8
21
 10
41.6100
 20
55.8850
 30
0.0000
 11
41.8100
 21
56.0850
 31
0.0000
  0
LINE
  8
21
 10
41.8100
 20
56.0850
 30
0.0000
 11
42.0100
 21
56.0850
 31
0.0000
  0
LINE
  8
21
 10
42.0100
 20
56.0850
 30
0.0000
 11
42.2100
 21
55.8850
 31
0.0000
  0
LINE
  8
21
 10
42.2100
 20
55.8850
 30
0.0000
 11
42.2100
 21
55.5850
 31
0.0000
  0
LINE
  8
21
 10
42.2100
 20
55.5850
 30
0.0000
 11
41.6100
 21
55.5850
 31
0.0000
  0
LINE
  8
21
 10
44.1500
 20
55.5850
 30
0.0000
 11
44.1500
 21
55.8850
 31
0.0000
  0
LINE
  8
21
 10
44.1500
 20
55.8850
 30
0.0000
 11
44.3500
 21
56.0850
 31
0.0000
  0
LINE
  8
21
 10
44.3500
 20
56.0850
 30
0.0000
 11
44.5500
 21
56.0850
 31
0.0000
  0
LINE
  8
21
 10
44.5500
 20
56.0850
 30
0.0000
 11
44.7500
 21
55.8850
 31
0.0000
  0
LINE
  8
21
 10
44.7500
 20
55.8850
 30
0.0000
 11
44.7500
 21
55.5850
 31
0.0000
  0
LINE
  8
21
 10
44.7500
 20
55.5850
 30
0.0000
 11
44.1500
 21
55.5850
 31
0.0000
  0
LINE
  8
21
 10
39.0700
 20
55.5850
 30
0.0000
 11
39.0700
 21
55.8850
 31
0.0000
  0
LINE
  8
21
 10
39.0700
 20
55.8850
 30
0.0000
 11
39.2700
 21
56.0850
 31
0.0000
  0
LINE
  8
21
 10
39.2700
 20
56.0850
 30
0.0000
 11
39.4700
 21
56.0850
 31
0.0000
  0
LINE
  8
21
 10
39.4700
 20
56.0850
 30
0.0000
 11
39.6700
 21
55.8850
 31
0.0000
  0
LINE
  8
21
 10
39.6700
 20
55.8850
 30
0.0000
 11
39.6700
 21
55.5850
 31
0.0000
  0
LINE
  8
21
 10
39.6700
 20
55.5850
 30
0.0000
 11
39.0700
 21
55.5850
 31
0.0000
  0
LINE
  8
21
 10
36.5300
 20
55.5850
 30
0.0000
 11
36.5300
 21
55.8850
 31
0.0000
  0
LINE
  8
21
 10
36.5300
 20
55.8850
 30
0.0000
 11
36.7300
 21
56.0850
 31
0.0000
  0
LINE
  8
21
 10
36.7300
 20
56.0850
 30
0.0000
 11
36.9300
 21
56.0850
 31
0.0000
  0
LINE
  8
21
 10
36.9300
 20
56.0850
 30
0.0000
 11
37.1300
 21
55.8850
 31
0.0000
  0
LINE
  8
21
 10
37.1300
 20
55.8850
 30
0.0000
 11
37.1300
 21
55.5850
 31
0.0000
  0
LINE
  8
21
 10
37.1300
 20
55.5850
 30
0.0000
 11
36.5300
 21
55.5850
 31
0.0000
  0
LINE
  8
21
 10
40.6400
 20
48.9850
 30
0.0000
 11
40.9400
 21
48.9850
 31
0.0000
  0
LINE
  8
21
 10
40.9400
 20
48.9850
 30
0.0000
 11
42.8800
 21
48.9850
 31
0.0000
  0
LINE
  8
21
 10
42.8800
 20
48.9850
 30
0.0000
 11
43.1800
 21
48.9850
 31
0.0000
  0
LINE
  8
21
 10
40.6400
 20
46.4850
 30
0.0000
 11
40.9400
 21
46.4850
 31
0.0000
  0
LINE
  8
21
 10
40.9400
 20
46.4850
 30
0.0000
 11
42.8800
 21
46.4850
 31
0.0000
  0
LINE
  8
21
 10
42.8800
 20
46.4850
 30
0.0000
 11
43.1800
 21
46.4850
 31
0.0000
  0
LINE
  8
21
 10
43.1800
 20
48.9850
 30
0.0000
 11
43.1800
 21
46.4850
 31
0.0000
  0
LINE
  8
21
 10
40.6400
 20
48.9850
 30
0.0000
 11
40.6400
 21
46.4850
 31
0.0000
  0
LINE
  8
21
 10
40.9400
 20
48.9850
 30
0.0000
 11
40.9400
 21
46.4850
 31
0.0000
  0
LINE
  8
21
 10
42.8800
 20
48.9850
 30
0.0000
 11
42.8800
 21
46.4850
 31
0.0000
  0
LINE
  8
21
 10
43.1800
 20
48.9850
 30
0.0000
 11
43.4800
 21
48.9850
 31
0.0000
  0
LINE
  8
21
 10
43.4800
 20
48.9850
 30
0.0000
 11
45.4200
 21
48.9850
 31
0.0000
  0
LINE
  8
21
 10
45.4200
 20
48.9850
 30
0.0000
 11
45.7200
 21
48.9850
 31
0.0000
  0
LINE
  8
21
 10
43.1800
 20
46.4850
 30
0.0000
 11
43.4800
 21
46.4850
 31
0.0000
  0
LINE
  8
21
 10
43.4800
 20
46.4850
 30
0.0000
 11
45.4200
 21
46.4850
 31
0.0000
  0
LINE
  8
21
 10
45.4200
 20
46.4850
 30
0.0000
 11
45.7200
 21
46.4850
 31
0.0000
  0
LINE
  8
21
 10
45.7200
 20
48.9850
 30
0.0000
 11
45.7200
 21
46.4850
 31
0.0000
  0
LINE
  8
21
 10
43.1800
 20
48.9850
 30
0.0000
 11
43.1800
 21
46.4850
 31
0.0000
  0
LINE
  8
21
 10
43.4800
 20
48.9850
 30
0.0000
 11
43.4800
 21
46.4850
 31
0.0000
  0
LINE
  8
21
 10
45.4200
 20
48.9850
 30
0.0000
 11
45.4200
 21
46.4850
 31
0.0000
  0
LINE
  8
21
 10
38.1000
 20
48.9850
 30
0.0000
 11
38.4000
 21
48.9850
 31
0.0000
  0
LINE
  8
21
 10
38.4000
 20
48.9850
 30
0.0000
 11
40.3400
 21
48.9850
 31
0.0000
  0
LINE
  8
21
 10
40.3400
 20
48.9850
 30
0.0000
 11
40.6400
 21
48.9850
 31
0.0000
  0
LINE
  8
21
 10
38.1000
 20
46.4850
 30
0.0000
 11
38.4000
 21
46.4850
 31
0.0000
  0
LINE
  8
21
 10
38.4000
 20
46.4850
 30
0.0000
 11
40.3400
 21
46.4850
 31
0.0000
  0
LINE
  8
21
 10
40.3400
 20
46.4850
 30
0.0000
 11
40.6400
 21
46.4850
 31
0.0000
  0
LINE
  8
21
 10
40.6400
 20
48.9850
 30
0.0000
 11
40.6400
 21
46.4850
 31
0.0000
  0
LINE
  8
21
 10
38.1000
 20
48.9850
 30
0.0000
 11
38.1000
 21
46.4850
 31
0.0000
  0
LINE
  8
21
 10
38.4000
 20
48.9850
 30
0.0000
 11
38.4000
 21
46.4850
 31
0.0000
  0
LINE
  8
21
 10
40.3400
 20
48.9850
 30
0.0000
 11
40.3400
 21
46.4850
 31
0.0000
  0
LINE
  8
21
 10
35.5600
 20
48.9850
 30
0.0000
 11
35.8600
 21
48.9850
 31
0.0000
  0
LINE
  8
21
 10
35.8600
 20
48.9850
 30
0.0000
 11
37.8000
 21
48.9850
 31
0.0000
  0
LINE
  8
21
 10
37.8000
 20
48.9850
 30
0.0000
 11
38.1000
 21
48.9850
 31
0.0000
  0
LINE
  8
21
 10
35.5600
 20
46.4850
 30
0.0000
 11
35.8600
 21
46.4850
 31
0.0000
  0
LINE
  8
21
 10
35.8600
 20
46.4850
 30
0.0000
 11
37.8000
 21
46.4850
 31
0.0000
  0
LINE
  8
21
 10
37.8000
 20
46.4850
 30
0.0000
 11
38.1000
 21
46.4850
 31
0.0000
  0
LINE
  8
21
 10
38.1000
 20
48.9850
 30
0.0000
 11
38.1000
 21
46.4850
 31
0.0000
  0
LINE
  8
21
 10
35.5600
 20
48.9850
 30
0.0000
 11
35.5600
 21
46.4850
 31
0.0000
  0
LINE
  8
21
 10
35.8600
 20
48.9850
 30
0.0000
 11
35.8600
 21
46.4850
 31
0.0000
  0
LINE
  8
21
 10
37.8000
 20
48.9850
 30
0.0000
 11
37.8000
 21
46.4850
 31
0.0000
  0
LINE
  8
21
 10
45.6100
 20
45.4850
 30
0.0000
 11
45.8100
 21
45.6850
 31
0.0000
  0
LINE
  8
21
 10
45.8100
 20
45.6850
 30
0.0000
 11
45.8100
 21
44.7850
 31
0.0000
  0
LINE
  8
21
 10
45.6100
 20
44.7850
 30
0.0000
 11
46.0100
 21
44.7850
 31
0.0000
  0
INSERT
  8
21
  2
RECT
 10
41.9100
 20
46.2350
 30
0.0000
 41
0.6000
 42
0.5000
 43
1.0000
 50
0.0000
  0
INSERT
  8
51
  2
RECT
 10
41.9100
 20
45.1350
 30
0.0000
 41
0.6000
 42
1.7000
 43
1.0000
 50
0.0000
  0
INSERT
  8
21
  2
RECT
 10
41.9100
 20
43.8350
 30
0.0000
 41
0.6000
 42
0.9000
 43
1.0000
 50
0.0000
  0
INSERT
  8
51
  2
RECT
 10
41.9100
 20
42.8350
 30
0.0000
 41
0.6000
 42
1.1000
 43
1.0000
 50
0.0000
  0
INSERT
  8
21
  2
RECT
 10
41.9100
 20
52.2850
 30
0.0000
 41
0.6000
 42
6.6000
 43
1.0000
 50
0.0000
  0
INSERT
  8
21
  2
RECT
 10
44.4500
 20
46.2350
 30
0.0000
 41
0.6000
 42
0.5000
 43
1.0000
 50
0.0000
  0
INSERT
  8
51
  2
RECT
 10
44.4500
 20
45.1350
 30
0.0000
 41
0.6000
 42
1.7000
 43
1.0000
 50
0.0000
  0
INSERT
  8
21
  2
RECT
 10
44.4500
 20
43.8350
 30
0.0000
 41
0.6000
 42
0.9000
 43
1.0000
 50
0.0000
  0
INSERT
  8
51
  2
RECT
 10
44.4500
 20
42.8350
 30
0.0000
 41
0.6000
 42
1.1000
 43
1.0000
 50
0.0000
  0
INSERT
  8
21
  2
RECT
 10
44.4500
 20
52.2850
 30
0.0000
 41
0.6000
 42
6.6000
 43
1.0000
 50
0.0000
  0
INSERT
  8
21
  2
RECT
 10
39.3700
 20
46.2350
 30
0.0000
 41
0.6000
 42
0.5000
 43
1.0000
 50
0.0000
  0
INSERT
  8
51
  2
RECT
 10
39.3700
 20
45.1350
 30
0.0000
 41
0.6000
 42
1.7000
 43
1.0000
 50
0.0000
  0
INSERT
  8
21
  2
RECT
 10
39.3700
 20
43.8350
 30
0.0000
 41
0.6000
 42
0.9000
 43
1.0000
 50
0.0000
  0
INSERT
  8
51
  2
RECT
 10
39.3700
 20
42.8350
 30
0.0000
 41
0.6000
 42
1.1000
 43
1.0000
 50
0.0000
  0
INSERT
  8
21
  2
RECT
 10
39.3700
 20
52.2850
 30
0.0000
 41
0.6000
 42
6.6000
 43
1.0000
 50
0.0000
  0
INSERT
  8
21
  2
RECT
 10
36.8300
 20
46.2350
 30
0.0000
 41
0.6000
 42
0.5000
 43
1.0000
 50
0.0000
  0
INSERT
  8
51
  2
RECT
 10
36.8300
 20
45.1350
 30
0.0000
 41
0.6000
 42
1.7000
 43
1.0000
 50
0.0000
  0
INSERT
  8
21
  2
RECT
 10
36.8300
 20
43.8350
 30
0.0000
 41
0.6000
 42
0.9000
 43
1.0000
 50
0.0000
  0
INSERT
  8
51
  2
RECT
 10
36.8300
 20
42.8350
 30
0.0000
 41
0.6000
 42
1.1000
 43
1.0000
 50
0.0000
  0
INSERT
  8
21
  2
RECT
 10
36.8300
 20
52.2850
 30
0.0000
 41
0.6000
 42
6.6000
 43
1.0000
 50
0.0000
  0
LINE
  8
21
 10
35.0838
 20
38.2587
 30
0.0000
 11
35.0838
 21
45.8788
 31
0.0000
  0
LINE
  8
21
 10
32.5438
 20
45.8788
 30
0.0000
 11
32.5438
 21
38.2587
 31
0.0000
  0
LINE
  8
21
 10
33.8137
 20
45.8788
 30
0.0000
 11
33.8137
 21
46.6408
 31
0.0000
  0
LINE
  8
21
 10
35.0838
 20
45.8788
 30
0.0000
 11
32.5438
 21
45.8788
 31
0.0000
  0
LINE
  8
21
 10
33.8137
 20
38.2587
 30
0.0000
 11
33.8137
 21
37.4967
 31
0.0000
  0
LINE
  8
21
 10
32.5438
 20
38.2587
 30
0.0000
 11
35.0838
 21
38.2587
 31
0.0000
  0
LINE
  8
21
 10
18.7325
 20
35.5600
 30
0.0000
 11
18.7325
 21
43.1800
 31
0.0000
  0
LINE
  8
21
 10
16.1925
 20
43.1800
 30
0.0000
 11
16.1925
 21
35.5600
 31
0.0000
  0
LINE
  8
21
 10
17.4625
 20
43.1800
 30
0.0000
 11
17.4625
 21
43.9420
 31
0.0000
  0
LINE
  8
21
 10
18.7325
 20
43.1800
 30
0.0000
 11
16.1925
 21
43.1800
 31
0.0000
  0
LINE
  8
21
 10
17.4625
 20
35.5600
 30
0.0000
 11
17.4625
 21
34.7980
 31
0.0000
  0
LINE
  8
21
 10
16.1925
 20
35.5600
 30
0.0000
 11
18.7325
 21
35.5600
 31
0.0000
  0
LINE
  8
21
 10
21.4313
 20
35.5600
 30
0.0000
 11
21.4313
 21
43.1800
 31
0.0000
  0
LINE
  8
21
 10
18.8912
 20
43.1800
 30
0.0000
 11
18.8912
 21
35.5600
 31
0.0000
  0
LINE
  8
21
 10
20.1613
 20
43.1800
 30
0.0000
 11
20.1613
 21
43.9420
 31
0.0000
  0
LINE
  8
21
 10
21.4313
 20
43.1800
 30
0.0000
 11
18.8912
 21
43.1800
 31
0.0000
  0
LINE
  8
21
 10
20.1613
 20
35.5600
 30
0.0000
 11
20.1613
 21
34.7980
 31
0.0000
  0
LINE
  8
21
 10
18.8912
 20
35.5600
 30
0.0000
 11
21.4313
 21
35.5600
 31
0.0000
  0
LINE
  8
21
 10
24.1300
 20
35.5600
 30
0.0000
 11
24.1300
 21
43.1800
 31
0.0000
  0
LINE
  8
21
 10
21.5900
 20
43.1800
 30
0.0000
 11
21.5900
 21
35.5600
 31
0.0000
  0
LINE
  8
21
 10
22.8600
 20
43.1800
 30
0.0000
 11
22.8600
 21
43.9420
 31
0.0000
  0
LINE
  8
21
 10
24.1300
 20
43.1800
 30
0.0000
 11
21.5900
 21
43.1800
 31
0.0000
  0
LINE
  8
21
 10
22.8600
 20
35.5600
 30
0.0000
 11
22.8600
 21
34.7980
 31
0.0000
  0
LINE
  8
21
 10
21.5900
 20
35.5600
 30
0.0000
 11
24.1300
 21
35.5600
 31
0.0000
  0
LINE
  8
21
 10
1.6193
 20
36.3220
 30
0.0000
 11
13.3033
 21
36.3220
 31
0.0000
  0
LINE
  8
21
 10
13.3033
 20
46.2280
 30
0.0000
 11
1.6193
 21
46.2280
 31
0.0000
  0
LINE
  8
21
 10
1.6193
 20
46.2280
 30
0.0000
 11
1.6193
 21
42.9260
 31
0.0000
  0
LINE
  8
21
 10
1.6193
 20
39.6240
 30
0.0000
 11
2.1273
 21
39.6240
 31
0.0000
  0
LINE
  8
21
 10
2.1273
 20
39.6240
 30
0.0000
 11
2.1273
 21
42.9260
 31
0.0000
  0
LINE
  8
21
 10
2.1273
 20
42.9260
 30
0.0000
 11
1.6193
 21
42.9260
 31
0.0000
  0
LINE
  8
21
 10
1.6193
 20
39.6240
 30
0.0000
 11
1.6193
 21
36.3220
 31
0.0000
  0
LINE
  8
21
 10
1.6193
 20
42.9260
 30
0.0000
 11
1.6193
 21
39.6240
 31
0.0000
  0
LINE
  8
21
 10
13.3033
 20
36.3220
 30
0.0000
 11
13.3033
 21
39.6240
 31
0.0000
  0
LINE
  8
21
 10
13.3033
 20
42.9260
 30
0.0000
 11
12.7953
 21
42.9260
 31
0.0000
  0
LINE
  8
21
 10
12.7953
 20
42.9260
 30
0.0000
 11
12.7953
 21
39.6240
 31
0.0000
  0
LINE
  8
21
 10
12.7953
 20
39.6240
 30
0.0000
 11
13.3033
 21
39.6240
 31
0.0000
  0
LINE
  8
21
 10
13.3033
 20
42.9260
 30
0.0000
 11
13.3033
 21
46.2280
 31
0.0000
  0
LINE
  8
21
 10
13.3033
 20
39.6240
 30
0.0000
 11
13.3033
 21
42.9260
 31
0.0000
  0
LINE
  8
21
 10
10.5092
 20
43.1800
 30
0.0000
 11
10.5092
 21
39.3700
 31
0.0000
  0
LINE
  8
21
 10
10.5092
 20
43.1800
 30
0.0000
 11
12.0333
 21
43.1800
 31
0.0000
  0
LINE
  8
21
 10
12.0333
 20
39.3700
 30
0.0000
 11
12.0333
 21
43.1800
 31
0.0000
  0
LINE
  8
21
 10
12.0333
 20
39.3700
 30
0.0000
 11
10.5092
 21
39.3700
 31
0.0000
  0
LINE
  8
21
 10
10.7633
 20
41.2750
 30
0.0000
 11
10.7633
 21
39.6240
 31
0.0000
  0
LINE
  8
21
 10
11.7793
 20
41.2750
 30
0.0000
 11
11.7793
 21
39.6240
 31
0.0000
  0
LINE
  8
21
 10
7.9693
 20
43.1800
 30
0.0000
 11
7.9693
 21
39.3700
 31
0.0000
  0
LINE
  8
21
 10
7.9693
 20
43.1800
 30
0.0000
 11
9.4932
 21
43.1800
 31
0.0000
  0
LINE
  8
21
 10
9.4932
 20
39.3700
 30
0.0000
 11
9.4932
 21
43.1800
 31
0.0000
  0
LINE
  8
21
 10
9.4932
 20
39.3700
 30
0.0000
 11
7.9693
 21
39.3700
 31
0.0000
  0
LINE
  8
21
 10
8.2233
 20
41.2750
 30
0.0000
 11
8.2233
 21
39.6240
 31
0.0000
  0
LINE
  8
21
 10
9.2393
 20
41.2750
 30
0.0000
 11
9.2393
 21
39.6240
 31
0.0000
  0
LINE
  8
21
 10
5.4293
 20
43.1800
 30
0.0000
 11
5.4293
 21
39.3700
 31
0.0000
  0
LINE
  8
21
 10
5.4293
 20
43.1800
 30
0.0000
 11
6.9533
 21
43.1800
 31
0.0000
  0
LINE
  8
21
 10
6.9533
 20
39.3700
 30
0.0000
 11
6.9533
 21
43.1800
 31
0.0000
  0
LINE
  8
21
 10
6.9533
 20
39.3700
 30
0.0000
 11
5.4293
 21
39.3700
 31
0.0000
  0
LINE
  8
21
 10
5.6833
 20
41.2750
 30
0.0000
 11
5.6833
 21
39.6240
 31
0.0000
  0
LINE
  8
21
 10
6.6993
 20
41.2750
 30
0.0000
 11
6.6993
 21
39.6240
 31
0.0000
  0
LINE
  8
21
 10
2.8893
 20
43.1800
 30
0.0000
 11
2.8893
 21
39.3700
 31
0.0000
  0
LINE
  8
21
 10
2.8893
 20
43.1800
 30
0.0000
 11
4.4133
 21
43.1800
 31
0.0000
  0
LINE
  8
21
 10
4.4133
 20
39.3700
 30
0.0000
 11
4.4133
 21
43.1800
 31
0.0000
  0
LINE
  8
21
 10
4.4133
 20
39.3700
 30
0.0000
 11
2.8893
 21
39.3700
 31
0.0000
  0
LINE
  8
21
 10
3.1433
 20
41.2750
 30
0.0000
 11
3.1433
 21
39.6240
 31
0.0000
  0
LINE
  8
21
 10
4.1593
 20
41.2750
 30
0.0000
 11
4.1593
 21
39.6240
 31
0.0000
  0
LINE
  8
51
 10
3.4607
 20
38.2341
 30
0.0000
 11
3.8488
 21
38.5445
 31
0.0000
  0
LINE
  8
51
 10
3.8488
 20
38.5445
 30
0.0000
 11
3.8488
 21
37.1475
 31
0.0000
  0
LINE
  8
51
 10
3.4607
 20
37.1475
 30
0.0000
 11
4.2369
 21
37.1475
 31
0.0000
  0
LINE
  8
51
 10
2.4447
 20
44.2666
 30
0.0000
 11
2.4447
 21
44.8874
 31
0.0000
  0
ARC
  8
51
 10
2.8328
 20
44.8874
 30
0.0000
 40
0.3881
 50
0.0000
 51
180.0000
  0
LINE
  8
51
 10
3.2209
 20
44.8874
 30
0.0000
 11
3.2209
 21
44.2666
 31
0.0000
  0
ARC
  8
51
 10
2.8328
 20
44.2666
 30
0.0000
 40
0.3881
 50
180.0000
 51
0.0000
  0
LINE
  8
51
 10
3.8592
 20
43.8785
 30
0.0000
 11
3.8592
 21
45.2755
 31
0.0000
  0
LINE
  8
51
 10
3.8592
 20
45.2755
 30
0.0000
 11
4.6353
 21
43.8785
 31
0.0000
  0
LINE
  8
51
 10
4.6353
 20
43.8785
 30
0.0000
 11
4.6353
 21
45.2755
 31
0.0000
  0
ARC
  8
51
 10
6.1736
 20
38.1953
 30
0.0000
 40
0.3493
 50
0.0000
 51
90.0000
  0
ARC
  8
51
 10
6.1736
 20
38.0958
 30
0.0000
 40
0.4487
 50
90.0001
 51
162.0549
  0
ARC
  8
51
 10
6.1477
 20
38.1953
 30
0.0000
 40
0.3751
 50
313.6037
 51
359.9998
  0
LINE
  8
51
 10
6.4064
 20
37.9236
 30
0.0000
 11
5.7468
 21
37.1475
 31
0.0000
  0
LINE
  8
51
 10
5.7468
 20
37.1475
 30
0.0000
 11
6.5229
 21
37.1475
 31
0.0000
  0
LINE
  8
51
 10
8.2867
 20
37.1475
 30
0.0000
 11
8.6748
 21
37.1475
 31
0.0000
  0
ARC
  8
51
 10
8.6748
 20
37.5356
 30
0.0000
 40
0.3881
 50
270.0000
 51
90.0000
  0
LINE
  8
51
 10
8.2867
 20
38.5445
 30
0.0000
 11
8.7524
 21
38.5445
 31
0.0000
  0
ARC
  8
51
 10
8.7524
 20
38.2341
 30
0.0000
 40
0.3104
 50
270.0000
 51
90.0000
  0
LINE
  8
51
 10
8.7524
 20
37.9236
 30
0.0000
 11
8.4420
 21
37.9236
 31
0.0000
  0
LINE
  8
51
 10
11.1372
 20
38.5445
 30
0.0000
 11
10.8268
 21
37.4579
 31
0.0000
  0
LINE
  8
51
 10
10.8268
 20
37.4579
 30
0.0000
 11
11.6029
 21
37.4579
 31
0.0000
  0
LINE
  8
51
 10
11.3700
 20
37.7684
 30
0.0000
 11
11.3700
 21
37.1475
 31
0.0000
  0
LINE
  8
51
 10
9.4156
 20
43.8785
 30
0.0000
 11
8.7948
 21
43.8785
 31
0.0000
  0
LINE
  8
51
 10
8.7948
 20
43.8785
 30
0.0000
 11
8.7948
 21
45.2755
 31
0.0000
  0
LINE
  8
51
 10
8.7948
 20
45.2755
 30
0.0000
 11
9.4156
 21
45.2755
 31
0.0000
  0
LINE
  8
51
 10
8.7948
 20
44.6546
 30
0.0000
 11
9.2604
 21
44.6546
 31
0.0000
  0
LINE
  8
51
 10
9.9783
 20
43.8785
 30
0.0000
 11
9.9783
 21
45.2755
 31
0.0000
  0
LINE
  8
51
 10
9.9783
 20
45.2755
 30
0.0000
 11
10.3664
 21
45.2755
 31
0.0000
  0
ARC
  8
51
 10
10.3664
 20
44.8874
 30
0.0000
 40
0.3881
 50
0.0000
 51
90.0000
  0
LINE
  8
51
 10
10.7545
 20
44.8874
 30
0.0000
 11
10.7545
 21
44.2666
 31
0.0000
  0
ARC
  8
51
 10
10.3664
 20
44.2666
 30
0.0000
 40
0.3881
 50
269.9995
 51
360.0000
  0
LINE
  8
51
 10
10.3664
 20
43.8785
 30
0.0000
 11
9.9783
 21
43.8785
 31
0.0000
  0
LINE
  8
51
 10
11.9817
 20
44.6546
 30
0.0000
 11
12.2146
 21
44.6546
 31
0.0000
  0
LINE
  8
51
 10
12.2146
 20
44.6546
 30
0.0000
 11
12.2146
 21
43.8785
 31
0.0000
  0
LINE
  8
51
 10
12.2146
 20
43.8785
 30
0.0000
 11
11.7489
 21
43.8785
 31
0.0000
  0
ARC
  8
51
 10
11.7489
 20
44.1889
 30
0.0000
 40
0.3104
 50
180.0000
 51
270.0000
  0
LINE
  8
51
 10
11.4385
 20
44.1889
 30
0.0000
 11
11.4385
 21
44.9651
 31
0.0000
  0
ARC
  8
51
 10
11.7489
 20
44.9651
 30
0.0000
 40
0.3104
 50
90.0006
 51
180.0000
  0
LINE
  8
51
 10
11.7489
 20
45.2755
 30
0.0000
 11
12.2146
 21
45.2755
 31
0.0000
  0
INSERT
  8
21
  2
RECT
 10
11.2713
 20
41.0845
 30
0.0000
 41
1.0160
 42
0.3810
 43
1.0000
 50
0.0000
  0
INSERT
  8
21
  2
RECT
 10
11.2713
 20
40.4495
 30
0.0000
 41
1.0160
 42
0.3810
 43
1.0000
 50
0.0000
  0
INSERT
  8
21
  2
RECT
 10
11.2713
 20
39.8145
 30
0.0000
 41
1.0160
 42
0.3810
 43
1.0000
 50
0.0000
  0
INSERT
  8
21
  2
RECT
 10
8.7313
 20
41.0845
 30
0.0000
 41
1.0160
 42
0.3810
 43
1.0000
 50
0.0000
  0
INSERT
  8
21
  2
RECT
 10
8.7313
 20
40.4495
 30
0.0000
 41
1.0160
 42
0.3810
 43
1.0000
 50
0.0000
  0
INSERT
  8
21
  2
RECT
 10
8.7313
 20
39.8145
 30
0.0000
 41
1.0160
 42
0.3810
 43
1.0000
 50
0.0000
  0
INSERT
  8
21
  2
RECT
 10
6.1913
 20
41.0845
 30
0.0000
 41
1.0160
 42
0.3810
 43
1.0000
 50
0.0000
  0
INSERT
  8
21
  2
RECT
 10
6.1913
 20
40.4495
 30
0.0000
 41
1.0160
 42
0.3810
 43
1.0000
 50
0.0000
  0
INSERT
  8
21
  2
RECT
 10
6.1913
 20
39.8145
 30
0.0000
 41
1.0160
 42
0.3810
 43
1.0000
 50
0.0000
  0
INSERT
  8
21
  2
RECT
 10
3.6513
 20
41.0845
 30
0.0000
 41
1.0160
 42
0.3810
 43
1.0000
 50
0.0000
  0
INSERT
  8
21
  2
RECT
 10
3.6513
 20
40.4495
 30
0.0000
 41
1.0160
 42
0.3810
 43
1.0000
 50
0.0000
  0
INSERT
  8
21
  2
RECT
 10
3.6513
 20
39.8145
 30
0.0000
 41
1.0160
 42
0.3810
 43
1.0000
 50
0.0000
  0
LINE
  8
51
 10
49.9000
 20
46.0500
 30
0.0000
 11
49.9000
 21
47.4000
 31
0.0000
  0
ARC
  8
51
 10
50.1000
 20
47.4000
 30
0.0000
 40
0.2000
 50
90.0000
 51
180.0000
  0
LINE
  8
51
 10
50.1000
 20
47.6000
 30
0.0000
 11
50.1500
 21
47.6000
 31
0.0000
  0
LINE
  8
21
 10
50.1500
 20
47.6000
 30
0.0000
 11
55.6500
 21
47.6000
 31
0.0000
  0
LINE
  8
51
 10
55.6500
 20
47.6000
 30
0.0000
 11
55.7000
 21
47.6000
 31
0.0000
  0
ARC
  8
51
 10
55.7000
 20
47.4000
 30
0.0000
 40
0.2000
 50
0.0000
 51
90.0000
  0
LINE
  8
51
 10
55.9000
 20
47.4000
 30
0.0000
 11
55.9000
 21
46.0500
 31
0.0000
  0
LINE
  8
21
 10
55.9000
 20
46.0500
 30
0.0000
 11
55.9000
 21
43.2000
 31
0.0000
  0
LINE
  8
51
 10
55.9000
 20
43.2000
 30
0.0000
 11
55.9000
 21
41.8000
 31
0.0000
  0
ARC
  8
51
 10
55.7000
 20
41.8000
 30
0.0000
 40
0.2000
 50
270.0000
 51
0.0000
  0
LINE
  8
51
 10
55.7000
 20
41.6000
 30
0.0000
 11
55.3000
 21
41.6000
 31
0.0000
  0
LINE
  8
21
 10
55.3000
 20
41.6000
 30
0.0000
 11
50.1500
 21
41.6000
 31
0.0000
  0
LINE
  8
51
 10
50.1500
 20
41.6000
 30
0.0000
 11
50.1000
 21
41.6000
 31
0.0000
  0
ARC
  8
51
 10
50.1000
 20
41.8000
 30
0.0000
 40
0.2000
 50
180.0000
 51
270.0000
  0
LINE
  8
51
 10
49.9000
 20
41.8000
 30
0.0000
 11
49.9000
 21
43.1500
 31
0.0000
  0
LINE
  8
21
 10
49.9000
 20
43.1500
 30
0.0000
 11
49.9000
 21
46.0500
 31
0.0000
  0
ARC
  8
51
 10
50.7502
 20
42.4467
 30
0.0000
 40
0.4975
 50
134.7490
 51
232.8791
  0
ARC
  8
21
 10
50.7502
 20
42.4467
 30
0.0000
 40
0.4975
 50
232.8791
 51
134.7490
  0
ARC
  8
51
 10
50.7502
 20
46.7467
 30
0.0000
 40
0.4975
 50
134.7490
 51
232.8791
  0
ARC
  8
21
 10
50.7502
 20
46.7467
 30
0.0000
 40
0.4975
 50
232.8791
 51
134.7490
  0
ARC
  8
51
 10
55.0498
 20
46.7533
 30
0.0000
 40
0.4975
 50
314.7490
 51
52.8791
  0
ARC
  8
21
 10
55.0498
 20
46.7533
 30
0.0000
 40
0.4975
 50
52.8791
 51
314.7490
  0
ARC
  8
51
 10
55.0500
 20
42.4500
 30
0.0000
 40
0.5000
 50
306.8699
 51
53.1301
  0
ARC
  8
21
 10
55.0500
 20
42.4500
 30
0.0000
 40
0.5000
 50
53.1301
 51
306.8699
  0
CIRCLE
  8
21
 10
52.9000
 20
44.6000
 30
0.0000
 40
1.7500
  0
CIRCLE
  8
21
 10
52.9000
 20
44.6000
 30
0.0000
 40
1.4000
  0
INSERT
  8
51
  2
RECT
 10
49.6500
 20
46.8500
 30
0.0000
 41
0.5000
 42
0.7000
 43
1.0000
 50
0.0000
  0
INSERT
  8
51
  2
RECT
 10
49.6500
 20
42.3500
 30
0.0000
 41
0.5000
 42
0.7000
 43
1.0000
 50
0.0000
  0
INSERT
  8
51
  2
RECT
 10
56.1500
 20
42.3500
 30
0.0000
 41
0.5000
 42
0.7000
 43
1.0000
 50
0.0000
  0
INSERT
  8
51
  2
RECT
 10
56.1500
 20
46.8500
 30
0.0000
 41
0.5000
 42
0.7000
 43
1.0000
 50
0.0000
  0
INSERT
  8
21
  2
RECT
 10
46.8249
 20
11.9063
 30
0.0000
 41
0.3048
 42
0.0381
 43
1.0000
 50
0.0000
  0
INSERT
  8
21
  2
RECT
 10
48.6537
 20
11.9063
 30
0.0000
 41
0.4572
 42
0.0381
 43
1.0000
 50
0.0000
  0
INSERT
  8
21
  2
RECT
 10
42.3672
 20
11.9444
 30
0.0000
 41
0.3048
 42
0.0381
 43
1.0000
 50
0.0000
  0
INSERT
  8
21
  2
RECT
 10
43.3197
 20
11.9444
 30
0.0000
 41
0.3810
 42
0.0381
 43
1.0000
 50
0.0000
  0
INSERT
  8
21
  2
RECT
 10
43.7198
 20
11.9444
 30
0.0000
 41
0.1143
 42
0.0381
 43
1.0000
 50
0.0000
  0
INSERT
  8
21
  2
RECT
 10
44.1198
 20
11.9444
 30
0.0000
 41
0.1524
 42
0.0381
 43
1.0000
 50
0.0000
  0
INSERT
  8
21
  2
RECT
 10
45.2438
 20
11.9444
 30
0.0000
 41
0.2667
 42
0.0381
 43
1.0000
 50
0.0000
  0
INSERT
  8
21
  2
RECT
 10
46.8439
 20
11.9444
 30
0.0000
 41
0.7239
 42
0.0381
 43
1.0000
 50
0.0000
  0
INSERT
  8
21
  2
RECT
 10
48.6537
 20
11.9444
 30
0.0000
 41
0.4572
 42
0.0381
 43
1.0000
 50
0.0000
  0
INSERT
  8
21
  2
RECT
 10
42.3863
 20
11.9825
 30
0.0000
 41
0.4953
 42
0.0381
 43
1.0000
 50
0.0000
  0
INSERT
  8
21
  2
RECT
 10
43.3197
 20
11.9825
 30
0.0000
 41
0.5334
 42
0.0381
 43
1.0000
 50
0.0000
  0
INSERT
  8
21
  2
RECT
 10
43.7198
 20
11.9825
 30
0.0000
 41
0.1905
 42
0.0381
 43
1.0000
 50
0.0000
  0
INSERT
  8
21
  2
RECT
 10
44.1198
 20
11.9825
 30
0.0000
 41
0.1524
 42
0.0381
 43
1.0000
 50
0.0000
  0
INSERT
  8
21
  2
RECT
 10
45.2247
 20
11.9825
 30
0.0000
 41
0.3048
 42
0.0381
 43
1.0000
 50
0.0000
  0
INSERT
  8
21
  2
RECT
 10
46.8630
 20
11.9825
 30
0.0000
 41
0.9906
 42
0.0381
 43
1.0000
 50
0.0000
  0
INSERT
  8
21
  2
RECT
 10
48.6537
 20
11.9825
 30
0.0000
 41
0.4572
 42
0.0381
 43
1.0000
 50
0.0000
  0
INSERT
  8
21
  2
RECT
 10
42.3863
 20
12.0206
 30
0.0000
 41
0.5715
 42
0.0381
 43
1.0000
 50
0.0000
  0
INSERT
  8
21
  2
RECT
 10
43.4150
 20
12.0206
 30
0.0000
 41
0.8001
 42
0.0381
 43
1.0000
 50
0.0000
  0
INSERT
  8
21
  2
RECT
 10
44.1198
 20
12.0206
 30
0.0000
 41
0.1524
 42
0.0381
 43
1.0000
 50
0.0000
  0
INSERT
  8
21
  2
RECT
 10
45.2057
 20
12.0206
 30
0.0000
 41
0.3429
 42
0.0381
 43
1.0000
 50
0.0000
  0
INSERT
  8
21
  2
RECT
 10
46.8630
 20
12.0206
 30
0.0000
 41
1.1430
 42
0.0381
 43
1.0000
 50
0.0000
  0
INSERT
  8
21
  2
RECT
 10
48.6537
 20
12.0206
 30
0.0000
 41
0.4572
 42
0.0381
 43
1.0000
 50
0.0000
  0
INSERT
  8
21
  2
RECT
 10
42.3672
 20
12.0587
 30
0.0000
 41
0.6858
 42
0.0381
 43
1.0000
 50
0.0000
  0
INSERT
  8
21
  2
RECT
 10
43.3959
 20
12.0587
 30
0.0000
 41
0.8382
 42
0.0381
 43
1.0000
 50
0.0000
  0
INSERT
  8
21
  2
RECT
 10
44.1198
 20
12.0587
 30
0.0000
 41
0.1524
 42
0.0381
 43
1.0000
 50
0.0000
  0
INSERT
  8
21
  2
RECT
 10
45.2057
 20
12.0587
 30
0.0000
 41
0.3429
 42
0.0381
 43
1.0000
 50
0.0000
  0
INSERT
  8
21
  2
RECT
 10
46.8630
 20
12.0587
 30
0.0000
 41
1.2954
 42
0.0381
 43
1.0000
 50
0.0000
  0
INSERT
  8
21
  2
RECT
 10
48.6537
 20
12.0587
 30
0.0000
 41
0.4572
 42
0.0381
 43
1.0000
 50
0.0000
  0
INSERT
  8
21
  2
RECT
 10
42.1386
 20
12.0968
 30
0.0000
 41
0.3048
 42
0.0381
 43
1.0000
 50
0.0000
  0
INSERT
  8
21
  2
RECT
 10
42.6149
 20
12.0968
 30
0.0000
 41
0.2667
 42
0.0381
 43
1.0000
 50
0.0000
  0
INSERT
  8
21
  2
RECT
 10
43.0721
 20
12.0968
 30
0.0000
 41
0.2667
 42
0.0381
 43
1.0000
 50
0.0000
  0
INSERT
  8
21
  2
RECT
 10
43.6245
 20
12.0968
 30
0.0000
 41
0.3810
 42
0.0381
 43
1.0000
 50
0.0000
  0
INSERT
  8
21
  2
RECT
 10
44.1198
 20
12.0968
 30
0.0000
 41
0.1524
 42
0.0381
 43
1.0000
 50
0.0000
  0
INSERT
  8
21
  2
RECT
 10
45.0914
 20
12.0968
 30
0.0000
 41
0.1905
 42
0.0381
 43
1.0000
 50
0.0000
  0
INSERT
  8
21
  2
RECT
 10
46.8630
 20
12.0968
 30
0.0000
 41
1.4478
 42
0.0381
 43
1.0000
 50
0.0000
  0
INSERT
  8
21
  2
RECT
 10
48.6537
 20
12.0968
 30
0.0000
 41
0.4572
 42
0.0381
 43
1.0000
 50
0.0000
  0
INSERT
  8
21
  2
RECT
 10
42.1005
 20
12.1349
 30
0.0000
 41
0.2286
 42
0.0381
 43
1.0000
 50
0.0000
  0
INSERT
  8
21
  2
RECT
 10
42.6530
 20
12.1349
 30
0.0000
 41
0.1905
 42
0.0381
 43
1.0000
 50
0.0000
  0
INSERT
  8
21
  2
RECT
 10
43.0149
 20
12.1349
 30
0.0000
 41
0.2286
 42
0.0381
 43
1.0000
 50
0.0000
  0
INSERT
  8
21
  2
RECT
 10
43.6626
 20
12.1349
 30
0.0000
 41
0.3048
 42
0.0381
 43
1.0000
 50
0.0000
  0
INSERT
  8
21
  2
RECT
 10
44.1198
 20
12.1349
 30
0.0000
 41
0.1524
 42
0.0381
 43
1.0000
 50
0.0000
  0
INSERT
  8
21
  2
RECT
 10
45.0723
 20
12.1349
 30
0.0000
 41
0.1524
 42
0.0381
 43
1.0000
 50
0.0000
  0
INSERT
  8
21
  2
RECT
 10
46.8630
 20
12.1349
 30
0.0000
 41
1.5240
 42
0.0381
 43
1.0000
 50
0.0000
  0
INSERT
  8
21
  2
RECT
 10
48.6537
 20
12.1349
 30
0.0000
 41
0.4572
 42
0.0381
 43
1.0000
 50
0.0000
  0
INSERT
  8
21
  2
RECT
 10
42.0624
 20
12.1730
 30
0.0000
 41
0.2286
 42
0.0381
 43
1.0000
 50
0.0000
  0
INSERT
  8
21
  2
RECT
 10
42.6530
 20
12.1730
 30
0.0000
 41
0.1143
 42
0.0381
 43
1.0000
 50
0.0000
  0
INSERT
  8
21
  2
RECT
 10
42.9768
 20
12.1730
 30
0.0000
 41
0.2286
 42
0.0381
 43
1.0000
 50
0.0000
  0
INSERT
  8
21
  2
RECT
 10
43.6817
 20
12.1730
 30
0.0000
 41
0.2667
 42
0.0381
 43
1.0000
 50
0.0000
  0
INSERT
  8
21
  2
RECT
 10
44.1198
 20
12.1730
 30
0.0000
 41
0.1524
 42
0.0381
 43
1.0000
 50
0.0000
  0
INSERT
  8
21
  2
RECT
 10
45.0723
 20
12.1730
 30
0.0000
 41
0.1524
 42
0.0381
 43
1.0000
 50
0.0000
  0
INSERT
  8
21
  2
RECT
 10
46.8820
 20
12.1730
 30
0.0000
 41
1.6383
 42
0.0381
 43
1.0000
 50
0.0000
  0
INSERT
  8
21
  2
RECT
 10
48.6537
 20
12.1730
 30
0.0000
 41
0.4572
 42
0.0381
 43
1.0000
 50
0.0000
  0
INSERT
  8
21
  2
RECT
 10
42.0434
 20
12.2111
 30
0.0000
 41
0.1905
 42
0.0381
 43
1.0000
 50
0.0000
  0
INSERT
  8
21
  2
RECT
 10
42.9578
 20
12.2111
 30
0.0000
 41
0.1905
 42
0.0381
 43
1.0000
 50
0.0000
  0
INSERT
  8
21
  2
RECT
 10
43.7007
 20
12.2111
 30
0.0000
 41
0.2286
 42
0.0381
 43
1.0000
 50
0.0000
  0
INSERT
  8
21
  2
RECT
 10
44.1198
 20
12.2111
 30
0.0000
 41
0.1524
 42
0.0381
 43
1.0000
 50
0.0000
  0
INSERT
  8
21
  2
RECT
 10
45.0723
 20
12.2111
 30
0.0000
 41
0.1524
 42
0.0381
 43
1.0000
 50
0.0000
  0
INSERT
  8
21
  2
RECT
 10
46.8820
 20
12.2111
 30
0.0000
 41
1.7145
 42
0.0381
 43
1.0000
 50
0.0000
  0
INSERT
  8
21
  2
RECT
 10
48.6537
 20
12.2111
 30
0.0000
 41
0.4572
 42
0.0381
 43
1.0000
 50
0.0000
  0
INSERT
  8
21
  2
RECT
 10
42.0053
 20
12.2492
 30
0.0000
 41
0.1905
 42
0.0381
 43
1.0000
 50
0.0000
  0
INSERT
  8
21
  2
RECT
 10
42.9387
 20
12.2492
 30
0.0000
 41
0.1524
 42
0.0381
 43
1.0000
 50
0.0000
  0
INSERT
  8
21
  2
RECT
 10
43.7007
 20
12.2492
 30
0.0000
 41
0.2286
 42
0.0381
 43
1.0000
 50
0.0000
  0
INSERT
  8
21
  2
RECT
 10
44.1198
 20
12.2492
 30
0.0000
 41
0.1524
 42
0.0381
 43
1.0000
 50
0.0000
  0
INSERT
  8
21
  2
RECT
 10
45.0723
 20
12.2492
 30
0.0000
 41
0.1524
 42
0.0381
 43
1.0000
 50
0.0000
  0
INSERT
  8
21
  2
RECT
 10
46.8820
 20
12.2492
 30
0.0000
 41
1.7907
 42
0.0381
 43
1.0000
 50
0.0000
  0
INSERT
  8
21
  2
RECT
 10
48.6537
 20
12.2492
 30
0.0000
 41
0.4572
 42
0.0381
 43
1.0000
 50
0.0000
  0
INSERT
  8
21
  2
RECT
 10
41.9862
 20
12.2873
 30
0.0000
 41
0.1524
 42
0.0381
 43
1.0000
 50
0.0000
  0
INSERT
  8
21
  2
RECT
 10
42.9197
 20
12.2873
 30
0.0000
 41
0.1905
 42
0.0381
 43
1.0000
 50
0.0000
  0
INSERT
  8
21
  2
RECT
 10
43.7198
 20
12.2873
 30
0.0000
 41
0.1905
 42
0.0381
 43
1.0000
 50
0.0000
  0
INSERT
  8
21
  2
RECT
 10
44.1198
 20
12.2873
 30
0.0000
 41
0.1524
 42
0.0381
 43
1.0000
 50
0.0000
  0
INSERT
  8
21
  2
RECT
 10
45.0723
 20
12.2873
 30
0.0000
 41
0.1524
 42
0.0381
 43
1.0000
 50
0.0000
  0
INSERT
  8
21
  2
RECT
 10
46.8820
 20
12.2873
 30
0.0000
 41
1.8669
 42
0.0381
 43
1.0000
 50
0.0000
  0
INSERT
  8
21
  2
RECT
 10
48.6537
 20
12.2873
 30
0.0000
 41
0.4572
 42
0.0381
 43
1.0000
 50
0.0000
  0
INSERT
  8
21
  2
RECT
 10
41.9862
 20
12.3254
 30
0.0000
 41
0.1524
 42
0.0381
 43
1.0000
 50
0.0000
  0
INSERT
  8
21
  2
RECT
 10
42.9197
 20
12.3254
 30
0.0000
 41
0.1905
 42
0.0381
 43
1.0000
 50
0.0000
  0
INSERT
  8
21
  2
RECT
 10
43.7198
 20
12.3254
 30
0.0000
 41
0.1905
 42
0.0381
 43
1.0000
 50
0.0000
  0
INSERT
  8
21
  2
RECT
 10
44.1198
 20
12.3254
 30
0.0000
 41
0.1524
 42
0.0381
 43
1.0000
 50
0.0000
  0
INSERT
  8
21
  2
RECT
 10
45.0723
 20
12.3254
 30
0.0000
 41
0.1524
 42
0.0381
 43
1.0000
 50
0.0000
  0
INSERT
  8
21
  2
RECT
 10
46.8630
 20
12.3254
 30
0.0000
 41
1.9050
 42
0.0381
 43
1.0000
 50
0.0000
  0
INSERT
  8
21
  2
RECT
 10
48.6537
 20
12.3254
 30
0.0000
 41
0.4572
 42
0.0381
 43
1.0000
 50
0.0000
  0
INSERT
  8
21
  2
RECT
 10
41.9862
 20
12.3635
 30
0.0000
 41
0.1524
 42
0.0381
 43
1.0000
 50
0.0000
  0
INSERT
  8
21
  2
RECT
 10
42.9006
 20
12.3635
 30
0.0000
 41
0.1524
 42
0.0381
 43
1.0000
 50
0.0000
  0
INSERT
  8
21
  2
RECT
 10
43.7198
 20
12.3635
 30
0.0000
 41
0.1905
 42
0.0381
 43
1.0000
 50
0.0000
  0
INSERT
  8
21
  2
RECT
 10
44.1198
 20
12.3635
 30
0.0000
 41
0.1524
 42
0.0381
 43
1.0000
 50
0.0000
  0
INSERT
  8
21
  2
RECT
 10
45.0723
 20
12.3635
 30
0.0000
 41
0.1524
 42
0.0381
 43
1.0000
 50
0.0000
  0
INSERT
  8
21
  2
RECT
 10
46.2534
 20
12.3635
 30
0.0000
 41
0.7620
 42
0.0381
 43
1.0000
 50
0.0000
  0
INSERT
  8
21
  2
RECT
 10
47.4535
 20
12.3635
 30
0.0000
 41
0.8001
 42
0.0381
 43
1.0000
 50
0.0000
  0
INSERT
  8
21
  2
RECT
 10
48.6537
 20
12.3635
 30
0.0000
 41
0.4572
 42
0.0381
 43
1.0000
 50
0.0000
  0
INSERT
  8
21
  2
RECT
 10
41.9862
 20
12.4016
 30
0.0000
 41
0.1524
 42
0.0381
 43
1.0000
 50
0.0000
  0
INSERT
  8
21
  2
RECT
 10
42.9006
 20
12.4016
 30
0.0000
 41
0.1524
 42
0.0381
 43
1.0000
 50
0.0000
  0
INSERT
  8
21
  2
RECT
 10
43.7198
 20
12.4016
 30
0.0000
 41
0.1905
 42
0.0381
 43
1.0000
 50
0.0000
  0
INSERT
  8
21
  2
RECT
 10
44.1198
 20
12.4016
 30
0.0000
 41
0.1524
 42
0.0381
 43
1.0000
 50
0.0000
  0
INSERT
  8
21
  2
RECT
 10
45.0723
 20
12.4016
 30
0.0000
 41
0.1524
 42
0.0381
 43
1.0000
 50
0.0000
  0
INSERT
  8
21
  2
RECT
 10
46.1772
 20
12.4016
 30
0.0000
 41
0.6858
 42
0.0381
 43
1.0000
 50
0.0000
  0
INSERT
  8
21
  2
RECT
 10
47.5297
 20
12.4016
 30
0.0000
 41
0.7239
 42
0.0381
 43
1.0000
 50
0.0000
  0
INSERT
  8
21
  2
RECT
 10
48.6537
 20
12.4016
 30
0.0000
 41
0.4572
 42
0.0381
 43
1.0000
 50
0.0000
  0
INSERT
  8
21
  2
RECT
 10
41.9862
 20
12.4397
 30
0.0000
 41
0.1524
 42
0.0381
 43
1.0000
 50
0.0000
  0
INSERT
  8
21
  2
RECT
 10
42.9006
 20
12.4397
 30
0.0000
 41
0.1524
 42
0.0381
 43
1.0000
 50
0.0000
  0
INSERT
  8
21
  2
RECT
 10
43.7198
 20
12.4397
 30
0.0000
 41
0.1905
 42
0.0381
 43
1.0000
 50
0.0000
  0
INSERT
  8
21
  2
RECT
 10
44.1198
 20
12.4397
 30
0.0000
 41
0.1524
 42
0.0381
 43
1.0000
 50
0.0000
  0
INSERT
  8
21
  2
RECT
 10
45.0723
 20
12.4397
 30
0.0000
 41
0.1524
 42
0.0381
 43
1.0000
 50
0.0000
  0
INSERT
  8
21
  2
RECT
 10
46.1391
 20
12.4397
 30
0.0000
 41
0.6096
 42
0.0381
 43
1.0000
 50
0.0000
  0
INSERT
  8
21
  2
RECT
 10
47.5678
 20
12.4397
 30
0.0000
 41
0.6477
 42
0.0381
 43
1.0000
 50
0.0000
  0
INSERT
  8
21
  2
RECT
 10
48.6537
 20
12.4397
 30
0.0000
 41
0.4572
 42
0.0381
 43
1.0000
 50
0.0000
  0
INSERT
  8
21
  2
RECT
 10
41.9862
 20
12.4778
 30
0.0000
 41
0.1524
 42
0.0381
 43
1.0000
 50
0.0000
  0
INSERT
  8
21
  2
RECT
 10
42.9197
 20
12.4778
 30
0.0000
 41
0.1905
 42
0.0381
 43
1.0000
 50
0.0000
  0
INSERT
  8
21
  2
RECT
 10
43.7007
 20
12.4778
 30
0.0000
 41
0.1524
 42
0.0381
 43
1.0000
 50
0.0000
  0
INSERT
  8
21
  2
RECT
 10
44.1198
 20
12.4778
 30
0.0000
 41
0.1524
 42
0.0381
 43
1.0000
 50
0.0000
  0
INSERT
  8
21
  2
RECT
 10
45.0723
 20
12.4778
 30
0.0000
 41
0.1524
 42
0.0381
 43
1.0000
 50
0.0000
  0
INSERT
  8
21
  2
RECT
 10
46.0819
 20
12.4778
 30
0.0000
 41
0.5715
 42
0.0381
 43
1.0000
 50
0.0000
  0
INSERT
  8
21
  2
RECT
 10
47.6250
 20
12.4778
 30
0.0000
 41
0.6096
 42
0.0381
 43
1.0000
 50
0.0000
  0
INSERT
  8
21
  2
RECT
 10
48.6537
 20
12.4778
 30
0.0000
 41
0.4572
 42
0.0381
 43
1.0000
 50
0.0000
  0
INSERT
  8
21
  2
RECT
 10
41.9862
 20
12.5159
 30
0.0000
 41
0.1524
 42
0.0381
 43
1.0000
 50
0.0000
  0
INSERT
  8
21
  2
RECT
 10
42.9197
 20
12.5159
 30
0.0000
 41
0.1905
 42
0.0381
 43
1.0000
 50
0.0000
  0
INSERT
  8
21
  2
RECT
 10
43.7007
 20
12.5159
 30
0.0000
 41
0.1524
 42
0.0381
 43
1.0000
 50
0.0000
  0
INSERT
  8
21
  2
RECT
 10
44.1198
 20
12.5159
 30
0.0000
 41
0.1524
 42
0.0381
 43
1.0000
 50
0.0000
  0
INSERT
  8
21
  2
RECT
 10
45.0723
 20
12.5159
 30
0.0000
 41
0.1524
 42
0.0381
 43
1.0000
 50
0.0000
  0
INSERT
  8
21
  2
RECT
 10
46.0629
 20
12.5159
 30
0.0000
 41
0.5334
 42
0.0381
 43
1.0000
 50
0.0000
  0
INSERT
  8
21
  2
RECT
 10
47.6441
 20
12.5159
 30
0.0000
 41
0.5715
 42
0.0381
 43
1.0000
 50
0.0000
  0
INSERT
  8
21
  2
RECT
 10
48.6537
 20
12.5159
 30
0.0000
 41
0.4572
 42
0.0381
 43
1.0000
 50
0.0000
  0
INSERT
  8
21
  2
RECT
 10
42.0053
 20
12.5540
 30
0.0000
 41
0.1905
 42
0.0381
 43
1.0000
 50
0.0000
  0
INSERT
  8
21
  2
RECT
 10
42.9387
 20
12.5540
 30
0.0000
 41
0.1524
 42
0.0381
 43
1.0000
 50
0.0000
  0
INSERT
  8
21
  2
RECT
 10
43.6817
 20
12.5540
 30
0.0000
 41
0.1905
 42
0.0381
 43
1.0000
 50
0.0000
  0
INSERT
  8
21
  2
RECT
 10
44.1389
 20
12.5540
 30
0.0000
 41
0.1905
 42
0.0381
 43
1.0000
 50
0.0000
  0
INSERT
  8
21
  2
RECT
 10
45.0723
 20
12.5540
 30
0.0000
 41
0.1524
 42
0.0381
 43
1.0000
 50
0.0000
  0
INSERT
  8
21
  2
RECT
 10
46.0248
 20
12.5540
 30
0.0000
 41
0.5334
 42
0.0381
 43
1.0000
 50
0.0000
  0
INSERT
  8
21
  2
RECT
 10
47.6631
 20
12.5540
 30
0.0000
 41
0.5334
 42
0.0381
 43
1.0000
 50
0.0000
  0
INSERT
  8
21
  2
RECT
 10
48.6537
 20
12.5540
 30
0.0000
 41
0.4572
 42
0.0381
 43
1.0000
 50
0.0000
  0
INSERT
  8
21
  2
RECT
 10
42.0243
 20
12.5921
 30
0.0000
 41
0.2286
 42
0.0381
 43
1.0000
 50
0.0000
  0
INSERT
  8
21
  2
RECT
 10
42.9578
 20
12.5921
 30
0.0000
 41
0.1905
 42
0.0381
 43
1.0000
 50
0.0000
  0
INSERT
  8
21
  2
RECT
 10
43.6817
 20
12.5921
 30
0.0000
 41
0.1905
 42
0.0381
 43
1.0000
 50
0.0000
  0
INSERT
  8
21
  2
RECT
 10
44.1389
 20
12.5921
 30
0.0000
 41
0.1905
 42
0.0381
 43
1.0000
 50
0.0000
  0
INSERT
  8
21
  2
RECT
 10
45.0723
 20
12.5921
 30
0.0000
 41
0.1524
 42
0.0381
 43
1.0000
 50
0.0000
  0
INSERT
  8
21
  2
RECT
 10
46.0057
 20
12.5921
 30
0.0000
 41
0.4953
 42
0.0381
 43
1.0000
 50
0.0000
  0
INSERT
  8
21
  2
RECT
 10
47.7012
 20
12.5921
 30
0.0000
 41
0.5334
 42
0.0381
 43
1.0000
 50
0.0000
  0
INSERT
  8
21
  2
RECT
 10
48.6537
 20
12.5921
 30
0.0000
 41
0.4572
 42
0.0381
 43
1.0000
 50
0.0000
  0
INSERT
  8
21
  2
RECT
 10
42.0434
 20
12.6302
 30
0.0000
 41
0.1905
 42
0.0381
 43
1.0000
 50
0.0000
  0
INSERT
  8
21
  2
RECT
 10
42.6530
 20
12.6302
 30
0.0000
 41
0.0381
 42
0.0381
 43
1.0000
 50
0.0000
  0
INSERT
  8
21
  2
RECT
 10
42.9768
 20
12.6302
 30
0.0000
 41
0.2286
 42
0.0381
 43
1.0000
 50
0.0000
  0
INSERT
  8
21
  2
RECT
 10
43.6436
 20
12.6302
 30
0.0000
 41
0.1905
 42
0.0381
 43
1.0000
 50
0.0000
  0
INSERT
  8
21
  2
RECT
 10
44.1579
 20
12.6302
 30
0.0000
 41
0.2286
 42
0.0381
 43
1.0000
 50
0.0000
  0
INSERT
  8
21
  2
RECT
 10
45.0723
 20
12.6302
 30
0.0000
 41
0.1524
 42
0.0381
 43
1.0000
 50
0.0000
  0
INSERT
  8
21
  2
RECT
 10
45.9676
 20
12.6302
 30
0.0000
 41
0.4953
 42
0.0381
 43
1.0000
 50
0.0000
  0
INSERT
  8
21
  2
RECT
 10
47.7012
 20
12.6302
 30
0.0000
 41
0.5334
 42
0.0381
 43
1.0000
 50
0.0000
  0
INSERT
  8
21
  2
RECT
 10
48.6537
 20
12.6302
 30
0.0000
 41
0.4572
 42
0.0381
 43
1.0000
 50
0.0000
  0
INSERT
  8
21
  2
RECT
 10
42.0815
 20
12.6683
 30
0.0000
 41
0.1905
 42
0.0381
 43
1.0000
 50
0.0000
  0
INSERT
  8
21
  2
RECT
 10
42.6339
 20
12.6683
 30
0.0000
 41
0.1524
 42
0.0381
 43
1.0000
 50
0.0000
  0
INSERT
  8
21
  2
RECT
 10
43.0149
 20
12.6683
 30
0.0000
 41
0.2286
 42
0.0381
 43
1.0000
 50
0.0000
  0
INSERT
  8
21
  2
RECT
 10
43.6245
 20
12.6683
 30
0.0000
 41
0.2286
 42
0.0381
 43
1.0000
 50
0.0000
  0
INSERT
  8
21
  2
RECT
 10
44.1770
 20
12.6683
 30
0.0000
 41
0.2667
 42
0.0381
 43
1.0000
 50
0.0000
  0
INSERT
  8
21
  2
RECT
 10
45.0723
 20
12.6683
 30
0.0000
 41
0.1524
 42
0.0381
 43
1.0000
 50
0.0000
  0
INSERT
  8
21
  2
RECT
 10
45.9676
 20
12.6683
 30
0.0000
 41
0.4953
 42
0.0381
 43
1.0000
 50
0.0000
  0
INSERT
  8
21
  2
RECT
 10
47.7203
 20
12.6683
 30
0.0000
 41
0.4953
 42
0.0381
 43
1.0000
 50
0.0000
  0
INSERT
  8
21
  2
RECT
 10
48.6537
 20
12.6683
 30
0.0000
 41
0.4572
 42
0.0381
 43
1.0000
 50
0.0000
  0
INSERT
  8
21
  2
RECT
 10
42.1196
 20
12.7064
 30
0.0000
 41
0.2667
 42
0.0381
 43
1.0000
 50
0.0000
  0
INSERT
  8
21
  2
RECT
 10
42.6339
 20
12.7064
 30
0.0000
 41
0.2286
 42
0.0381
 43
1.0000
 50
0.0000
  0
INSERT
  8
21
  2
RECT
 10
43.0721
 20
12.7064
 30
0.0000
 41
0.2667
 42
0.0381
 43
1.0000
 50
0.0000
  0
INSERT
  8
21
  2
RECT
 10
43.5674
 20
12.7064
 30
0.0000
 41
0.2667
 42
0.0381
 43
1.0000
 50
0.0000
  0
INSERT
  8
21
  2
RECT
 10
44.2151
 20
12.7064
 30
0.0000
 41
0.3429
 42
0.0381
 43
1.0000
 50
0.0000
  0
INSERT
  8
21
  2
RECT
 10
44.6723
 20
12.7064
 30
0.0000
 41
0.0381
 42
0.0381
 43
1.0000
 50
0.0000
  0
INSERT
  8
21
  2
RECT
 10
45.0533
 20
12.7064
 30
0.0000
 41
0.1905
 42
0.0381
 43
1.0000
 50
0.0000
  0
INSERT
  8
21
  2
RECT
 10
45.9486
 20
12.7064
 30
0.0000
 41
0.4572
 42
0.0381
 43
1.0000
 50
0.0000
  0
INSERT
  8
21
  2
RECT
 10
47.7203
 20
12.7064
 30
0.0000
 41
0.4953
 42
0.0381
 43
1.0000
 50
0.0000
  0
INSERT
  8
21
  2
RECT
 10
48.6537
 20
12.7064
 30
0.0000
 41
0.4572
 42
0.0381
 43
1.0000
 50
0.0000
  0
INSERT
  8
21
  2
RECT
 10
42.3863
 20
12.7445
 30
0.0000
 41
0.7239
 42
0.0381
 43
1.0000
 50
0.0000
  0
INSERT
  8
21
  2
RECT
 10
43.3197
 20
12.7445
 30
0.0000
 41
0.6858
 42
0.0381
 43
1.0000
 50
0.0000
  0
INSERT
  8
21
  2
RECT
 10
44.3865
 20
12.7445
 30
0.0000
 41
0.6858
 42
0.0381
 43
1.0000
 50
0.0000
  0
INSERT
  8
21
  2
RECT
 10
45.0723
 20
12.7445
 30
0.0000
 41
0.5334
 42
0.0381
 43
1.0000
 50
0.0000
  0
INSERT
  8
21
  2
RECT
 10
45.9486
 20
12.7445
 30
0.0000
 41
0.4572
 42
0.0381
 43
1.0000
 50
0.0000
  0
INSERT
  8
21
  2
RECT
 10
47.7584
 20
12.7445
 30
0.0000
 41
0.4953
 42
0.0381
 43
1.0000
 50
0.0000
  0
INSERT
  8
21
  2
RECT
 10
48.6537
 20
12.7445
 30
0.0000
 41
0.4572
 42
0.0381
 43
1.0000
 50
0.0000
  0
INSERT
  8
21
  2
RECT
 10
42.3863
 20
12.7826
 30
0.0000
 41
0.6477
 42
0.0381
 43
1.0000
 50
0.0000
  0
INSERT
  8
21
  2
RECT
 10
43.3197
 20
12.7826
 30
0.0000
 41
0.6096
 42
0.0381
 43
1.0000
 50
0.0000
  0
INSERT
  8
21
  2
RECT
 10
44.4056
 20
12.7826
 30
0.0000
 41
0.7239
 42
0.0381
 43
1.0000
 50
0.0000
  0
INSERT
  8
21
  2
RECT
 10
45.0914
 20
12.7826
 30
0.0000
 41
0.5715
 42
0.0381
 43
1.0000
 50
0.0000
  0
INSERT
  8
21
  2
RECT
 10
45.9105
 20
12.7826
 30
0.0000
 41
0.4572
 42
0.0381
 43
1.0000
 50
0.0000
  0
INSERT
  8
21
  2
RECT
 10
47.7584
 20
12.7826
 30
0.0000
 41
0.4953
 42
0.0381
 43
1.0000
 50
0.0000
  0
INSERT
  8
21
  2
RECT
 10
48.6537
 20
12.7826
 30
0.0000
 41
0.4572
 42
0.0381
 43
1.0000
 50
0.0000
  0
INSERT
  8
21
  2
RECT
 10
42.3863
 20
12.8207
 30
0.0000
 41
0.4953
 42
0.0381
 43
1.0000
 50
0.0000
  0
INSERT
  8
21
  2
RECT
 10
43.3197
 20
12.8207
 30
0.0000
 41
0.5334
 42
0.0381
 43
1.0000
 50
0.0000
  0
INSERT
  8
21
  2
RECT
 10
44.1198
 20
12.8207
 30
0.0000
 41
0.1524
 42
0.0381
 43
1.0000
 50
0.0000
  0
INSERT
  8
21
  2
RECT
 10
44.4818
 20
12.8207
 30
0.0000
 41
0.4953
 42
0.0381
 43
1.0000
 50
0.0000
  0
INSERT
  8
21
  2
RECT
 10
45.0914
 20
12.8207
 30
0.0000
 41
0.5715
 42
0.0381
 43
1.0000
 50
0.0000
  0
INSERT
  8
21
  2
RECT
 10
45.9105
 20
12.8207
 30
0.0000
 41
0.4572
 42
0.0381
 43
1.0000
 50
0.0000
  0
INSERT
  8
21
  2
RECT
 10
47.7584
 20
12.8207
 30
0.0000
 41
0.4953
 42
0.0381
 43
1.0000
 50
0.0000
  0
INSERT
  8
21
  2
RECT
 10
48.6537
 20
12.8207
 30
0.0000
 41
0.4572
 42
0.0381
 43
1.0000
 50
0.0000
  0
INSERT
  8
21
  2
RECT
 10
42.3863
 20
12.8588
 30
0.0000
 41
0.3429
 42
0.0381
 43
1.0000
 50
0.0000
  0
INSERT
  8
21
  2
RECT
 10
43.3197
 20
12.8588
 30
0.0000
 41
0.3810
 42
0.0381
 43
1.0000
 50
0.0000
  0
INSERT
  8
21
  2
RECT
 10
44.1198
 20
12.8588
 30
0.0000
 41
0.1524
 42
0.0381
 43
1.0000
 50
0.0000
  0
INSERT
  8
21
  2
RECT
 10
44.5008
 20
12.8588
 30
0.0000
 41
0.3810
 42
0.0381
 43
1.0000
 50
0.0000
  0
INSERT
  8
21
  2
RECT
 10
45.0723
 20
12.8588
 30
0.0000
 41
0.5334
 42
0.0381
 43
1.0000
 50
0.0000
  0
INSERT
  8
21
  2
RECT
 10
45.9105
 20
12.8588
 30
0.0000
 41
0.4572
 42
0.0381
 43
1.0000
 50
0.0000
  0
INSERT
  8
21
  2
RECT
 10
47.7584
 20
12.8588
 30
0.0000
 41
0.4953
 42
0.0381
 43
1.0000
 50
0.0000
  0
INSERT
  8
21
  2
RECT
 10
48.6537
 20
12.8588
 30
0.0000
 41
0.4572
 42
0.0381
 43
1.0000
 50
0.0000
  0
INSERT
  8
21
  2
RECT
 10
44.1008
 20
12.8969
 30
0.0000
 41
0.0381
 42
0.0381
 43
1.0000
 50
0.0000
  0
INSERT
  8
21
  2
RECT
 10
44.5199
 20
12.8969
 30
0.0000
 41
0.1143
 42
0.0381
 43
1.0000
 50
0.0000
  0
INSERT
  8
21
  2
RECT
 10
45.0533
 20
12.8969
 30
0.0000
 41
0.1905
 42
0.0381
 43
1.0000
 50
0.0000
  0
INSERT
  8
21
  2
RECT
 10
45.9105
 20
12.8969
 30
0.0000
 41
0.4572
 42
0.0381
 43
1.0000
 50
0.0000
  0
INSERT
  8
21
  2
RECT
 10
47.7774
 20
12.8969
 30
0.0000
 41
0.4572
 42
0.0381
 43
1.0000
 50
0.0000
  0
INSERT
  8
21
  2
RECT
 10
48.6537
 20
12.8969
 30
0.0000
 41
0.4572
 42
0.0381
 43
1.0000
 50
0.0000
  0
INSERT
  8
21
  2
RECT
 10
45.0723
 20
12.9350
 30
0.0000
 41
0.1524
 42
0.0381
 43
1.0000
 50
0.0000
  0
INSERT
  8
21
  2
RECT
 10
45.9105
 20
12.9350
 30
0.0000
 41
0.4572
 42
0.0381
 43
1.0000
 50
0.0000
  0
INSERT
  8
21
  2
RECT
 10
47.7774
 20
12.9350
 30
0.0000
 41
0.4572
 42
0.0381
 43
1.0000
 50
0.0000
  0
INSERT
  8
21
  2
RECT
 10
48.6537
 20
12.9350
 30
0.0000
 41
0.4572
 42
0.0381
 43
1.0000
 50
0.0000
  0
INSERT
  8
21
  2
RECT
 10
45.0723
 20
12.9731
 30
0.0000
 41
0.1524
 42
0.0381
 43
1.0000
 50
0.0000
  0
INSERT
  8
21
  2
RECT
 10
45.9105
 20
12.9731
 30
0.0000
 41
0.4572
 42
0.0381
 43
1.0000
 50
0.0000
  0
INSERT
  8
21
  2
RECT
 10
47.7584
 20
12.9731
 30
0.0000
 41
0.4191
 42
0.0381
 43
1.0000
 50
0.0000
  0
INSERT
  8
21
  2
RECT
 10
48.6537
 20
12.9731
 30
0.0000
 41
0.4572
 42
0.0381
 43
1.0000
 50
0.0000
  0
INSERT
  8
21
  2
RECT
 10
45.0723
 20
13.0112
 30
0.0000
 41
0.1524
 42
0.0381
 43
1.0000
 50
0.0000
  0
INSERT
  8
21
  2
RECT
 10
45.9105
 20
13.0112
 30
0.0000
 41
0.4572
 42
0.0381
 43
1.0000
 50
0.0000
  0
INSERT
  8
21
  2
RECT
 10
47.7393
 20
13.0112
 30
0.0000
 41
0.4572
 42
0.0381
 43
1.0000
 50
0.0000
  0
INSERT
  8
21
  2
RECT
 10
48.6537
 20
13.0112
 30
0.0000
 41
0.4572
 42
0.0381
 43
1.0000
 50
0.0000
  0
INSERT
  8
21
  2
RECT
 10
45.0723
 20
13.0493
 30
0.0000
 41
0.1524
 42
0.0381
 43
1.0000
 50
0.0000
  0
INSERT
  8
21
  2
RECT
 10
45.9105
 20
13.0493
 30
0.0000
 41
0.4572
 42
0.0381
 43
1.0000
 50
0.0000
  0
INSERT
  8
21
  2
RECT
 10
47.7393
 20
13.0493
 30
0.0000
 41
0.4572
 42
0.0381
 43
1.0000
 50
0.0000
  0
INSERT
  8
21
  2
RECT
 10
48.6537
 20
13.0493
 30
0.0000
 41
0.4572
 42
0.0381
 43
1.0000
 50
0.0000
  0
INSERT
  8
21
  2
RECT
 10
45.0723
 20
13.0874
 30
0.0000
 41
0.1524
 42
0.0381
 43
1.0000
 50
0.0000
  0
INSERT
  8
21
  2
RECT
 10
45.9105
 20
13.0874
 30
0.0000
 41
0.4572
 42
0.0381
 43
1.0000
 50
0.0000
  0
INSERT
  8
21
  2
RECT
 10
47.7393
 20
13.0874
 30
0.0000
 41
0.4572
 42
0.0381
 43
1.0000
 50
0.0000
  0
INSERT
  8
21
  2
RECT
 10
48.6537
 20
13.0874
 30
0.0000
 41
0.4572
 42
0.0381
 43
1.0000
 50
0.0000
  0
INSERT
  8
21
  2
RECT
 10
45.0723
 20
13.1255
 30
0.0000
 41
0.1524
 42
0.0381
 43
1.0000
 50
0.0000
  0
INSERT
  8
21
  2
RECT
 10
45.9295
 20
13.1255
 30
0.0000
 41
0.4191
 42
0.0381
 43
1.0000
 50
0.0000
  0
INSERT
  8
21
  2
RECT
 10
47.7393
 20
13.1255
 30
0.0000
 41
0.4572
 42
0.0381
 43
1.0000
 50
0.0000
  0
INSERT
  8
21
  2
RECT
 10
48.6537
 20
13.1255
 30
0.0000
 41
0.4572
 42
0.0381
 43
1.0000
 50
0.0000
  0
INSERT
  8
21
  2
RECT
 10
45.0723
 20
13.1636
 30
0.0000
 41
0.1524
 42
0.0381
 43
1.0000
 50
0.0000
  0
INSERT
  8
21
  2
RECT
 10
45.9486
 20
13.1636
 30
0.0000
 41
0.4572
 42
0.0381
 43
1.0000
 50
0.0000
  0
INSERT
  8
21
  2
RECT
 10
47.7012
 20
13.1636
 30
0.0000
 41
0.4572
 42
0.0381
 43
1.0000
 50
0.0000
  0
INSERT
  8
21
  2
RECT
 10
48.6537
 20
13.1636
 30
0.0000
 41
0.4572
 42
0.0381
 43
1.0000
 50
0.0000
  0
INSERT
  8
21
  2
RECT
 10
45.0533
 20
13.2017
 30
0.0000
 41
0.1143
 42
0.0381
 43
1.0000
 50
0.0000
  0
INSERT
  8
21
  2
RECT
 10
45.9486
 20
13.2017
 30
0.0000
 41
0.4572
 42
0.0381
 43
1.0000
 50
0.0000
  0
INSERT
  8
21
  2
RECT
 10
47.7012
 20
13.2017
 30
0.0000
 41
0.4572
 42
0.0381
 43
1.0000
 50
0.0000
  0
INSERT
  8
21
  2
RECT
 10
48.6537
 20
13.2017
 30
0.0000
 41
0.4572
 42
0.0381
 43
1.0000
 50
0.0000
  0
INSERT
  8
21
  2
RECT
 10
45.9676
 20
13.2398
 30
0.0000
 41
0.4953
 42
0.0381
 43
1.0000
 50
0.0000
  0
INSERT
  8
21
  2
RECT
 10
47.6631
 20
13.2398
 30
0.0000
 41
0.4572
 42
0.0381
 43
1.0000
 50
0.0000
  0
INSERT
  8
21
  2
RECT
 10
48.6537
 20
13.2398
 30
0.0000
 41
0.4572
 42
0.0381
 43
1.0000
 50
0.0000
  0
INSERT
  8
21
  2
RECT
 10
45.9867
 20
13.2779
 30
0.0000
 41
0.4572
 42
0.0381
 43
1.0000
 50
0.0000
  0
INSERT
  8
21
  2
RECT
 10
47.6441
 20
13.2779
 30
0.0000
 41
0.4953
 42
0.0381
 43
1.0000
 50
0.0000
  0
INSERT
  8
21
  2
RECT
 10
48.6537
 20
13.2779
 30
0.0000
 41
0.4572
 42
0.0381
 43
1.0000
 50
0.0000
  0
INSERT
  8
21
  2
RECT
 10
46.0057
 20
13.3160
 30
0.0000
 41
0.4953
 42
0.0381
 43
1.0000
 50
0.0000
  0
INSERT
  8
21
  2
RECT
 10
47.6059
 20
13.3160
 30
0.0000
 41
0.4953
 42
0.0381
 43
1.0000
 50
0.0000
  0
INSERT
  8
21
  2
RECT
 10
48.6537
 20
13.3160
 30
0.0000
 41
0.4572
 42
0.0381
 43
1.0000
 50
0.0000
  0
INSERT
  8
21
  2
RECT
 10
46.0438
 20
13.3541
 30
0.0000
 41
0.4953
 42
0.0381
 43
1.0000
 50
0.0000
  0
INSERT
  8
21
  2
RECT
 10
47.5678
 20
13.3541
 30
0.0000
 41
0.4953
 42
0.0381
 43
1.0000
 50
0.0000
  0
INSERT
  8
21
  2
RECT
 10
48.6537
 20
13.3541
 30
0.0000
 41
0.4572
 42
0.0381
 43
1.0000
 50
0.0000
  0
INSERT
  8
21
  2
RECT
 10
46.0629
 20
13.3922
 30
0.0000
 41
0.5334
 42
0.0381
 43
1.0000
 50
0.0000
  0
INSERT
  8
21
  2
RECT
 10
47.5107
 20
13.3922
 30
0.0000
 41
0.5334
 42
0.0381
 43
1.0000
 50
0.0000
  0
INSERT
  8
21
  2
RECT
 10
48.6537
 20
13.3922
 30
0.0000
 41
0.4572
 42
0.0381
 43
1.0000
 50
0.0000
  0
INSERT
  8
21
  2
RECT
 10
46.1010
 20
13.4303
 30
0.0000
 41
0.5334
 42
0.0381
 43
1.0000
 50
0.0000
  0
INSERT
  8
21
  2
RECT
 10
47.4916
 20
13.4303
 30
0.0000
 41
0.6477
 42
0.0381
 43
1.0000
 50
0.0000
  0
INSERT
  8
21
  2
RECT
 10
48.6537
 20
13.4303
 30
0.0000
 41
0.5334
 42
0.0381
 43
1.0000
 50
0.0000
  0
INSERT
  8
21
  2
RECT
 10
33.1089
 20
13.4684
 30
0.0000
 41
0.5334
 42
0.0381
 43
1.0000
 50
0.0000
  0
INSERT
  8
21
  2
RECT
 10
34.5567
 20
13.4684
 30
0.0000
 41
0.7620
 42
0.0381
 43
1.0000
 50
0.0000
  0
INSERT
  8
21
  2
RECT
 10
35.8331
 20
13.4684
 30
0.0000
 41
1.4859
 42
0.0381
 43
1.0000
 50
0.0000
  0
INSERT
  8
21
  2
RECT
 10
37.2428
 20
13.4684
 30
0.0000
 41
0.4953
 42
0.0381
 43
1.0000
 50
0.0000
  0
INSERT
  8
21
  2
RECT
 10
39.1287
 20
13.4684
 30
0.0000
 41
0.7620
 42
0.0381
 43
1.0000
 50
0.0000
  0
INSERT
  8
21
  2
RECT
 10
40.0050
 20
13.4684
 30
0.0000
 41
0.5334
 42
0.0381
 43
1.0000
 50
0.0000
  0
INSERT
  8
21
  2
RECT
 10
41.5671
 20
13.4684
 30
0.0000
 41
0.2286
 42
0.0381
 43
1.0000
 50
0.0000
  0
INSERT
  8
21
  2
RECT
 10
42.2339
 20
13.4684
 30
0.0000
 41
0.6477
 42
0.0381
 43
1.0000
 50
0.0000
  0
INSERT
  8
21
  2
RECT
 10
43.7198
 20
13.4684
 30
0.0000
 41
1.9431
 42
0.0381
 43
1.0000
 50
0.0000
  0
INSERT
  8
21
  2
RECT
 10
45.5866
 20
13.4684
 30
0.0000
 41
1.6383
 42
0.0381
 43
1.0000
 50
0.0000
  0
INSERT
  8
21
  2
RECT
 10
46.5772
 20
13.4684
 30
0.0000
 41
0.1143
 42
0.0381
 43
1.0000
 50
0.0000
  0
INSERT
  8
21
  2
RECT
 10
47.9870
 20
13.4684
 30
0.0000
 41
2.0193
 42
0.0381
 43
1.0000
 50
0.0000
  0
INSERT
  8
21
  2
RECT
 10
33.1089
 20
13.5065
 30
0.0000
 41
0.5334
 42
0.0381
 43
1.0000
 50
0.0000
  0
INSERT
  8
21
  2
RECT
 10
34.5186
 20
13.5065
 30
0.0000
 41
0.7620
 42
0.0381
 43
1.0000
 50
0.0000
  0
INSERT
  8
21
  2
RECT
 10
35.8521
 20
13.5065
 30
0.0000
 41
1.5240
 42
0.0381
 43
1.0000
 50
0.0000
  0
INSERT
  8
21
  2
RECT
 10
37.2428
 20
13.5065
 30
0.0000
 41
0.4953
 42
0.0381
 43
1.0000
 50
0.0000
  0
INSERT
  8
21
  2
RECT
 10
39.0716
 20
13.5065
 30
0.0000
 41
0.7239
 42
0.0381
 43
1.0000
 50
0.0000
  0
INSERT
  8
21
  2
RECT
 10
40.0050
 20
13.5065
 30
0.0000
 41
0.5334
 42
0.0381
 43
1.0000
 50
0.0000
  0
INSERT
  8
21
  2
RECT
 10
41.5481
 20
13.5065
 30
0.0000
 41
0.3429
 42
0.0381
 43
1.0000
 50
0.0000
  0
INSERT
  8
21
  2
RECT
 10
42.2529
 20
13.5065
 30
0.0000
 41
0.6096
 42
0.0381
 43
1.0000
 50
0.0000
  0
INSERT
  8
21
  2
RECT
 10
43.7388
 20
13.5065
 30
0.0000
 41
1.9050
 42
0.0381
 43
1.0000
 50
0.0000
  0
INSERT
  8
21
  2
RECT
 10
45.6057
 20
13.5065
 30
0.0000
 41
1.6764
 42
0.0381
 43
1.0000
 50
0.0000
  0
INSERT
  8
21
  2
RECT
 10
47.7774
 20
13.5065
 30
0.0000
 41
2.4384
 42
0.0381
 43
1.0000
 50
0.0000
  0
INSERT
  8
21
  2
RECT
 10
33.1089
 20
13.5446
 30
0.0000
 41
0.5334
 42
0.0381
 43
1.0000
 50
0.0000
  0
INSERT
  8
21
  2
RECT
 10
34.4424
 20
13.5446
 30
0.0000
 41
0.7620
 42
0.0381
 43
1.0000
 50
0.0000
  0
INSERT
  8
21
  2
RECT
 10
35.8712
 20
13.5446
 30
0.0000
 41
1.5621
 42
0.0381
 43
1.0000
 50
0.0000
  0
INSERT
  8
21
  2
RECT
 10
37.2428
 20
13.5446
 30
0.0000
 41
0.4953
 42
0.0381
 43
1.0000
 50
0.0000
  0
INSERT
  8
21
  2
RECT
 10
39.0335
 20
13.5446
 30
0.0000
 41
0.7239
 42
0.0381
 43
1.0000
 50
0.0000
  0
INSERT
  8
21
  2
RECT
 10
40.0050
 20
13.5446
 30
0.0000
 41
0.5334
 42
0.0381
 43
1.0000
 50
0.0000
  0
INSERT
  8
21
  2
RECT
 10
41.5290
 20
13.5446
 30
0.0000
 41
0.4572
 42
0.0381
 43
1.0000
 50
0.0000
  0
INSERT
  8
21
  2
RECT
 10
42.2910
 20
13.5446
 30
0.0000
 41
0.6096
 42
0.0381
 43
1.0000
 50
0.0000
  0
INSERT
  8
21
  2
RECT
 10
43.7388
 20
13.5446
 30
0.0000
 41
1.8288
 42
0.0381
 43
1.0000
 50
0.0000
  0
INSERT
  8
21
  2
RECT
 10
45.6057
 20
13.5446
 30
0.0000
 41
1.6764
 42
0.0381
 43
1.0000
 50
0.0000
  0
INSERT
  8
21
  2
RECT
 10
47.8155
 20
13.5446
 30
0.0000
 41
2.4384
 42
0.0381
 43
1.0000
 50
0.0000
  0
INSERT
  8
21
  2
RECT
 10
33.1089
 20
13.5827
 30
0.0000
 41
0.5334
 42
0.0381
 43
1.0000
 50
0.0000
  0
INSERT
  8
21
  2
RECT
 10
34.4043
 20
13.5827
 30
0.0000
 41
0.7620
 42
0.0381
 43
1.0000
 50
0.0000
  0
INSERT
  8
21
  2
RECT
 10
35.8712
 20
13.5827
 30
0.0000
 41
1.5621
 42
0.0381
 43
1.0000
 50
0.0000
  0
INSERT
  8
21
  2
RECT
 10
37.2428
 20
13.5827
 30
0.0000
 41
0.4953
 42
0.0381
 43
1.0000
 50
0.0000
  0
INSERT
  8
21
  2
RECT
 10
38.9954
 20
13.5827
 30
0.0000
 41
0.7239
 42
0.0381
 43
1.0000
 50
0.0000
  0
INSERT
  8
21
  2
RECT
 10
40.0050
 20
13.5827
 30
0.0000
 41
0.5334
 42
0.0381
 43
1.0000
 50
0.0000
  0
INSERT
  8
21
  2
RECT
 10
41.5100
 20
13.5827
 30
0.0000
 41
0.4953
 42
0.0381
 43
1.0000
 50
0.0000
  0
INSERT
  8
21
  2
RECT
 10
42.3101
 20
13.5827
 30
0.0000
 41
0.6477
 42
0.0381
 43
1.0000
 50
0.0000
  0
INSERT
  8
21
  2
RECT
 10
43.7198
 20
13.5827
 30
0.0000
 41
1.7907
 42
0.0381
 43
1.0000
 50
0.0000
  0
INSERT
  8
21
  2
RECT
 10
45.6247
 20
13.5827
 30
0.0000
 41
1.7145
 42
0.0381
 43
1.0000
 50
0.0000
  0
INSERT
  8
21
  2
RECT
 10
47.8536
 20
13.5827
 30
0.0000
 41
2.4384
 42
0.0381
 43
1.0000
 50
0.0000
  0
INSERT
  8
21
  2
RECT
 10
33.1089
 20
13.6208
 30
0.0000
 41
0.5334
 42
0.0381
 43
1.0000
 50
0.0000
  0
INSERT
  8
21
  2
RECT
 10
34.3471
 20
13.6208
 30
0.0000
 41
0.7239
 42
0.0381
 43
1.0000
 50
0.0000
  0
INSERT
  8
21
  2
RECT
 10
35.8902
 20
13.6208
 30
0.0000
 41
1.6002
 42
0.0381
 43
1.0000
 50
0.0000
  0
INSERT
  8
21
  2
RECT
 10
37.2428
 20
13.6208
 30
0.0000
 41
0.4953
 42
0.0381
 43
1.0000
 50
0.0000
  0
INSERT
  8
21
  2
RECT
 10
38.9573
 20
13.6208
 30
0.0000
 41
0.7239
 42
0.0381
 43
1.0000
 50
0.0000
  0
INSERT
  8
21
  2
RECT
 10
40.0050
 20
13.6208
 30
0.0000
 41
0.5334
 42
0.0381
 43
1.0000
 50
0.0000
  0
INSERT
  8
21
  2
RECT
 10
41.4909
 20
13.6208
 30
0.0000
 41
0.5334
 42
0.0381
 43
1.0000
 50
0.0000
  0
INSERT
  8
21
  2
RECT
 10
42.3482
 20
13.6208
 30
0.0000
 41
0.6477
 42
0.0381
 43
1.0000
 50
0.0000
  0
INSERT
  8
21
  2
RECT
 10
43.7388
 20
13.6208
 30
0.0000
 41
1.7526
 42
0.0381
 43
1.0000
 50
0.0000
  0
INSERT
  8
21
  2
RECT
 10
45.6438
 20
13.6208
 30
0.0000
 41
1.7526
 42
0.0381
 43
1.0000
 50
0.0000
  0
INSERT
  8
21
  2
RECT
 10
47.8917
 20
13.6208
 30
0.0000
 41
2.4384
 42
0.0381
 43
1.0000
 50
0.0000
  0
INSERT
  8
21
  2
RECT
 10
33.1089
 20
13.6589
 30
0.0000
 41
0.5334
 42
0.0381
 43
1.0000
 50
0.0000
  0
INSERT
  8
21
  2
RECT
 10
34.2900
 20
13.6589
 30
0.0000
 41
0.7620
 42
0.0381
 43
1.0000
 50
0.0000
  0
INSERT
  8
21
  2
RECT
 10
35.9093
 20
13.6589
 30
0.0000
 41
1.6383
 42
0.0381
 43
1.0000
 50
0.0000
  0
INSERT
  8
21
  2
RECT
 10
37.2428
 20
13.6589
 30
0.0000
 41
0.4953
 42
0.0381
 43
1.0000
 50
0.0000
  0
INSERT
  8
21
  2
RECT
 10
38.9001
 20
13.6589
 30
0.0000
 41
0.7620
 42
0.0381
 43
1.0000
 50
0.0000
  0
INSERT
  8
21
  2
RECT
 10
40.0050
 20
13.6589
 30
0.0000
 41
0.5334
 42
0.0381
 43
1.0000
 50
0.0000
  0
INSERT
  8
21
  2
RECT
 10
41.4528
 20
13.6589
 30
0.0000
 41
0.6096
 42
0.0381
 43
1.0000
 50
0.0000
  0
INSERT
  8
21
  2
RECT
 10
42.3672
 20
13.6589
 30
0.0000
 41
0.6096
 42
0.0381
 43
1.0000
 50
0.0000
  0
INSERT
  8
21
  2
RECT
 10
43.7388
 20
13.6589
 30
0.0000
 41
1.6764
 42
0.0381
 43
1.0000
 50
0.0000
  0
INSERT
  8
21
  2
RECT
 10
45.6628
 20
13.6589
 30
0.0000
 41
1.7907
 42
0.0381
 43
1.0000
 50
0.0000
  0
INSERT
  8
21
  2
RECT
 10
47.9298
 20
13.6589
 30
0.0000
 41
2.4384
 42
0.0381
 43
1.0000
 50
0.0000
  0
INSERT
  8
21
  2
RECT
 10
33.1089
 20
13.6970
 30
0.0000
 41
0.5334
 42
0.0381
 43
1.0000
 50
0.0000
  0
INSERT
  8
21
  2
RECT
 10
34.2519
 20
13.6970
 30
0.0000
 41
0.7620
 42
0.0381
 43
1.0000
 50
0.0000
  0
INSERT
  8
21
  2
RECT
 10
35.9283
 20
13.6970
 30
0.0000
 41
1.6764
 42
0.0381
 43
1.0000
 50
0.0000
  0
INSERT
  8
21
  2
RECT
 10
37.2428
 20
13.6970
 30
0.0000
 41
0.4953
 42
0.0381
 43
1.0000
 50
0.0000
  0
INSERT
  8
21
  2
RECT
 10
38.8430
 20
13.6970
 30
0.0000
 41
0.7239
 42
0.0381
 43
1.0000
 50
0.0000
  0
INSERT
  8
21
  2
RECT
 10
40.0050
 20
13.6970
 30
0.0000
 41
0.5334
 42
0.0381
 43
1.0000
 50
0.0000
  0
INSERT
  8
21
  2
RECT
 10
41.4338
 20
13.6970
 30
0.0000
 41
0.6477
 42
0.0381
 43
1.0000
 50
0.0000
  0
INSERT
  8
21
  2
RECT
 10
42.4053
 20
13.6970
 30
0.0000
 41
0.6096
 42
0.0381
 43
1.0000
 50
0.0000
  0
INSERT
  8
21
  2
RECT
 10
43.7388
 20
13.6970
 30
0.0000
 41
1.6002
 42
0.0381
 43
1.0000
 50
0.0000
  0
INSERT
  8
21
  2
RECT
 10
45.6819
 20
13.6970
 30
0.0000
 41
1.8288
 42
0.0381
 43
1.0000
 50
0.0000
  0
INSERT
  8
21
  2
RECT
 10
47.9489
 20
13.6970
 30
0.0000
 41
2.4003
 42
0.0381
 43
1.0000
 50
0.0000
  0
INSERT
  8
21
  2
RECT
 10
33.1089
 20
13.7351
 30
0.0000
 41
0.5334
 42
0.0381
 43
1.0000
 50
0.0000
  0
INSERT
  8
21
  2
RECT
 10
34.1757
 20
13.7351
 30
0.0000
 41
0.7620
 42
0.0381
 43
1.0000
 50
0.0000
  0
INSERT
  8
21
  2
RECT
 10
35.9283
 20
13.7351
 30
0.0000
 41
1.6764
 42
0.0381
 43
1.0000
 50
0.0000
  0
INSERT
  8
21
  2
RECT
 10
37.2428
 20
13.7351
 30
0.0000
 41
0.4953
 42
0.0381
 43
1.0000
 50
0.0000
  0
INSERT
  8
21
  2
RECT
 10
38.8049
 20
13.7351
 30
0.0000
 41
0.7239
 42
0.0381
 43
1.0000
 50
0.0000
  0
INSERT
  8
21
  2
RECT
 10
40.0050
 20
13.7351
 30
0.0000
 41
0.5334
 42
0.0381
 43
1.0000
 50
0.0000
  0
INSERT
  8
21
  2
RECT
 10
41.4147
 20
13.7351
 30
0.0000
 41
0.6858
 42
0.0381
 43
1.0000
 50
0.0000
  0
INSERT
  8
21
  2
RECT
 10
42.4244
 20
13.7351
 30
0.0000
 41
0.6477
 42
0.0381
 43
1.0000
 50
0.0000
  0
INSERT
  8
21
  2
RECT
 10
43.7198
 20
13.7351
 30
0.0000
 41
1.5621
 42
0.0381
 43
1.0000
 50
0.0000
  0
INSERT
  8
21
  2
RECT
 10
45.7009
 20
13.7351
 30
0.0000
 41
1.8669
 42
0.0381
 43
1.0000
 50
0.0000
  0
INSERT
  8
21
  2
RECT
 10
47.9870
 20
13.7351
 30
0.0000
 41
2.4003
 42
0.0381
 43
1.0000
 50
0.0000
  0
INSERT
  8
21
  2
RECT
 10
33.1089
 20
13.7732
 30
0.0000
 41
0.5334
 42
0.0381
 43
1.0000
 50
0.0000
  0
INSERT
  8
21
  2
RECT
 10
34.1376
 20
13.7732
 30
0.0000
 41
0.7620
 42
0.0381
 43
1.0000
 50
0.0000
  0
INSERT
  8
21
  2
RECT
 10
35.9474
 20
13.7732
 30
0.0000
 41
1.7145
 42
0.0381
 43
1.0000
 50
0.0000
  0
INSERT
  8
21
  2
RECT
 10
37.2428
 20
13.7732
 30
0.0000
 41
0.4953
 42
0.0381
 43
1.0000
 50
0.0000
  0
INSERT
  8
21
  2
RECT
 10
38.7668
 20
13.7732
 30
0.0000
 41
0.7239
 42
0.0381
 43
1.0000
 50
0.0000
  0
INSERT
  8
21
  2
RECT
 10
40.0050
 20
13.7732
 30
0.0000
 41
0.5334
 42
0.0381
 43
1.0000
 50
0.0000
  0
INSERT
  8
21
  2
RECT
 10
41.3957
 20
13.7732
 30
0.0000
 41
0.7239
 42
0.0381
 43
1.0000
 50
0.0000
  0
INSERT
  8
21
  2
RECT
 10
42.4434
 20
13.7732
 30
0.0000
 41
0.6096
 42
0.0381
 43
1.0000
 50
0.0000
  0
INSERT
  8
21
  2
RECT
 10
43.7388
 20
13.7732
 30
0.0000
 41
1.5240
 42
0.0381
 43
1.0000
 50
0.0000
  0
INSERT
  8
21
  2
RECT
 10
45.7200
 20
13.7732
 30
0.0000
 41
1.9050
 42
0.0381
 43
1.0000
 50
0.0000
  0
INSERT
  8
21
  2
RECT
 10
48.0251
 20
13.7732
 30
0.0000
 41
2.4003
 42
0.0381
 43
1.0000
 50
0.0000
  0
INSERT
  8
21
  2
RECT
 10
33.1089
 20
13.8113
 30
0.0000
 41
0.5334
 42
0.0381
 43
1.0000
 50
0.0000
  0
INSERT
  8
21
  2
RECT
 10
34.0614
 20
13.8113
 30
0.0000
 41
0.7620
 42
0.0381
 43
1.0000
 50
0.0000
  0
INSERT
  8
21
  2
RECT
 10
35.9664
 20
13.8113
 30
0.0000
 41
1.7526
 42
0.0381
 43
1.0000
 50
0.0000
  0
INSERT
  8
21
  2
RECT
 10
37.2428
 20
13.8113
 30
0.0000
 41
0.4953
 42
0.0381
 43
1.0000
 50
0.0000
  0
INSERT
  8
21
  2
RECT
 10
38.7287
 20
13.8113
 30
0.0000
 41
0.7239
 42
0.0381
 43
1.0000
 50
0.0000
  0
INSERT
  8
21
  2
RECT
 10
40.0050
 20
13.8113
 30
0.0000
 41
0.5334
 42
0.0381
 43
1.0000
 50
0.0000
  0
INSERT
  8
21
  2
RECT
 10
41.3766
 20
13.8113
 30
0.0000
 41
0.7620
 42
0.0381
 43
1.0000
 50
0.0000
  0
INSERT
  8
21
  2
RECT
 10
42.4815
 20
13.8113
 30
0.0000
 41
0.6096
 42
0.0381
 43
1.0000
 50
0.0000
  0
INSERT
  8
21
  2
RECT
 10
43.7388
 20
13.8113
 30
0.0000
 41
1.4478
 42
0.0381
 43
1.0000
 50
0.0000
  0
INSERT
  8
21
  2
RECT
 10
45.7390
 20
13.8113
 30
0.0000
 41
1.9431
 42
0.0381
 43
1.0000
 50
0.0000
  0
INSERT
  8
21
  2
RECT
 10
48.0632
 20
13.8113
 30
0.0000
 41
2.4003
 42
0.0381
 43
1.0000
 50
0.0000
  0
INSERT
  8
21
  2
RECT
 10
33.1089
 20
13.8494
 30
0.0000
 41
0.5334
 42
0.0381
 43
1.0000
 50
0.0000
  0
INSERT
  8
21
  2
RECT
 10
34.0233
 20
13.8494
 30
0.0000
 41
0.7620
 42
0.0381
 43
1.0000
 50
0.0000
  0
INSERT
  8
21
  2
RECT
 10
35.9855
 20
13.8494
 30
0.0000
 41
1.7907
 42
0.0381
 43
1.0000
 50
0.0000
  0
INSERT
  8
21
  2
RECT
 10
37.2428
 20
13.8494
 30
0.0000
 41
0.4953
 42
0.0381
 43
1.0000
 50
0.0000
  0
INSERT
  8
21
  2
RECT
 10
38.6715
 20
13.8494
 30
0.0000
 41
0.7620
 42
0.0381
 43
1.0000
 50
0.0000
  0
INSERT
  8
21
  2
RECT
 10
40.0050
 20
13.8494
 30
0.0000
 41
0.5334
 42
0.0381
 43
1.0000
 50
0.0000
  0
INSERT
  8
21
  2
RECT
 10
41.3385
 20
13.8494
 30
0.0000
 41
0.8382
 42
0.0381
 43
1.0000
 50
0.0000
  0
INSERT
  8
21
  2
RECT
 10
42.5006
 20
13.8494
 30
0.0000
 41
0.6477
 42
0.0381
 43
1.0000
 50
0.0000
  0
INSERT
  8
21
  2
RECT
 10
43.7198
 20
13.8494
 30
0.0000
 41
1.4097
 42
0.0381
 43
1.0000
 50
0.0000
  0
INSERT
  8
21
  2
RECT
 10
45.7581
 20
13.8494
 30
0.0000
 41
1.9812
 42
0.0381
 43
1.0000
 50
0.0000
  0
INSERT
  8
21
  2
RECT
 10
48.0822
 20
13.8494
 30
0.0000
 41
2.4384
 42
0.0381
 43
1.0000
 50
0.0000
  0
INSERT
  8
21
  2
RECT
 10
33.1089
 20
13.8875
 30
0.0000
 41
0.5334
 42
0.0381
 43
1.0000
 50
0.0000
  0
INSERT
  8
21
  2
RECT
 10
33.9661
 20
13.8875
 30
0.0000
 41
0.7239
 42
0.0381
 43
1.0000
 50
0.0000
  0
INSERT
  8
21
  2
RECT
 10
35.3377
 20
13.8875
 30
0.0000
 41
0.4953
 42
0.0381
 43
1.0000
 50
0.0000
  0
INSERT
  8
21
  2
RECT
 10
37.2618
 20
13.8875
 30
0.0000
 41
0.5334
 42
0.0381
 43
1.0000
 50
0.0000
  0
INSERT
  8
21
  2
RECT
 10
38.6144
 20
13.8875
 30
0.0000
 41
0.7239
 42
0.0381
 43
1.0000
 50
0.0000
  0
INSERT
  8
21
  2
RECT
 10
40.0050
 20
13.8875
 30
0.0000
 41
0.5334
 42
0.0381
 43
1.0000
 50
0.0000
  0
INSERT
  8
21
  2
RECT
 10
41.3195
 20
13.8875
 30
0.0000
 41
0.8763
 42
0.0381
 43
1.0000
 50
0.0000
  0
INSERT
  8
21
  2
RECT
 10
42.5387
 20
13.8875
 30
0.0000
 41
0.6477
 42
0.0381
 43
1.0000
 50
0.0000
  0
INSERT
  8
21
  2
RECT
 10
44.1008
 20
13.8875
 30
0.0000
 41
0.6477
 42
0.0381
 43
1.0000
 50
0.0000
  0
INSERT
  8
21
  2
RECT
 10
45.0152
 20
13.8875
 30
0.0000
 41
0.4953
 42
0.0381
 43
1.0000
 50
0.0000
  0
INSERT
  8
21
  2
RECT
 10
46.4820
 20
13.8875
 30
0.0000
 41
0.6096
 42
0.0381
 43
1.0000
 50
0.0000
  0
INSERT
  8
21
  2
RECT
 10
48.1013
 20
13.8875
 30
0.0000
 41
2.4003
 42
0.0381
 43
1.0000
 50
0.0000
  0
INSERT
  8
21
  2
RECT
 10
33.1089
 20
13.9256
 30
0.0000
 41
0.5334
 42
0.0381
 43
1.0000
 50
0.0000
  0
INSERT
  8
21
  2
RECT
 10
33.9090
 20
13.9256
 30
0.0000
 41
0.7620
 42
0.0381
 43
1.0000
 50
0.0000
  0
INSERT
  8
21
  2
RECT
 10
35.3377
 20
13.9256
 30
0.0000
 41
0.4953
 42
0.0381
 43
1.0000
 50
0.0000
  0
INSERT
  8
21
  2
RECT
 10
37.9667
 20
13.9256
 30
0.0000
 41
1.9431
 42
0.0381
 43
1.0000
 50
0.0000
  0
INSERT
  8
21
  2
RECT
 10
40.0050
 20
13.9256
 30
0.0000
 41
0.5334
 42
0.0381
 43
1.0000
 50
0.0000
  0
INSERT
  8
21
  2
RECT
 10
41.3004
 20
13.9256
 30
0.0000
 41
0.9144
 42
0.0381
 43
1.0000
 50
0.0000
  0
INSERT
  8
21
  2
RECT
 10
42.5577
 20
13.9256
 30
0.0000
 41
0.6096
 42
0.0381
 43
1.0000
 50
0.0000
  0
INSERT
  8
21
  2
RECT
 10
44.0627
 20
13.9256
 30
0.0000
 41
0.6477
 42
0.0381
 43
1.0000
 50
0.0000
  0
INSERT
  8
21
  2
RECT
 10
45.0152
 20
13.9256
 30
0.0000
 41
0.4953
 42
0.0381
 43
1.0000
 50
0.0000
  0
INSERT
  8
21
  2
RECT
 10
46.5201
 20
13.9256
 30
0.0000
 41
0.6096
 42
0.0381
 43
1.0000
 50
0.0000
  0
INSERT
  8
21
  2
RECT
 10
47.3202
 20
13.9256
 30
0.0000
 41
0.7620
 42
0.0381
 43
1.0000
 50
0.0000
  0
INSERT
  8
21
  2
RECT
 10
48.9014
 20
13.9256
 30
0.0000
 41
0.8763
 42
0.0381
 43
1.0000
 50
0.0000
  0
INSERT
  8
21
  2
RECT
 10
33.1089
 20
13.9637
 30
0.0000
 41
0.5334
 42
0.0381
 43
1.0000
 50
0.0000
  0
INSERT
  8
21
  2
RECT
 10
33.8518
 20
13.9637
 30
0.0000
 41
0.7239
 42
0.0381
 43
1.0000
 50
0.0000
  0
INSERT
  8
21
  2
RECT
 10
35.3377
 20
13.9637
 30
0.0000
 41
0.4953
 42
0.0381
 43
1.0000
 50
0.0000
  0
INSERT
  8
21
  2
RECT
 10
37.9667
 20
13.9637
 30
0.0000
 41
1.9431
 42
0.0381
 43
1.0000
 50
0.0000
  0
INSERT
  8
21
  2
RECT
 10
40.0050
 20
13.9637
 30
0.0000
 41
0.5334
 42
0.0381
 43
1.0000
 50
0.0000
  0
INSERT
  8
21
  2
RECT
 10
41.2814
 20
13.9637
 30
0.0000
 41
0.9525
 42
0.0381
 43
1.0000
 50
0.0000
  0
INSERT
  8
21
  2
RECT
 10
42.5958
 20
13.9637
 30
0.0000
 41
0.6096
 42
0.0381
 43
1.0000
 50
0.0000
  0
INSERT
  8
21
  2
RECT
 10
44.0436
 20
13.9637
 30
0.0000
 41
0.6096
 42
0.0381
 43
1.0000
 50
0.0000
  0
INSERT
  8
21
  2
RECT
 10
45.0152
 20
13.9637
 30
0.0000
 41
0.4953
 42
0.0381
 43
1.0000
 50
0.0000
  0
INSERT
  8
21
  2
RECT
 10
46.5582
 20
13.9637
 30
0.0000
 41
0.6096
 42
0.0381
 43
1.0000
 50
0.0000
  0
INSERT
  8
21
  2
RECT
 10
47.3392
 20
13.9637
 30
0.0000
 41
0.7239
 42
0.0381
 43
1.0000
 50
0.0000
  0
INSERT
  8
21
  2
RECT
 10
48.6728
 20
13.9637
 30
0.0000
 41
0.4191
 42
0.0381
 43
1.0000
 50
0.0000
  0
INSERT
  8
21
  2
RECT
 10
33.1089
 20
14.0018
 30
0.0000
 41
0.5334
 42
0.0381
 43
1.0000
 50
0.0000
  0
INSERT
  8
21
  2
RECT
 10
33.7947
 20
14.0018
 30
0.0000
 41
0.7620
 42
0.0381
 43
1.0000
 50
0.0000
  0
INSERT
  8
21
  2
RECT
 10
35.3377
 20
14.0018
 30
0.0000
 41
0.4953
 42
0.0381
 43
1.0000
 50
0.0000
  0
INSERT
  8
21
  2
RECT
 10
37.9857
 20
14.0018
 30
0.0000
 41
1.9812
 42
0.0381
 43
1.0000
 50
0.0000
  0
INSERT
  8
21
  2
RECT
 10
40.0050
 20
14.0018
 30
0.0000
 41
0.5334
 42
0.0381
 43
1.0000
 50
0.0000
  0
INSERT
  8
21
  2
RECT
 10
41.2623
 20
14.0018
 30
0.0000
 41
0.9906
 42
0.0381
 43
1.0000
 50
0.0000
  0
INSERT
  8
21
  2
RECT
 10
42.6149
 20
14.0018
 30
0.0000
 41
0.6477
 42
0.0381
 43
1.0000
 50
0.0000
  0
INSERT
  8
21
  2
RECT
 10
44.0246
 20
14.0018
 30
0.0000
 41
0.6477
 42
0.0381
 43
1.0000
 50
0.0000
  0
INSERT
  8
21
  2
RECT
 10
45.0152
 20
14.0018
 30
0.0000
 41
0.4953
 42
0.0381
 43
1.0000
 50
0.0000
  0
INSERT
  8
21
  2
RECT
 10
46.5963
 20
14.0018
 30
0.0000
 41
0.6096
 42
0.0381
 43
1.0000
 50
0.0000
  0
INSERT
  8
21
  2
RECT
 10
47.3583
 20
14.0018
 30
0.0000
 41
0.6858
 42
0.0381
 43
1.0000
 50
0.0000
  0
INSERT
  8
21
  2
RECT
 10
48.6728
 20
14.0018
 30
0.0000
 41
0.4191
 42
0.0381
 43
1.0000
 50
0.0000
  0
INSERT
  8
21
  2
RECT
 10
33.4708
 20
14.0399
 30
0.0000
 41
1.2573
 42
0.0381
 43
1.0000
 50
0.0000
  0
INSERT
  8
21
  2
RECT
 10
35.3377
 20
14.0399
 30
0.0000
 41
0.4953
 42
0.0381
 43
1.0000
 50
0.0000
  0
INSERT
  8
21
  2
RECT
 10
38.0238
 20
14.0399
 30
0.0000
 41
2.0574
 42
0.0381
 43
1.0000
 50
0.0000
  0
INSERT
  8
21
  2
RECT
 10
40.0050
 20
14.0399
 30
0.0000
 41
0.5334
 42
0.0381
 43
1.0000
 50
0.0000
  0
INSERT
  8
21
  2
RECT
 10
41.2242
 20
14.0399
 30
0.0000
 41
1.0668
 42
0.0381
 43
1.0000
 50
0.0000
  0
INSERT
  8
21
  2
RECT
 10
42.6530
 20
14.0399
 30
0.0000
 41
0.6477
 42
0.0381
 43
1.0000
 50
0.0000
  0
INSERT
  8
21
  2
RECT
 10
43.9865
 20
14.0399
 30
0.0000
 41
0.6477
 42
0.0381
 43
1.0000
 50
0.0000
  0
INSERT
  8
21
  2
RECT
 10
45.0152
 20
14.0399
 30
0.0000
 41
0.4953
 42
0.0381
 43
1.0000
 50
0.0000
  0
INSERT
  8
21
  2
RECT
 10
46.6344
 20
14.0399
 30
0.0000
 41
0.6096
 42
0.0381
 43
1.0000
 50
0.0000
  0
INSERT
  8
21
  2
RECT
 10
47.3773
 20
14.0399
 30
0.0000
 41
0.6477
 42
0.0381
 43
1.0000
 50
0.0000
  0
INSERT
  8
21
  2
RECT
 10
48.6728
 20
14.0399
 30
0.0000
 41
0.4191
 42
0.0381
 43
1.0000
 50
0.0000
  0
INSERT
  8
21
  2
RECT
 10
33.4518
 20
14.0780
 30
0.0000
 41
1.2192
 42
0.0381
 43
1.0000
 50
0.0000
  0
INSERT
  8
21
  2
RECT
 10
35.3377
 20
14.0780
 30
0.0000
 41
0.4953
 42
0.0381
 43
1.0000
 50
0.0000
  0
INSERT
  8
21
  2
RECT
 10
38.0429
 20
14.0780
 30
0.0000
 41
2.0955
 42
0.0381
 43
1.0000
 50
0.0000
  0
INSERT
  8
21
  2
RECT
 10
40.0050
 20
14.0780
 30
0.0000
 41
0.5334
 42
0.0381
 43
1.0000
 50
0.0000
  0
INSERT
  8
21
  2
RECT
 10
41.2052
 20
14.0780
 30
0.0000
 41
1.1049
 42
0.0381
 43
1.0000
 50
0.0000
  0
INSERT
  8
21
  2
RECT
 10
42.6720
 20
14.0780
 30
0.0000
 41
0.6096
 42
0.0381
 43
1.0000
 50
0.0000
  0
INSERT
  8
21
  2
RECT
 10
43.9484
 20
14.0780
 30
0.0000
 41
0.6477
 42
0.0381
 43
1.0000
 50
0.0000
  0
INSERT
  8
21
  2
RECT
 10
45.0152
 20
14.0780
 30
0.0000
 41
0.4953
 42
0.0381
 43
1.0000
 50
0.0000
  0
INSERT
  8
21
  2
RECT
 10
46.6725
 20
14.0780
 30
0.0000
 41
0.6096
 42
0.0381
 43
1.0000
 50
0.0000
  0
INSERT
  8
21
  2
RECT
 10
47.3964
 20
14.0780
 30
0.0000
 41
0.6096
 42
0.0381
 43
1.0000
 50
0.0000
  0
INSERT
  8
21
  2
RECT
 10
48.6728
 20
14.0780
 30
0.0000
 41
0.4191
 42
0.0381
 43
1.0000
 50
0.0000
  0
INSERT
  8
21
  2
RECT
 10
33.4327
 20
14.1161
 30
0.0000
 41
1.1811
 42
0.0381
 43
1.0000
 50
0.0000
  0
INSERT
  8
21
  2
RECT
 10
35.7950
 20
14.1161
 30
0.0000
 41
1.4097
 42
0.0381
 43
1.0000
 50
0.0000
  0
INSERT
  8
21
  2
RECT
 10
38.0810
 20
14.1161
 30
0.0000
 41
2.1717
 42
0.0381
 43
1.0000
 50
0.0000
  0
INSERT
  8
21
  2
RECT
 10
40.0050
 20
14.1161
 30
0.0000
 41
0.5334
 42
0.0381
 43
1.0000
 50
0.0000
  0
INSERT
  8
21
  2
RECT
 10
41.1861
 20
14.1161
 30
0.0000
 41
1.1430
 42
0.0381
 43
1.0000
 50
0.0000
  0
INSERT
  8
21
  2
RECT
 10
42.6911
 20
14.1161
 30
0.0000
 41
0.6477
 42
0.0381
 43
1.0000
 50
0.0000
  0
INSERT
  8
21
  2
RECT
 10
43.9293
 20
14.1161
 30
0.0000
 41
0.6096
 42
0.0381
 43
1.0000
 50
0.0000
  0
INSERT
  8
21
  2
RECT
 10
45.0152
 20
14.1161
 30
0.0000
 41
0.4953
 42
0.0381
 43
1.0000
 50
0.0000
  0
INSERT
  8
21
  2
RECT
 10
46.7106
 20
14.1161
 30
0.0000
 41
0.6096
 42
0.0381
 43
1.0000
 50
0.0000
  0
INSERT
  8
21
  2
RECT
 10
47.4154
 20
14.1161
 30
0.0000
 41
0.5715
 42
0.0381
 43
1.0000
 50
0.0000
  0
INSERT
  8
21
  2
RECT
 10
48.6728
 20
14.1161
 30
0.0000
 41
0.4191
 42
0.0381
 43
1.0000
 50
0.0000
  0
INSERT
  8
21
  2
RECT
 10
33.3946
 20
14.1542
 30
0.0000
 41
1.1049
 42
0.0381
 43
1.0000
 50
0.0000
  0
INSERT
  8
21
  2
RECT
 10
35.8140
 20
14.1542
 30
0.0000
 41
1.4478
 42
0.0381
 43
1.0000
 50
0.0000
  0
INSERT
  8
21
  2
RECT
 10
38.1000
 20
14.1542
 30
0.0000
 41
2.2098
 42
0.0381
 43
1.0000
 50
0.0000
  0
INSERT
  8
21
  2
RECT
 10
40.0050
 20
14.1542
 30
0.0000
 41
0.5334
 42
0.0381
 43
1.0000
 50
0.0000
  0
INSERT
  8
21
  2
RECT
 10
41.1671
 20
14.1542
 30
0.0000
 41
1.1811
 42
0.0381
 43
1.0000
 50
0.0000
  0
INSERT
  8
21
  2
RECT
 10
42.7292
 20
14.1542
 30
0.0000
 41
0.6477
 42
0.0381
 43
1.0000
 50
0.0000
  0
INSERT
  8
21
  2
RECT
 10
43.9103
 20
14.1542
 30
0.0000
 41
0.6477
 42
0.0381
 43
1.0000
 50
0.0000
  0
INSERT
  8
21
  2
RECT
 10
45.0152
 20
14.1542
 30
0.0000
 41
0.4953
 42
0.0381
 43
1.0000
 50
0.0000
  0
INSERT
  8
21
  2
RECT
 10
46.7296
 20
14.1542
 30
0.0000
 41
0.5715
 42
0.0381
 43
1.0000
 50
0.0000
  0
INSERT
  8
21
  2
RECT
 10
47.4535
 20
14.1542
 30
0.0000
 41
0.5715
 42
0.0381
 43
1.0000
 50
0.0000
  0
INSERT
  8
21
  2
RECT
 10
48.6728
 20
14.1542
 30
0.0000
 41
0.4191
 42
0.0381
 43
1.0000
 50
0.0000
  0
INSERT
  8
21
  2
RECT
 10
33.3756
 20
14.1923
 30
0.0000
 41
1.0668
 42
0.0381
 43
1.0000
 50
0.0000
  0
INSERT
  8
21
  2
RECT
 10
35.8140
 20
14.1923
 30
0.0000
 41
1.4478
 42
0.0381
 43
1.0000
 50
0.0000
  0
INSERT
  8
21
  2
RECT
 10
38.1000
 20
14.1923
 30
0.0000
 41
2.2098
 42
0.0381
 43
1.0000
 50
0.0000
  0
INSERT
  8
21
  2
RECT
 10
40.0050
 20
14.1923
 30
0.0000
 41
0.5334
 42
0.0381
 43
1.0000
 50
0.0000
  0
INSERT
  8
21
  2
RECT
 10
41.1480
 20
14.1923
 30
0.0000
 41
1.2192
 42
0.0381
 43
1.0000
 50
0.0000
  0
INSERT
  8
21
  2
RECT
 10
42.7482
 20
14.1923
 30
0.0000
 41
0.6096
 42
0.0381
 43
1.0000
 50
0.0000
  0
INSERT
  8
21
  2
RECT
 10
43.8722
 20
14.1923
 30
0.0000
 41
0.6477
 42
0.0381
 43
1.0000
 50
0.0000
  0
INSERT
  8
21
  2
RECT
 10
45.0152
 20
14.1923
 30
0.0000
 41
0.4953
 42
0.0381
 43
1.0000
 50
0.0000
  0
INSERT
  8
21
  2
RECT
 10
46.7677
 20
14.1923
 30
0.0000
 41
0.5715
 42
0.0381
 43
1.0000
 50
0.0000
  0
INSERT
  8
21
  2
RECT
 10
47.4916
 20
14.1923
 30
0.0000
 41
0.5715
 42
0.0381
 43
1.0000
 50
0.0000
  0
INSERT
  8
21
  2
RECT
 10
48.6728
 20
14.1923
 30
0.0000
 41
0.4191
 42
0.0381
 43
1.0000
 50
0.0000
  0
INSERT
  8
21
  2
RECT
 10
33.3375
 20
14.2304
 30
0.0000
 41
0.9906
 42
0.0381
 43
1.0000
 50
0.0000
  0
INSERT
  8
21
  2
RECT
 10
35.8331
 20
14.2304
 30
0.0000
 41
1.4859
 42
0.0381
 43
1.0000
 50
0.0000
  0
INSERT
  8
21
  2
RECT
 10
38.1191
 20
14.2304
 30
0.0000
 41
2.2479
 42
0.0381
 43
1.0000
 50
0.0000
  0
INSERT
  8
21
  2
RECT
 10
40.0050
 20
14.2304
 30
0.0000
 41
0.5334
 42
0.0381
 43
1.0000
 50
0.0000
  0
INSERT
  8
21
  2
RECT
 10
40.8432
 20
14.2304
 30
0.0000
 41
0.7620
 42
0.0381
 43
1.0000
 50
0.0000
  0
INSERT
  8
21
  2
RECT
 10
41.5100
 20
14.2304
 30
0.0000
 41
0.4953
 42
0.0381
 43
1.0000
 50
0.0000
  0
INSERT
  8
21
  2
RECT
 10
42.7863
 20
14.2304
 30
0.0000
 41
0.6096
 42
0.0381
 43
1.0000
 50
0.0000
  0
INSERT
  8
21
  2
RECT
 10
43.8531
 20
14.2304
 30
0.0000
 41
0.6096
 42
0.0381
 43
1.0000
 50
0.0000
  0
INSERT
  8
21
  2
RECT
 10
45.0152
 20
14.2304
 30
0.0000
 41
0.4953
 42
0.0381
 43
1.0000
 50
0.0000
  0
INSERT
  8
21
  2
RECT
 10
46.8058
 20
14.2304
 30
0.0000
 41
0.5715
 42
0.0381
 43
1.0000
 50
0.0000
  0
INSERT
  8
21
  2
RECT
 10
47.5297
 20
14.2304
 30
0.0000
 41
0.5715
 42
0.0381
 43
1.0000
 50
0.0000
  0
INSERT
  8
21
  2
RECT
 10
48.6728
 20
14.2304
 30
0.0000
 41
0.4191
 42
0.0381
 43
1.0000
 50
0.0000
  0
INSERT
  8
21
  2
RECT
 10
33.3184
 20
14.2685
 30
0.0000
 41
0.9525
 42
0.0381
 43
1.0000
 50
0.0000
  0
INSERT
  8
21
  2
RECT
 10
35.8521
 20
14.2685
 30
0.0000
 41
1.5240
 42
0.0381
 43
1.0000
 50
0.0000
  0
INSERT
  8
21
  2
RECT
 10
38.1381
 20
14.2685
 30
0.0000
 41
2.2860
 42
0.0381
 43
1.0000
 50
0.0000
  0
INSERT
  8
21
  2
RECT
 10
40.0050
 20
14.2685
 30
0.0000
 41
0.5334
 42
0.0381
 43
1.0000
 50
0.0000
  0
INSERT
  8
21
  2
RECT
 10
40.7861
 20
14.2685
 30
0.0000
 41
0.7239
 42
0.0381
 43
1.0000
 50
0.0000
  0
INSERT
  8
21
  2
RECT
 10
41.5100
 20
14.2685
 30
0.0000
 41
0.4953
 42
0.0381
 43
1.0000
 50
0.0000
  0
INSERT
  8
21
  2
RECT
 10
42.8054
 20
14.2685
 30
0.0000
 41
0.6477
 42
0.0381
 43
1.0000
 50
0.0000
  0
INSERT
  8
21
  2
RECT
 10
43.8341
 20
14.2685
 30
0.0000
 41
0.6477
 42
0.0381
 43
1.0000
 50
0.0000
  0
INSERT
  8
21
  2
RECT
 10
45.0152
 20
14.2685
 30
0.0000
 41
0.4953
 42
0.0381
 43
1.0000
 50
0.0000
  0
INSERT
  8
21
  2
RECT
 10
46.8439
 20
14.2685
 30
0.0000
 41
0.5715
 42
0.0381
 43
1.0000
 50
0.0000
  0
INSERT
  8
21
  2
RECT
 10
47.5678
 20
14.2685
 30
0.0000
 41
0.5715
 42
0.0381
 43
1.0000
 50
0.0000
  0
INSERT
  8
21
  2
RECT
 10
48.6728
 20
14.2685
 30
0.0000
 41
0.4191
 42
0.0381
 43
1.0000
 50
0.0000
  0
INSERT
  8
21
  2
RECT
 10
33.2994
 20
14.3066
 30
0.0000
 41
0.9144
 42
0.0381
 43
1.0000
 50
0.0000
  0
INSERT
  8
21
  2
RECT
 10
35.8712
 20
14.3066
 30
0.0000
 41
1.5621
 42
0.0381
 43
1.0000
 50
0.0000
  0
INSERT
  8
21
  2
RECT
 10
38.1381
 20
14.3066
 30
0.0000
 41
2.2860
 42
0.0381
 43
1.0000
 50
0.0000
  0
INSERT
  8
21
  2
RECT
 10
40.0050
 20
14.3066
 30
0.0000
 41
0.5334
 42
0.0381
 43
1.0000
 50
0.0000
  0
INSERT
  8
21
  2
RECT
 10
40.7480
 20
14.3066
 30
0.0000
 41
0.7239
 42
0.0381
 43
1.0000
 50
0.0000
  0
INSERT
  8
21
  2
RECT
 10
41.5100
 20
14.3066
 30
0.0000
 41
0.4953
 42
0.0381
 43
1.0000
 50
0.0000
  0
INSERT
  8
21
  2
RECT
 10
42.8435
 20
14.3066
 30
0.0000
 41
0.6477
 42
0.0381
 43
1.0000
 50
0.0000
  0
INSERT
  8
21
  2
RECT
 10
43.7960
 20
14.3066
 30
0.0000
 41
0.6477
 42
0.0381
 43
1.0000
 50
0.0000
  0
INSERT
  8
21
  2
RECT
 10
45.0152
 20
14.3066
 30
0.0000
 41
0.4953
 42
0.0381
 43
1.0000
 50
0.0000
  0
INSERT
  8
21
  2
RECT
 10
46.8820
 20
14.3066
 30
0.0000
 41
0.5715
 42
0.0381
 43
1.0000
 50
0.0000
  0
INSERT
  8
21
  2
RECT
 10
47.6059
 20
14.3066
 30
0.0000
 41
0.5715
 42
0.0381
 43
1.0000
 50
0.0000
  0
INSERT
  8
21
  2
RECT
 10
48.6728
 20
14.3066
 30
0.0000
 41
0.4191
 42
0.0381
 43
1.0000
 50
0.0000
  0
INSERT
  8
21
  2
RECT
 10
33.3375
 20
14.3447
 30
0.0000
 41
0.9906
 42
0.0381
 43
1.0000
 50
0.0000
  0
INSERT
  8
21
  2
RECT
 10
35.8902
 20
14.3447
 30
0.0000
 41
1.6002
 42
0.0381
 43
1.0000
 50
0.0000
  0
INSERT
  8
21
  2
RECT
 10
38.9954
 20
14.3447
 30
0.0000
 41
0.6477
 42
0.0381
 43
1.0000
 50
0.0000
  0
INSERT
  8
21
  2
RECT
 10
40.0050
 20
14.3447
 30
0.0000
 41
0.5334
 42
0.0381
 43
1.0000
 50
0.0000
  0
INSERT
  8
21
  2
RECT
 10
40.7099
 20
14.3447
 30
0.0000
 41
0.7239
 42
0.0381
 43
1.0000
 50
0.0000
  0
INSERT
  8
21
  2
RECT
 10
41.5100
 20
14.3447
 30
0.0000
 41
0.4953
 42
0.0381
 43
1.0000
 50
0.0000
  0
INSERT
  8
21
  2
RECT
 10
42.8625
 20
14.3447
 30
0.0000
 41
0.6096
 42
0.0381
 43
1.0000
 50
0.0000
  0
INSERT
  8
21
  2
RECT
 10
43.7579
 20
14.3447
 30
0.0000
 41
0.6477
 42
0.0381
 43
1.0000
 50
0.0000
  0
INSERT
  8
21
  2
RECT
 10
45.0152
 20
14.3447
 30
0.0000
 41
0.4953
 42
0.0381
 43
1.0000
 50
0.0000
  0
INSERT
  8
21
  2
RECT
 10
46.9201
 20
14.3447
 30
0.0000
 41
0.5715
 42
0.0381
 43
1.0000
 50
0.0000
  0
INSERT
  8
21
  2
RECT
 10
47.6441
 20
14.3447
 30
0.0000
 41
0.5715
 42
0.0381
 43
1.0000
 50
0.0000
  0
INSERT
  8
21
  2
RECT
 10
48.6728
 20
14.3447
 30
0.0000
 41
0.4191
 42
0.0381
 43
1.0000
 50
0.0000
  0
INSERT
  8
21
  2
RECT
 10
33.3565
 20
14.3828
 30
0.0000
 41
1.0287
 42
0.0381
 43
1.0000
 50
0.0000
  0
INSERT
  8
21
  2
RECT
 10
35.8902
 20
14.3828
 30
0.0000
 41
1.6002
 42
0.0381
 43
1.0000
 50
0.0000
  0
INSERT
  8
21
  2
RECT
 10
39.0335
 20
14.3828
 30
0.0000
 41
0.5715
 42
0.0381
 43
1.0000
 50
0.0000
  0
INSERT
  8
21
  2
RECT
 10
40.0050
 20
14.3828
 30
0.0000
 41
0.5334
 42
0.0381
 43
1.0000
 50
0.0000
  0
INSERT
  8
21
  2
RECT
 10
40.6718
 20
14.3828
 30
0.0000
 41
0.7239
 42
0.0381
 43
1.0000
 50
0.0000
  0
INSERT
  8
21
  2
RECT
 10
41.5100
 20
14.3828
 30
0.0000
 41
0.4953
 42
0.0381
 43
1.0000
 50
0.0000
  0
INSERT
  8
21
  2
RECT
 10
42.9006
 20
14.3828
 30
0.0000
 41
0.6096
 42
0.0381
 43
1.0000
 50
0.0000
  0
INSERT
  8
21
  2
RECT
 10
43.7388
 20
14.3828
 30
0.0000
 41
0.6096
 42
0.0381
 43
1.0000
 50
0.0000
  0
INSERT
  8
21
  2
RECT
 10
45.0152
 20
14.3828
 30
0.0000
 41
0.4953
 42
0.0381
 43
1.0000
 50
0.0000
  0
INSERT
  8
21
  2
RECT
 10
46.9582
 20
14.3828
 30
0.0000
 41
0.5715
 42
0.0381
 43
1.0000
 50
0.0000
  0
INSERT
  8
21
  2
RECT
 10
47.6822
 20
14.3828
 30
0.0000
 41
0.5715
 42
0.0381
 43
1.0000
 50
0.0000
  0
INSERT
  8
21
  2
RECT
 10
48.6728
 20
14.3828
 30
0.0000
 41
0.4191
 42
0.0381
 43
1.0000
 50
0.0000
  0
INSERT
  8
21
  2
RECT
 10
33.3946
 20
14.4209
 30
0.0000
 41
1.1049
 42
0.0381
 43
1.0000
 50
0.0000
  0
INSERT
  8
21
  2
RECT
 10
35.9093
 20
14.4209
 30
0.0000
 41
1.6383
 42
0.0381
 43
1.0000
 50
0.0000
  0
INSERT
  8
21
  2
RECT
 10
39.0525
 20
14.4209
 30
0.0000
 41
0.5334
 42
0.0381
 43
1.0000
 50
0.0000
  0
INSERT
  8
21
  2
RECT
 10
40.3670
 20
14.4209
 30
0.0000
 41
1.2573
 42
0.0381
 43
1.0000
 50
0.0000
  0
INSERT
  8
21
  2
RECT
 10
41.5100
 20
14.4209
 30
0.0000
 41
0.4953
 42
0.0381
 43
1.0000
 50
0.0000
  0
INSERT
  8
21
  2
RECT
 10
42.9197
 20
14.4209
 30
0.0000
 41
0.6477
 42
0.0381
 43
1.0000
 50
0.0000
  0
INSERT
  8
21
  2
RECT
 10
43.7198
 20
14.4209
 30
0.0000
 41
0.6477
 42
0.0381
 43
1.0000
 50
0.0000
  0
INSERT
  8
21
  2
RECT
 10
45.0152
 20
14.4209
 30
0.0000
 41
0.4953
 42
0.0381
 43
1.0000
 50
0.0000
  0
INSERT
  8
21
  2
RECT
 10
46.9773
 20
14.4209
 30
0.0000
 41
0.6096
 42
0.0381
 43
1.0000
 50
0.0000
  0
INSERT
  8
21
  2
RECT
 10
47.7203
 20
14.4209
 30
0.0000
 41
0.5715
 42
0.0381
 43
1.0000
 50
0.0000
  0
INSERT
  8
21
  2
RECT
 10
48.6728
 20
14.4209
 30
0.0000
 41
0.4191
 42
0.0381
 43
1.0000
 50
0.0000
  0
INSERT
  8
21
  2
RECT
 10
33.4137
 20
14.4590
 30
0.0000
 41
1.1430
 42
0.0381
 43
1.0000
 50
0.0000
  0
INSERT
  8
21
  2
RECT
 10
35.9283
 20
14.4590
 30
0.0000
 41
1.6764
 42
0.0381
 43
1.0000
 50
0.0000
  0
INSERT
  8
21
  2
RECT
 10
39.0525
 20
14.4590
 30
0.0000
 41
0.5334
 42
0.0381
 43
1.0000
 50
0.0000
  0
INSERT
  8
21
  2
RECT
 10
40.3289
 20
14.4590
 30
0.0000
 41
1.1811
 42
0.0381
 43
1.0000
 50
0.0000
  0
INSERT
  8
21
  2
RECT
 10
41.5100
 20
14.4590
 30
0.0000
 41
0.4953
 42
0.0381
 43
1.0000
 50
0.0000
  0
INSERT
  8
21
  2
RECT
 10
42.9578
 20
14.4590
 30
0.0000
 41
0.6477
 42
0.0381
 43
1.0000
 50
0.0000
  0
INSERT
  8
21
  2
RECT
 10
43.6817
 20
14.4590
 30
0.0000
 41
0.6477
 42
0.0381
 43
1.0000
 50
0.0000
  0
INSERT
  8
21
  2
RECT
 10
45.0152
 20
14.4590
 30
0.0000
 41
0.4953
 42
0.0381
 43
1.0000
 50
0.0000
  0
INSERT
  8
21
  2
RECT
 10
47.0154
 20
14.4590
 30
0.0000
 41
0.6096
 42
0.0381
 43
1.0000
 50
0.0000
  0
INSERT
  8
21
  2
RECT
 10
47.7393
 20
14.4590
 30
0.0000
 41
0.6096
 42
0.0381
 43
1.0000
 50
0.0000
  0
INSERT
  8
21
  2
RECT
 10
48.6728
 20
14.4590
 30
0.0000
 41
0.4191
 42
0.0381
 43
1.0000
 50
0.0000
  0
INSERT
  8
21
  2
RECT
 10
33.4327
 20
14.4971
 30
0.0000
 41
1.1811
 42
0.0381
 43
1.0000
 50
0.0000
  0
INSERT
  8
21
  2
RECT
 10
35.9474
 20
14.4971
 30
0.0000
 41
1.7145
 42
0.0381
 43
1.0000
 50
0.0000
  0
INSERT
  8
21
  2
RECT
 10
39.0716
 20
14.4971
 30
0.0000
 41
0.4953
 42
0.0381
 43
1.0000
 50
0.0000
  0
INSERT
  8
21
  2
RECT
 10
40.3098
 20
14.4971
 30
0.0000
 41
1.1430
 42
0.0381
 43
1.0000
 50
0.0000
  0
INSERT
  8
21
  2
RECT
 10
41.5100
 20
14.4971
 30
0.0000
 41
0.4953
 42
0.0381
 43
1.0000
 50
0.0000
  0
INSERT
  8
21
  2
RECT
 10
42.9768
 20
14.4971
 30
0.0000
 41
0.6096
 42
0.0381
 43
1.0000
 50
0.0000
  0
INSERT
  8
21
  2
RECT
 10
43.6626
 20
14.4971
 30
0.0000
 41
0.6096
 42
0.0381
 43
1.0000
 50
0.0000
  0
INSERT
  8
21
  2
RECT
 10
45.0152
 20
14.4971
 30
0.0000
 41
0.4953
 42
0.0381
 43
1.0000
 50
0.0000
  0
INSERT
  8
21
  2
RECT
 10
47.0535
 20
14.4971
 30
0.0000
 41
0.6096
 42
0.0381
 43
1.0000
 50
0.0000
  0
INSERT
  8
21
  2
RECT
 10
47.7774
 20
14.4971
 30
0.0000
 41
0.6096
 42
0.0381
 43
1.0000
 50
0.0000
  0
INSERT
  8
21
  2
RECT
 10
48.6728
 20
14.4971
 30
0.0000
 41
0.4191
 42
0.0381
 43
1.0000
 50
0.0000
  0
INSERT
  8
21
  2
RECT
 10
33.4708
 20
14.5352
 30
0.0000
 41
1.2573
 42
0.0381
 43
1.0000
 50
0.0000
  0
INSERT
  8
21
  2
RECT
 10
35.3377
 20
14.5352
 30
0.0000
 41
0.4953
 42
0.0381
 43
1.0000
 50
0.0000
  0
INSERT
  8
21
  2
RECT
 10
39.0716
 20
14.5352
 30
0.0000
 41
0.4953
 42
0.0381
 43
1.0000
 50
0.0000
  0
INSERT
  8
21
  2
RECT
 10
40.2908
 20
14.5352
 30
0.0000
 41
1.1049
 42
0.0381
 43
1.0000
 50
0.0000
  0
INSERT
  8
21
  2
RECT
 10
41.5100
 20
14.5352
 30
0.0000
 41
0.4953
 42
0.0381
 43
1.0000
 50
0.0000
  0
INSERT
  8
21
  2
RECT
 10
43.3197
 20
14.5352
 30
0.0000
 41
1.2954
 42
0.0381
 43
1.0000
 50
0.0000
  0
INSERT
  8
21
  2
RECT
 10
45.0152
 20
14.5352
 30
0.0000
 41
0.4953
 42
0.0381
 43
1.0000
 50
0.0000
  0
INSERT
  8
21
  2
RECT
 10
47.0916
 20
14.5352
 30
0.0000
 41
0.6096
 42
0.0381
 43
1.0000
 50
0.0000
  0
INSERT
  8
21
  2
RECT
 10
47.8155
 20
14.5352
 30
0.0000
 41
0.6096
 42
0.0381
 43
1.0000
 50
0.0000
  0
INSERT
  8
21
  2
RECT
 10
48.6728
 20
14.5352
 30
0.0000
 41
0.4191
 42
0.0381
 43
1.0000
 50
0.0000
  0
INSERT
  8
21
  2
RECT
 10
33.1089
 20
14.5732
 30
0.0000
 41
0.5334
 42
0.0381
 43
1.0000
 50
0.0000
  0
INSERT
  8
21
  2
RECT
 10
33.7756
 20
14.5732
 30
0.0000
 41
0.7239
 42
0.0381
 43
1.0000
 50
0.0000
  0
INSERT
  8
21
  2
RECT
 10
35.3377
 20
14.5732
 30
0.0000
 41
0.4953
 42
0.0381
 43
1.0000
 50
0.0000
  0
INSERT
  8
21
  2
RECT
 10
39.0716
 20
14.5732
 30
0.0000
 41
0.4953
 42
0.0381
 43
1.0000
 50
0.0000
  0
INSERT
  8
21
  2
RECT
 10
40.2717
 20
14.5732
 30
0.0000
 41
1.0668
 42
0.0381
 43
1.0000
 50
0.0000
  0
INSERT
  8
21
  2
RECT
 10
41.5100
 20
14.5732
 30
0.0000
 41
0.4953
 42
0.0381
 43
1.0000
 50
0.0000
  0
INSERT
  8
21
  2
RECT
 10
43.3197
 20
14.5732
 30
0.0000
 41
1.2192
 42
0.0381
 43
1.0000
 50
0.0000
  0
INSERT
  8
21
  2
RECT
 10
45.0152
 20
14.5732
 30
0.0000
 41
0.4953
 42
0.0381
 43
1.0000
 50
0.0000
  0
INSERT
  8
21
  2
RECT
 10
47.1297
 20
14.5732
 30
0.0000
 41
0.6096
 42
0.0381
 43
1.0000
 50
0.0000
  0
INSERT
  8
21
  2
RECT
 10
47.8536
 20
14.5732
 30
0.0000
 41
0.6096
 42
0.0381
 43
1.0000
 50
0.0000
  0
INSERT
  8
21
  2
RECT
 10
48.6728
 20
14.5732
 30
0.0000
 41
0.4191
 42
0.0381
 43
1.0000
 50
0.0000
  0
INSERT
  8
21
  2
RECT
 10
33.1089
 20
14.6113
 30
0.0000
 41
0.5334
 42
0.0381
 43
1.0000
 50
0.0000
  0
INSERT
  8
21
  2
RECT
 10
33.8328
 20
14.6113
 30
0.0000
 41
0.7620
 42
0.0381
 43
1.0000
 50
0.0000
  0
INSERT
  8
21
  2
RECT
 10
35.3377
 20
14.6113
 30
0.0000
 41
0.4953
 42
0.0381
 43
1.0000
 50
0.0000
  0
INSERT
  8
21
  2
RECT
 10
39.0525
 20
14.6113
 30
0.0000
 41
0.5334
 42
0.0381
 43
1.0000
 50
0.0000
  0
INSERT
  8
21
  2
RECT
 10
40.2527
 20
14.6113
 30
0.0000
 41
1.0287
 42
0.0381
 43
1.0000
 50
0.0000
  0
INSERT
  8
21
  2
RECT
 10
41.5100
 20
14.6113
 30
0.0000
 41
0.4953
 42
0.0381
 43
1.0000
 50
0.0000
  0
INSERT
  8
21
  2
RECT
 10
43.3197
 20
14.6113
 30
0.0000
 41
1.1430
 42
0.0381
 43
1.0000
 50
0.0000
  0
INSERT
  8
21
  2
RECT
 10
45.0152
 20
14.6113
 30
0.0000
 41
0.4953
 42
0.0381
 43
1.0000
 50
0.0000
  0
INSERT
  8
21
  2
RECT
 10
47.1678
 20
14.6113
 30
0.0000
 41
0.6096
 42
0.0381
 43
1.0000
 50
0.0000
  0
INSERT
  8
21
  2
RECT
 10
47.8917
 20
14.6113
 30
0.0000
 41
0.6096
 42
0.0381
 43
1.0000
 50
0.0000
  0
INSERT
  8
21
  2
RECT
 10
48.6728
 20
14.6113
 30
0.0000
 41
0.4191
 42
0.0381
 43
1.0000
 50
0.0000
  0
INSERT
  8
21
  2
RECT
 10
33.1089
 20
14.6494
 30
0.0000
 41
0.5334
 42
0.0381
 43
1.0000
 50
0.0000
  0
INSERT
  8
21
  2
RECT
 10
33.8709
 20
14.6494
 30
0.0000
 41
0.7620
 42
0.0381
 43
1.0000
 50
0.0000
  0
INSERT
  8
21
  2
RECT
 10
35.3377
 20
14.6494
 30
0.0000
 41
0.4953
 42
0.0381
 43
1.0000
 50
0.0000
  0
INSERT
  8
21
  2
RECT
 10
39.0335
 20
14.6494
 30
0.0000
 41
0.5715
 42
0.0381
 43
1.0000
 50
0.0000
  0
INSERT
  8
21
  2
RECT
 10
40.2146
 20
14.6494
 30
0.0000
 41
0.9525
 42
0.0381
 43
1.0000
 50
0.0000
  0
INSERT
  8
21
  2
RECT
 10
41.5100
 20
14.6494
 30
0.0000
 41
0.4953
 42
0.0381
 43
1.0000
 50
0.0000
  0
INSERT
  8
21
  2
RECT
 10
43.3388
 20
14.6494
 30
0.0000
 41
1.1049
 42
0.0381
 43
1.0000
 50
0.0000
  0
INSERT
  8
21
  2
RECT
 10
45.0152
 20
14.6494
 30
0.0000
 41
0.4953
 42
0.0381
 43
1.0000
 50
0.0000
  0
INSERT
  8
21
  2
RECT
 10
47.2059
 20
14.6494
 30
0.0000
 41
0.6096
 42
0.0381
 43
1.0000
 50
0.0000
  0
INSERT
  8
21
  2
RECT
 10
47.9298
 20
14.6494
 30
0.0000
 41
0.6096
 42
0.0381
 43
1.0000
 50
0.0000
  0
INSERT
  8
21
  2
RECT
 10
48.6728
 20
14.6494
 30
0.0000
 41
0.4191
 42
0.0381
 43
1.0000
 50
0.0000
  0
INSERT
  8
21
  2
RECT
 10
33.1089
 20
14.6875
 30
0.0000
 41
0.5334
 42
0.0381
 43
1.0000
 50
0.0000
  0
INSERT
  8
21
  2
RECT
 10
33.9471
 20
14.6875
 30
0.0000
 41
0.7620
 42
0.0381
 43
1.0000
 50
0.0000
  0
INSERT
  8
21
  2
RECT
 10
35.3377
 20
14.6875
 30
0.0000
 41
0.4953
 42
0.0381
 43
1.0000
 50
0.0000
  0
INSERT
  8
21
  2
RECT
 10
39.0144
 20
14.6875
 30
0.0000
 41
0.6096
 42
0.0381
 43
1.0000
 50
0.0000
  0
INSERT
  8
21
  2
RECT
 10
40.1955
 20
14.6875
 30
0.0000
 41
0.9144
 42
0.0381
 43
1.0000
 50
0.0000
  0
INSERT
  8
21
  2
RECT
 10
41.5100
 20
14.6875
 30
0.0000
 41
0.4953
 42
0.0381
 43
1.0000
 50
0.0000
  0
INSERT
  8
21
  2
RECT
 10
43.3197
 20
14.6875
 30
0.0000
 41
1.0668
 42
0.0381
 43
1.0000
 50
0.0000
  0
INSERT
  8
21
  2
RECT
 10
45.0152
 20
14.6875
 30
0.0000
 41
0.4953
 42
0.0381
 43
1.0000
 50
0.0000
  0
INSERT
  8
21
  2
RECT
 10
47.2440
 20
14.6875
 30
0.0000
 41
0.6096
 42
0.0381
 43
1.0000
 50
0.0000
  0
INSERT
  8
21
  2
RECT
 10
47.9489
 20
14.6875
 30
0.0000
 41
0.5715
 42
0.0381
 43
1.0000
 50
0.0000
  0
INSERT
  8
21
  2
RECT
 10
48.6918
 20
14.6875
 30
0.0000
 41
0.3810
 42
0.0381
 43
1.0000
 50
0.0000
  0
INSERT
  8
21
  2
RECT
 10
33.1089
 20
14.7256
 30
0.0000
 41
0.5334
 42
0.0381
 43
1.0000
 50
0.0000
  0
INSERT
  8
21
  2
RECT
 10
33.9852
 20
14.7256
 30
0.0000
 41
0.7620
 42
0.0381
 43
1.0000
 50
0.0000
  0
INSERT
  8
21
  2
RECT
 10
35.3377
 20
14.7256
 30
0.0000
 41
0.4953
 42
0.0381
 43
1.0000
 50
0.0000
  0
INSERT
  8
21
  2
RECT
 10
38.9192
 20
14.7256
 30
0.0000
 41
0.7239
 42
0.0381
 43
1.0000
 50
0.0000
  0
INSERT
  8
21
  2
RECT
 10
40.1765
 20
14.7256
 30
0.0000
 41
0.8763
 42
0.0381
 43
1.0000
 50
0.0000
  0
INSERT
  8
21
  2
RECT
 10
41.5100
 20
14.7256
 30
0.0000
 41
0.4953
 42
0.0381
 43
1.0000
 50
0.0000
  0
INSERT
  8
21
  2
RECT
 10
43.3197
 20
14.7256
 30
0.0000
 41
0.9906
 42
0.0381
 43
1.0000
 50
0.0000
  0
INSERT
  8
21
  2
RECT
 10
45.0152
 20
14.7256
 30
0.0000
 41
0.4953
 42
0.0381
 43
1.0000
 50
0.0000
  0
INSERT
  8
21
  2
RECT
 10
47.2821
 20
14.7256
 30
0.0000
 41
0.6096
 42
0.0381
 43
1.0000
 50
0.0000
  0
INSERT
  8
21
  2
RECT
 10
47.9870
 20
14.7256
 30
0.0000
 41
0.5715
 42
0.0381
 43
1.0000
 50
0.0000
  0
INSERT
  8
21
  2
RECT
 10
48.7109
 20
14.7256
 30
0.0000
 41
0.3429
 42
0.0381
 43
1.0000
 50
0.0000
  0
INSERT
  8
21
  2
RECT
 10
33.1089
 20
14.7637
 30
0.0000
 41
0.5334
 42
0.0381
 43
1.0000
 50
0.0000
  0
INSERT
  8
21
  2
RECT
 10
34.0423
 20
14.7637
 30
0.0000
 41
0.7239
 42
0.0381
 43
1.0000
 50
0.0000
  0
INSERT
  8
21
  2
RECT
 10
35.8521
 20
14.7637
 30
0.0000
 41
1.5240
 42
0.0381
 43
1.0000
 50
0.0000
  0
INSERT
  8
21
  2
RECT
 10
38.1572
 20
14.7637
 30
0.0000
 41
2.2479
 42
0.0381
 43
1.0000
 50
0.0000
  0
INSERT
  8
21
  2
RECT
 10
40.1574
 20
14.7637
 30
0.0000
 41
0.8382
 42
0.0381
 43
1.0000
 50
0.0000
  0
INSERT
  8
21
  2
RECT
 10
41.5100
 20
14.7637
 30
0.0000
 41
0.4953
 42
0.0381
 43
1.0000
 50
0.0000
  0
INSERT
  8
21
  2
RECT
 10
43.3197
 20
14.7637
 30
0.0000
 41
0.9144
 42
0.0381
 43
1.0000
 50
0.0000
  0
INSERT
  8
21
  2
RECT
 10
45.0152
 20
14.7637
 30
0.0000
 41
0.4953
 42
0.0381
 43
1.0000
 50
0.0000
  0
INSERT
  8
21
  2
RECT
 10
47.3011
 20
14.7637
 30
0.0000
 41
0.5715
 42
0.0381
 43
1.0000
 50
0.0000
  0
INSERT
  8
21
  2
RECT
 10
48.0251
 20
14.7637
 30
0.0000
 41
0.5715
 42
0.0381
 43
1.0000
 50
0.0000
  0
INSERT
  8
21
  2
RECT
 10
48.7109
 20
14.7637
 30
0.0000
 41
0.3429
 42
0.0381
 43
1.0000
 50
0.0000
  0
INSERT
  8
21
  2
RECT
 10
33.1089
 20
14.8018
 30
0.0000
 41
0.5334
 42
0.0381
 43
1.0000
 50
0.0000
  0
INSERT
  8
21
  2
RECT
 10
34.0995
 20
14.8018
 30
0.0000
 41
0.7620
 42
0.0381
 43
1.0000
 50
0.0000
  0
INSERT
  8
21
  2
RECT
 10
35.8521
 20
14.8018
 30
0.0000
 41
1.5240
 42
0.0381
 43
1.0000
 50
0.0000
  0
INSERT
  8
21
  2
RECT
 10
38.1572
 20
14.8018
 30
0.0000
 41
2.1717
 42
0.0381
 43
1.0000
 50
0.0000
  0
INSERT
  8
21
  2
RECT
 10
40.1384
 20
14.8018
 30
0.0000
 41
0.8001
 42
0.0381
 43
1.0000
 50
0.0000
  0
INSERT
  8
21
  2
RECT
 10
41.5100
 20
14.8018
 30
0.0000
 41
0.4953
 42
0.0381
 43
1.0000
 50
0.0000
  0
INSERT
  8
21
  2
RECT
 10
43.3197
 20
14.8018
 30
0.0000
 41
0.9144
 42
0.0381
 43
1.0000
 50
0.0000
  0
INSERT
  8
21
  2
RECT
 10
45.0152
 20
14.8018
 30
0.0000
 41
0.4953
 42
0.0381
 43
1.0000
 50
0.0000
  0
INSERT
  8
21
  2
RECT
 10
47.3392
 20
14.8018
 30
0.0000
 41
0.5715
 42
0.0381
 43
1.0000
 50
0.0000
  0
INSERT
  8
21
  2
RECT
 10
48.0632
 20
14.8018
 30
0.0000
 41
0.5715
 42
0.0381
 43
1.0000
 50
0.0000
  0
INSERT
  8
21
  2
RECT
 10
48.7299
 20
14.8018
 30
0.0000
 41
0.3048
 42
0.0381
 43
1.0000
 50
0.0000
  0
INSERT
  8
21
  2
RECT
 10
33.1089
 20
14.8399
 30
0.0000
 41
0.5334
 42
0.0381
 43
1.0000
 50
0.0000
  0
INSERT
  8
21
  2
RECT
 10
34.1376
 20
14.8399
 30
0.0000
 41
0.7620
 42
0.0381
 43
1.0000
 50
0.0000
  0
INSERT
  8
21
  2
RECT
 10
35.8712
 20
14.8399
 30
0.0000
 41
1.5621
 42
0.0381
 43
1.0000
 50
0.0000
  0
INSERT
  8
21
  2
RECT
 10
38.1762
 20
14.8399
 30
0.0000
 41
2.1336
 42
0.0381
 43
1.0000
 50
0.0000
  0
INSERT
  8
21
  2
RECT
 10
40.1003
 20
14.8399
 30
0.0000
 41
0.7239
 42
0.0381
 43
1.0000
 50
0.0000
  0
INSERT
  8
21
  2
RECT
 10
41.5100
 20
14.8399
 30
0.0000
 41
0.4953
 42
0.0381
 43
1.0000
 50
0.0000
  0
INSERT
  8
21
  2
RECT
 10
43.3197
 20
14.8399
 30
0.0000
 41
0.8382
 42
0.0381
 43
1.0000
 50
0.0000
  0
INSERT
  8
21
  2
RECT
 10
45.0152
 20
14.8399
 30
0.0000
 41
0.4953
 42
0.0381
 43
1.0000
 50
0.0000
  0
INSERT
  8
21
  2
RECT
 10
47.3773
 20
14.8399
 30
0.0000
 41
0.5715
 42
0.0381
 43
1.0000
 50
0.0000
  0
INSERT
  8
21
  2
RECT
 10
48.1013
 20
14.8399
 30
0.0000
 41
0.5715
 42
0.0381
 43
1.0000
 50
0.0000
  0
INSERT
  8
21
  2
RECT
 10
48.7490
 20
14.8399
 30
0.0000
 41
0.2667
 42
0.0381
 43
1.0000
 50
0.0000
  0
INSERT
  8
21
  2
RECT
 10
33.1089
 20
14.8780
 30
0.0000
 41
0.5334
 42
0.0381
 43
1.0000
 50
0.0000
  0
INSERT
  8
21
  2
RECT
 10
34.2138
 20
14.8780
 30
0.0000
 41
0.7620
 42
0.0381
 43
1.0000
 50
0.0000
  0
INSERT
  8
21
  2
RECT
 10
35.8902
 20
14.8780
 30
0.0000
 41
1.6002
 42
0.0381
 43
1.0000
 50
0.0000
  0
INSERT
  8
21
  2
RECT
 10
38.1762
 20
14.8780
 30
0.0000
 41
2.0574
 42
0.0381
 43
1.0000
 50
0.0000
  0
INSERT
  8
21
  2
RECT
 10
40.0812
 20
14.8780
 30
0.0000
 41
0.6858
 42
0.0381
 43
1.0000
 50
0.0000
  0
INSERT
  8
21
  2
RECT
 10
41.5100
 20
14.8780
 30
0.0000
 41
0.4953
 42
0.0381
 43
1.0000
 50
0.0000
  0
INSERT
  8
21
  2
RECT
 10
43.3197
 20
14.8780
 30
0.0000
 41
0.7620
 42
0.0381
 43
1.0000
 50
0.0000
  0
INSERT
  8
21
  2
RECT
 10
45.0152
 20
14.8780
 30
0.0000
 41
0.4953
 42
0.0381
 43
1.0000
 50
0.0000
  0
INSERT
  8
21
  2
RECT
 10
47.4154
 20
14.8780
 30
0.0000
 41
0.5715
 42
0.0381
 43
1.0000
 50
0.0000
  0
INSERT
  8
21
  2
RECT
 10
48.1394
 20
14.8780
 30
0.0000
 41
0.5715
 42
0.0381
 43
1.0000
 50
0.0000
  0
INSERT
  8
21
  2
RECT
 10
48.7680
 20
14.8780
 30
0.0000
 41
0.2286
 42
0.0381
 43
1.0000
 50
0.0000
  0
INSERT
  8
21
  2
RECT
 10
33.1089
 20
14.9162
 30
0.0000
 41
0.5334
 42
0.0381
 43
1.0000
 50
0.0000
  0
INSERT
  8
21
  2
RECT
 10
34.2519
 20
14.9162
 30
0.0000
 41
0.7620
 42
0.0381
 43
1.0000
 50
0.0000
  0
INSERT
  8
21
  2
RECT
 10
35.9093
 20
14.9162
 30
0.0000
 41
1.6383
 42
0.0381
 43
1.0000
 50
0.0000
  0
INSERT
  8
21
  2
RECT
 10
38.1572
 20
14.9162
 30
0.0000
 41
2.0193
 42
0.0381
 43
1.0000
 50
0.0000
  0
INSERT
  8
21
  2
RECT
 10
40.0622
 20
14.9162
 30
0.0000
 41
0.6477
 42
0.0381
 43
1.0000
 50
0.0000
  0
INSERT
  8
21
  2
RECT
 10
41.5100
 20
14.9162
 30
0.0000
 41
0.4953
 42
0.0381
 43
1.0000
 50
0.0000
  0
INSERT
  8
21
  2
RECT
 10
43.3388
 20
14.9162
 30
0.0000
 41
0.7239
 42
0.0381
 43
1.0000
 50
0.0000
  0
INSERT
  8
21
  2
RECT
 10
45.0152
 20
14.9162
 30
0.0000
 41
0.4953
 42
0.0381
 43
1.0000
 50
0.0000
  0
INSERT
  8
21
  2
RECT
 10
47.4535
 20
14.9162
 30
0.0000
 41
0.5715
 42
0.0381
 43
1.0000
 50
0.0000
  0
INSERT
  8
21
  2
RECT
 10
48.1775
 20
14.9162
 30
0.0000
 41
0.5715
 42
0.0381
 43
1.0000
 50
0.0000
  0
INSERT
  8
21
  2
RECT
 10
48.7871
 20
14.9162
 30
0.0000
 41
0.1905
 42
0.0381
 43
1.0000
 50
0.0000
  0
INSERT
  8
21
  2
RECT
 10
33.1089
 20
14.9543
 30
0.0000
 41
0.5334
 42
0.0381
 43
1.0000
 50
0.0000
  0
INSERT
  8
21
  2
RECT
 10
34.3090
 20
14.9543
 30
0.0000
 41
0.7239
 42
0.0381
 43
1.0000
 50
0.0000
  0
INSERT
  8
21
  2
RECT
 10
35.9093
 20
14.9543
 30
0.0000
 41
1.6383
 42
0.0381
 43
1.0000
 50
0.0000
  0
INSERT
  8
21
  2
RECT
 10
38.1572
 20
14.9543
 30
0.0000
 41
1.9431
 42
0.0381
 43
1.0000
 50
0.0000
  0
INSERT
  8
21
  2
RECT
 10
40.0431
 20
14.9543
 30
0.0000
 41
0.6096
 42
0.0381
 43
1.0000
 50
0.0000
  0
INSERT
  8
21
  2
RECT
 10
41.5100
 20
14.9543
 30
0.0000
 41
0.4953
 42
0.0381
 43
1.0000
 50
0.0000
  0
INSERT
  8
21
  2
RECT
 10
43.3197
 20
14.9543
 30
0.0000
 41
0.6858
 42
0.0381
 43
1.0000
 50
0.0000
  0
INSERT
  8
21
  2
RECT
 10
45.0152
 20
14.9543
 30
0.0000
 41
0.4953
 42
0.0381
 43
1.0000
 50
0.0000
  0
INSERT
  8
21
  2
RECT
 10
47.4916
 20
14.9543
 30
0.0000
 41
0.5715
 42
0.0381
 43
1.0000
 50
0.0000
  0
INSERT
  8
21
  2
RECT
 10
48.2156
 20
14.9543
 30
0.0000
 41
0.5715
 42
0.0381
 43
1.0000
 50
0.0000
  0
INSERT
  8
21
  2
RECT
 10
48.8061
 20
14.9543
 30
0.0000
 41
0.1524
 42
0.0381
 43
1.0000
 50
0.0000
  0
INSERT
  8
21
  2
RECT
 10
33.1089
 20
14.9924
 30
0.0000
 41
0.5334
 42
0.0381
 43
1.0000
 50
0.0000
  0
INSERT
  8
21
  2
RECT
 10
34.3662
 20
14.9924
 30
0.0000
 41
0.7620
 42
0.0381
 43
1.0000
 50
0.0000
  0
INSERT
  8
21
  2
RECT
 10
35.9283
 20
14.9924
 30
0.0000
 41
1.6764
 42
0.0381
 43
1.0000
 50
0.0000
  0
INSERT
  8
21
  2
RECT
 10
38.1381
 20
14.9924
 30
0.0000
 41
1.8288
 42
0.0381
 43
1.0000
 50
0.0000
  0
INSERT
  8
21
  2
RECT
 10
40.0431
 20
14.9924
 30
0.0000
 41
0.5334
 42
0.0381
 43
1.0000
 50
0.0000
  0
INSERT
  8
21
  2
RECT
 10
41.5100
 20
14.9924
 30
0.0000
 41
0.4953
 42
0.0381
 43
1.0000
 50
0.0000
  0
INSERT
  8
21
  2
RECT
 10
43.3197
 20
14.9924
 30
0.0000
 41
0.6096
 42
0.0381
 43
1.0000
 50
0.0000
  0
INSERT
  8
21
  2
RECT
 10
45.0152
 20
14.9924
 30
0.0000
 41
0.4953
 42
0.0381
 43
1.0000
 50
0.0000
  0
INSERT
  8
21
  2
RECT
 10
47.5297
 20
14.9924
 30
0.0000
 41
0.5715
 42
0.0381
 43
1.0000
 50
0.0000
  0
INSERT
  8
21
  2
RECT
 10
48.2537
 20
14.9924
 30
0.0000
 41
0.5715
 42
0.0381
 43
1.0000
 50
0.0000
  0
INSERT
  8
21
  2
RECT
 10
48.8252
 20
14.9924
 30
0.0000
 41
0.1143
 42
0.0381
 43
1.0000
 50
0.0000
  0
INSERT
  8
21
  2
RECT
 10
33.1089
 20
15.0305
 30
0.0000
 41
0.5334
 42
0.0381
 43
1.0000
 50
0.0000
  0
INSERT
  8
21
  2
RECT
 10
34.4043
 20
15.0305
 30
0.0000
 41
0.7620
 42
0.0381
 43
1.0000
 50
0.0000
  0
INSERT
  8
21
  2
RECT
 10
35.9474
 20
15.0305
 30
0.0000
 41
1.7145
 42
0.0381
 43
1.0000
 50
0.0000
  0
INSERT
  8
21
  2
RECT
 10
38.1381
 20
15.0305
 30
0.0000
 41
1.7526
 42
0.0381
 43
1.0000
 50
0.0000
  0
INSERT
  8
21
  2
RECT
 10
40.0050
 20
15.0305
 30
0.0000
 41
0.4572
 42
0.0381
 43
1.0000
 50
0.0000
  0
INSERT
  8
21
  2
RECT
 10
41.5100
 20
15.0305
 30
0.0000
 41
0.4953
 42
0.0381
 43
1.0000
 50
0.0000
  0
INSERT
  8
21
  2
RECT
 10
43.3197
 20
15.0305
 30
0.0000
 41
0.5334
 42
0.0381
 43
1.0000
 50
0.0000
  0
INSERT
  8
21
  2
RECT
 10
45.0152
 20
15.0305
 30
0.0000
 41
0.4953
 42
0.0381
 43
1.0000
 50
0.0000
  0
INSERT
  8
21
  2
RECT
 10
47.5678
 20
15.0305
 30
0.0000
 41
0.5715
 42
0.0381
 43
1.0000
 50
0.0000
  0
INSERT
  8
21
  2
RECT
 10
48.2727
 20
15.0305
 30
0.0000
 41
0.6096
 42
0.0381
 43
1.0000
 50
0.0000
  0
INSERT
  8
21
  2
RECT
 10
48.8442
 20
15.0305
 30
0.0000
 41
0.0762
 42
0.0381
 43
1.0000
 50
0.0000
  0
INSERT
  8
21
  2
RECT
 10
33.1089
 20
15.0686
 30
0.0000
 41
0.5334
 42
0.0381
 43
1.0000
 50
0.0000
  0
INSERT
  8
21
  2
RECT
 10
34.4805
 20
15.0686
 30
0.0000
 41
0.7620
 42
0.0381
 43
1.0000
 50
0.0000
  0
INSERT
  8
21
  2
RECT
 10
35.9664
 20
15.0686
 30
0.0000
 41
1.7526
 42
0.0381
 43
1.0000
 50
0.0000
  0
INSERT
  8
21
  2
RECT
 10
38.1000
 20
15.0686
 30
0.0000
 41
1.6002
 42
0.0381
 43
1.0000
 50
0.0000
  0
INSERT
  8
21
  2
RECT
 10
39.9860
 20
15.0686
 30
0.0000
 41
0.4191
 42
0.0381
 43
1.0000
 50
0.0000
  0
INSERT
  8
21
  2
RECT
 10
41.5100
 20
15.0686
 30
0.0000
 41
0.4953
 42
0.0381
 43
1.0000
 50
0.0000
  0
INSERT
  8
21
  2
RECT
 10
43.3197
 20
15.0686
 30
0.0000
 41
0.4572
 42
0.0381
 43
1.0000
 50
0.0000
  0
INSERT
  8
21
  2
RECT
 10
45.0152
 20
15.0686
 30
0.0000
 41
0.4953
 42
0.0381
 43
1.0000
 50
0.0000
  0
INSERT
  8
21
  2
RECT
 10
47.6059
 20
15.0686
 30
0.0000
 41
0.5715
 42
0.0381
 43
1.0000
 50
0.0000
  0
INSERT
  8
21
  2
RECT
 10
48.3108
 20
15.0686
 30
0.0000
 41
0.6096
 42
0.0381
 43
1.0000
 50
0.0000
  0
INSERT
  8
21
  2
RECT
 10
48.8633
 20
15.0686
 30
0.0000
 41
0.0381
 42
0.0381
 43
1.0000
 50
0.0000
  0
INSERT
  8
21
  2
RECT
 10
33.1089
 20
15.1067
 30
0.0000
 41
0.5334
 42
0.0381
 43
1.0000
 50
0.0000
  0
INSERT
  8
21
  2
RECT
 10
34.5186
 20
15.1067
 30
0.0000
 41
0.7620
 42
0.0381
 43
1.0000
 50
0.0000
  0
INSERT
  8
21
  2
RECT
 10
35.9664
 20
15.1067
 30
0.0000
 41
1.7526
 42
0.0381
 43
1.0000
 50
0.0000
  0
INSERT
  8
21
  2
RECT
 10
38.0429
 20
15.1067
 30
0.0000
 41
1.4859
 42
0.0381
 43
1.0000
 50
0.0000
  0
INSERT
  8
21
  2
RECT
 10
39.9860
 20
15.1067
 30
0.0000
 41
0.2667
 42
0.0381
 43
1.0000
 50
0.0000
  0
INSERT
  8
21
  2
RECT
 10
41.5100
 20
15.1067
 30
0.0000
 41
0.4953
 42
0.0381
 43
1.0000
 50
0.0000
  0
INSERT
  8
21
  2
RECT
 10
43.3197
 20
15.1067
 30
0.0000
 41
0.3048
 42
0.0381
 43
1.0000
 50
0.0000
  0
INSERT
  8
21
  2
RECT
 10
45.0152
 20
15.1067
 30
0.0000
 41
0.4953
 42
0.0381
 43
1.0000
 50
0.0000
  0
INSERT
  8
21
  2
RECT
 10
47.6441
 20
15.1067
 30
0.0000
 41
0.5715
 42
0.0381
 43
1.0000
 50
0.0000
  0
INSERT
  8
21
  2
RECT
 10
48.3489
 20
15.1067
 30
0.0000
 41
0.6096
 42
0.0381
 43
1.0000
 50
0.0000
  0
INSERT
  8
21
  2
RECT
 10
33.0898
 20
15.1448
 30
0.0000
 41
0.4953
 42
0.0381
 43
1.0000
 50
0.0000
  0
INSERT
  8
21
  2
RECT
 10
34.5757
 20
15.1448
 30
0.0000
 41
0.7239
 42
0.0381
 43
1.0000
 50
0.0000
  0
INSERT
  8
21
  2
RECT
 10
35.9855
 20
15.1448
 30
0.0000
 41
1.7907
 42
0.0381
 43
1.0000
 50
0.0000
  0
INSERT
  8
21
  2
RECT
 10
37.8905
 20
15.1448
 30
0.0000
 41
1.1049
 42
0.0381
 43
1.0000
 50
0.0000
  0
INSERT
  8
21
  2
RECT
 10
41.5100
 20
15.1448
 30
0.0000
 41
0.4953
 42
0.0381
 43
1.0000
 50
0.0000
  0
INSERT
  8
21
  2
RECT
 10
43.3388
 20
15.1448
 30
0.0000
 41
0.1143
 42
0.0381
 43
1.0000
 50
0.0000
  0
INSERT
  8
21
  2
RECT
 10
45.0152
 20
15.1448
 30
0.0000
 41
0.4953
 42
0.0381
 43
1.0000
 50
0.0000
  0
INSERT
  8
21
  2
RECT
 10
47.6822
 20
15.1448
 30
0.0000
 41
0.5715
 42
0.0381
 43
1.0000
 50
0.0000
  0
INSERT
  8
21
  2
RECT
 10
48.3870
 20
15.1448
 30
0.0000
 41
0.6096
 42
0.0381
 43
1.0000
 50
0.0000
  0
LINE
  8
21
 10
1.3589
 20
61.8702
 30
0.0000
 11
1.3589
 21
63.2164
 31
0.0000
  0
LINE
  8
21
 10
1.3589
 20
63.2164
 30
0.0000
 11
1.7328
 21
63.2164
 31
0.0000
  0
ARC
  8
21
 10
1.7328
 20
62.9920
 30
0.0000
 40
0.2244
 50
0.0000
 51
90.0000
  0
LINE
  8
21
 10
1.9572
 20
62.9920
 30
0.0000
 11
1.9572
 21
62.5433
 31
0.0000
  0
ARC
  8
21
 10
1.7328
 20
62.5433
 30
0.0000
 40
0.2244
 50
270.0008
 51
0.0000
  0
LINE
  8
21
 10
1.7328
 20
62.3189
 30
0.0000
 11
1.3589
 21
62.3189
 31
0.0000
  0
LINE
  8
21
 10
2.5485
 20
63.6651
 30
0.0000
 11
2.5485
 21
62.5433
 31
0.0000
  0
ARC
  8
21
 10
2.7729
 20
62.5433
 30
0.0000
 40
0.2244
 50
180.0000
 51
270.0000
  0
LINE
  8
21
 10
3.8564
 20
62.8424
 30
0.0000
 11
3.5199
 21
62.8424
 31
0.0000
  0
ARC
  8
21
 10
3.5199
 20
62.5807
 30
0.0000
 40
0.2618
 50
90.0000
 51
270.0000
  0
LINE
  8
21
 10
3.5199
 20
62.3189
 30
0.0000
 11
3.8564
 21
62.3189
 31
0.0000
  0
LINE
  8
21
 10
3.8564
 20
62.3189
 30
0.0000
 11
3.8564
 21
62.9920
 31
0.0000
  0
ARC
  8
21
 10
3.6320
 20
62.9920
 30
0.0000
 40
0.2244
 50
0.0000
 51
90.0000
  0
LINE
  8
21
 10
3.6320
 20
63.2164
 30
0.0000
 11
3.3329
 21
63.2164
 31
0.0000
  0
LINE
  8
21
 10
5.0241
 20
62.3189
 30
0.0000
 11
4.7250
 21
62.3189
 31
0.0000
  0
ARC
  8
21
 10
4.7250
 20
62.5433
 30
0.0000
 40
0.2244
 50
180.0000
 51
270.0000
  0
LINE
  8
21
 10
4.5006
 20
62.5433
 30
0.0000
 11
4.5006
 21
62.9920
 31
0.0000
  0
ARC
  8
21
 10
4.7250
 20
62.9920
 30
0.0000
 40
0.2244
 50
89.9992
 51
180.0000
  0
LINE
  8
21
 10
4.7250
 20
63.2164
 30
0.0000
 11
5.0241
 21
63.2164
 31
0.0000
  0
LINE
  8
21
 10
6.1464
 20
62.3189
 30
0.0000
 11
5.7725
 21
62.3189
 31
0.0000
  0
ARC
  8
21
 10
5.7725
 20
62.5433
 30
0.0000
 40
0.2244
 50
180.0000
 51
270.0000
  0
LINE
  8
21
 10
5.5481
 20
62.5433
 30
0.0000
 11
5.5481
 21
62.9172
 31
0.0000
  0
ARC
  8
21
 10
5.8473
 20
62.9172
 30
0.0000
 40
0.2992
 50
0.0000
 51
180.0000
  0
LINE
  8
21
 10
6.1464
 20
62.9172
 30
0.0000
 11
6.1464
 21
62.7676
 31
0.0000
  0
LINE
  8
21
 10
6.1464
 20
62.7676
 30
0.0000
 11
5.5481
 21
62.7676
 31
0.0000
  0
LINE
  8
21
 10
6.8130
 20
62.3189
 30
0.0000
 11
6.8130
 21
63.2164
 31
0.0000
  0
LINE
  8
21
 10
6.8130
 20
63.2164
 30
0.0000
 11
7.4861
 21
63.2164
 31
0.0000
  0
ARC
  8
21
 10
7.4861
 20
62.9920
 30
0.0000
 40
0.2244
 50
0.0000
 51
90.0000
  0
LINE
  8
21
 10
7.7105
 20
62.9920
 30
0.0000
 11
7.7105
 21
62.3189
 31
0.0000
  0
LINE
  8
21
 10
7.2617
 20
62.3189
 30
0.0000
 11
7.2617
 21
63.2164
 31
0.0000
  0
LINE
  8
21
 10
8.9754
 20
62.3189
 30
0.0000
 11
8.6014
 21
62.3189
 31
0.0000
  0
ARC
  8
21
 10
8.6014
 20
62.5433
 30
0.0000
 40
0.2244
 50
180.0000
 51
270.0000
  0
LINE
  8
21
 10
8.3771
 20
62.5433
 30
0.0000
 11
8.3771
 21
62.9172
 31
0.0000
  0
ARC
  8
21
 10
8.6762
 20
62.9172
 30
0.0000
 40
0.2992
 50
0.0000
 51
180.0000
  0
LINE
  8
21
 10
8.9754
 20
62.9172
 30
0.0000
 11
8.9754
 21
62.7676
 31
0.0000
  0
LINE
  8
21
 10
8.9754
 20
62.7676
 30
0.0000
 11
8.3771
 21
62.7676
 31
0.0000
  0
LINE
  8
21
 10
9.6090
 20
62.3189
 30
0.0000
 11
9.6090
 21
63.2164
 31
0.0000
  0
LINE
  8
21
 10
9.6090
 20
63.2164
 30
0.0000
 11
9.9830
 21
63.2164
 31
0.0000
  0
ARC
  8
21
 10
9.9830
 20
62.9920
 30
0.0000
 40
0.2244
 50
0.0000
 51
90.0000
  0
LINE
  8
21
 10
10.2074
 20
62.9920
 30
0.0000
 11
10.2074
 21
62.3189
 31
0.0000
  0
LINE
  8
21
 10
10.7198
 20
63.2164
 30
0.0000
 11
11.1685
 21
63.2164
 31
0.0000
  0
LINE
  8
21
 10
10.8694
 20
63.6651
 30
0.0000
 11
10.8694
 21
62.5433
 31
0.0000
  0
ARC
  8
21
 10
11.0937
 20
62.5433
 30
0.0000
 40
0.2244
 50
180.0000
 51
270.0000
  0
LINE
  8
21
 10
11.0937
 20
62.3189
 30
0.0000
 11
11.1685
 21
62.3189
 31
0.0000
  0
LINE
  8
21
 10
12.9635
 20
62.3189
 30
0.0000
 11
12.6643
 21
62.3189
 31
0.0000
  0
ARC
  8
21
 10
12.6643
 20
62.5433
 30
0.0000
 40
0.2244
 50
180.0000
 51
270.0000
  0
LINE
  8
21
 10
12.4400
 20
62.5433
 30
0.0000
 11
12.4400
 21
62.9920
 31
0.0000
  0
ARC
  8
21
 10
12.6643
 20
62.9920
 30
0.0000
 40
0.2244
 50
89.9992
 51
180.0000
  0
LINE
  8
21
 10
12.6643
 20
63.2164
 30
0.0000
 11
12.9635
 21
63.2164
 31
0.0000
  0
LINE
  8
21
 10
13.4875
 20
62.6181
 30
0.0000
 11
13.4875
 21
62.9172
 31
0.0000
  0
ARC
  8
21
 10
13.7866
 20
62.9172
 30
0.0000
 40
0.2992
 50
0.0000
 51
180.0000
  0
LINE
  8
21
 10
14.0858
 20
62.9172
 30
0.0000
 11
14.0858
 21
62.6181
 31
0.0000
  0
ARC
  8
21
 10
13.7866
 20
62.6181
 30
0.0000
 40
0.2992
 50
180.0000
 51
0.0000
  0
LINE
  8
21
 10
14.7524
 20
62.3189
 30
0.0000
 11
14.7524
 21
63.2164
 31
0.0000
  0
LINE
  8
21
 10
14.7524
 20
63.2164
 30
0.0000
 11
15.4255
 21
63.2164
 31
0.0000
  0
ARC
  8
21
 10
15.4255
 20
62.9920
 30
0.0000
 40
0.2244
 50
0.0000
 51
90.0000
  0
LINE
  8
21
 10
15.6498
 20
62.9920
 30
0.0000
 11
15.6498
 21
62.3189
 31
0.0000
  0
LINE
  8
21
 10
15.2011
 20
62.3189
 30
0.0000
 11
15.2011
 21
63.2164
 31
0.0000
  0
LINE
  8
21
 10
16.3706
 20
61.8702
 30
0.0000
 11
16.3706
 21
63.2164
 31
0.0000
  0
LINE
  8
21
 10
16.3706
 20
63.2164
 30
0.0000
 11
16.7446
 21
63.2164
 31
0.0000
  0
ARC
  8
21
 10
16.7446
 20
62.9920
 30
0.0000
 40
0.2244
 50
0.0000
 51
90.0000
  0
LINE
  8
21
 10
16.9690
 20
62.9920
 30
0.0000
 11
16.9690
 21
62.5433
 31
0.0000
  0
ARC
  8
21
 10
16.7446
 20
62.5433
 30
0.0000
 40
0.2244
 50
270.0008
 51
0.0000
  0
LINE
  8
21
 10
16.7446
 20
62.3189
 30
0.0000
 11
16.3706
 21
62.3189
 31
0.0000
  0
LINE
  8
21
 10
17.5484
 20
62.6181
 30
0.0000
 11
17.5484
 21
62.9172
 31
0.0000
  0
ARC
  8
21
 10
17.8475
 20
62.9172
 30
0.0000
 40
0.2992
 50
0.0000
 51
180.0000
  0
LINE
  8
21
 10
18.1467
 20
62.9172
 30
0.0000
 11
18.1467
 21
62.6181
 31
0.0000
  0
ARC
  8
21
 10
17.8475
 20
62.6181
 30
0.0000
 40
0.2992
 50
180.0000
 51
0.0000
  0
LINE
  8
21
 10
18.7804
 20
62.3189
 30
0.0000
 11
18.7804
 21
63.2164
 31
0.0000
  0
LINE
  8
21
 10
18.7804
 20
63.2164
 30
0.0000
 11
19.1543
 21
63.2164
 31
0.0000
  0
ARC
  8
21
 10
19.1543
 20
62.9920
 30
0.0000
 40
0.2244
 50
0.0000
 51
90.0000
  0
LINE
  8
21
 10
19.3787
 20
62.9920
 30
0.0000
 11
19.3787
 21
62.3189
 31
0.0000
  0
LINE
  8
21
 10
20.6106
 20
62.3189
 30
0.0000
 11
20.2367
 21
62.3189
 31
0.0000
  0
ARC
  8
21
 10
20.2367
 20
62.5433
 30
0.0000
 40
0.2244
 50
180.0000
 51
270.0000
  0
LINE
  8
21
 10
20.0123
 20
62.5433
 30
0.0000
 11
20.0123
 21
62.9172
 31
0.0000
  0
ARC
  8
21
 10
20.3115
 20
62.9172
 30
0.0000
 40
0.2992
 50
0.0000
 51
180.0000
  0
LINE
  8
21
 10
20.6106
 20
62.9172
 30
0.0000
 11
20.6106
 21
62.7676
 31
0.0000
  0
LINE
  8
21
 10
20.6106
 20
62.7676
 30
0.0000
 11
20.0123
 21
62.7676
 31
0.0000
  0
LINE
  8
21
 10
21.2443
 20
62.3189
 30
0.0000
 11
21.2443
 21
63.2164
 31
0.0000
  0
LINE
  8
21
 10
21.2443
 20
63.2164
 30
0.0000
 11
21.6182
 21
63.2164
 31
0.0000
  0
ARC
  8
21
 10
21.6182
 20
62.9920
 30
0.0000
 40
0.2244
 50
0.0000
 51
90.0000
  0
LINE
  8
21
 10
21.8426
 20
62.9920
 30
0.0000
 11
21.8426
 21
62.3189
 31
0.0000
  0
LINE
  8
21
 10
22.3550
 20
63.2164
 30
0.0000
 11
22.8038
 21
63.2164
 31
0.0000
  0
LINE
  8
21
 10
22.5046
 20
63.6651
 30
0.0000
 11
22.5046
 21
62.5433
 31
0.0000
  0
ARC
  8
21
 10
22.7290
 20
62.5433
 30
0.0000
 40
0.2244
 50
180.0000
 51
270.0000
  0
LINE
  8
21
 10
22.7290
 20
62.3189
 30
0.0000
 11
22.8038
 21
62.3189
 31
0.0000
  0
LINE
  8
21
 10
24.5594
 20
62.6928
 30
0.0000
 11
24.1854
 21
62.8424
 31
0.0000
  0
ARC
  8
21
 10
24.2574
 20
63.0225
 30
0.0000
 40
0.1939
 50
89.1810
 51
248.1986
  0
ARC
  8
21
 10
24.2481
 20
62.3671
 30
0.0000
 40
0.8493
 50
65.7609
 51
89.1810
  0
ARC
  8
21
 10
24.4874
 20
62.5128
 30
0.0000
 40
0.1939
 50
269.1810
 51
68.1986
  0
ARC
  8
21
 10
24.5027
 20
63.5872
 30
0.0000
 40
1.2684
 50
250.2096
 51
269.1810
  0
LINE
  8
21
 10
25.2393
 20
62.3189
 30
0.0000
 11
25.2393
 21
63.2164
 31
0.0000
  0
LINE
  8
21
 10
25.2019
 20
63.5903
 30
0.0000
 11
25.2019
 21
63.6651
 31
0.0000
  0
LINE
  8
21
 10
25.2019
 20
63.6651
 30
0.0000
 11
25.2767
 21
63.6651
 31
0.0000
  0
LINE
  8
21
 10
25.2767
 20
63.6651
 30
0.0000
 11
25.2767
 21
63.5903
 31
0.0000
  0
LINE
  8
21
 10
25.2767
 20
63.5903
 30
0.0000
 11
25.2019
 21
63.5903
 31
0.0000
  0
LINE
  8
21
 10
26.3968
 20
63.6651
 30
0.0000
 11
26.3968
 21
62.3189
 31
0.0000
  0
LINE
  8
21
 10
26.3968
 20
62.3189
 30
0.0000
 11
26.0229
 21
62.3189
 31
0.0000
  0
ARC
  8
21
 10
26.0229
 20
62.5433
 30
0.0000
 40
0.2244
 50
180.0000
 51
270.0000
  0
LINE
  8
21
 10
25.7985
 20
62.5433
 30
0.0000
 11
25.7985
 21
62.9920
 31
0.0000
  0
ARC
  8
21
 10
26.0229
 20
62.9920
 30
0.0000
 40
0.2244
 50
89.9992
 51
180.0000
  0
LINE
  8
21
 10
26.0229
 20
63.2164
 30
0.0000
 11
26.3968
 21
63.2164
 31
0.0000
  0
LINE
  8
21
 10
27.6374
 20
62.3189
 30
0.0000
 11
27.2635
 21
62.3189
 31
0.0000
  0
ARC
  8
21
 10
27.2635
 20
62.5433
 30
0.0000
 40
0.2244
 50
180.0000
 51
270.0000
  0
LINE
  8
21
 10
27.0391
 20
62.5433
 30
0.0000
 11
27.0391
 21
62.9172
 31
0.0000
  0
ARC
  8
21
 10
27.3382
 20
62.9172
 30
0.0000
 40
0.2992
 50
0.0000
 51
180.0000
  0
LINE
  8
21
 10
27.6374
 20
62.9172
 30
0.0000
 11
27.6374
 21
62.7676
 31
0.0000
  0
LINE
  8
21
 10
27.6374
 20
62.7676
 30
0.0000
 11
27.0391
 21
62.7676
 31
0.0000
  0
ENDSEC
  0
EOF
